<svg width="502" height="337" viewBox="0 0 502 337" fill="none" xmlns="http://www.w3.org/2000/svg">
<path d="M32.3953 292.596C32.9378 293.301 33.2093 294.032 33.2093 294.792C33.2093 295.714 32.8564 296.445 32.1512 296.987C31.446 297.475 30.6047 297.719 29.6279 297.719C29.1395 297.719 28.6238 297.584 28.0814 297.313C27.593 296.987 27.0773 296.635 26.5349 296.255C26.0465 295.822 25.5308 295.388 24.9884 294.954C24.5 294.466 24.039 294.087 23.6047 293.816C22.9535 293.653 22.4378 293.491 22.0581 293.328C21.6785 293.111 21.054 292.949 20.186 292.84C18.1238 293.111 16.2517 293.924 14.5698 295.28C12.8878 296.581 11.4227 298.235 10.1744 300.24C8.98084 302.192 8.03079 304.36 7.32558 306.746C6.67442 309.132 6.34884 311.49 6.34884 313.821C6.34884 315.719 6.59302 317.508 7.0814 319.188C7.56977 320.815 8.32967 322.278 9.36047 323.58C10.3913 324.827 11.6395 325.829 13.1047 326.589C14.6238 327.293 16.4145 327.646 18.4767 327.646C20.7558 327.646 22.9261 327.185 24.9884 326.263C27.0506 325.341 28.5424 324.014 29.4651 322.278C30.3331 321.031 31.3099 320.408 32.3953 320.408C33.1553 320.408 33.8878 320.679 34.593 321.221C35.3529 321.709 35.7326 322.441 35.7326 323.417C35.7326 324.23 35.5157 325.016 35.0814 325.775C34.6471 326.48 34.1047 327.158 33.4535 327.808C32.8023 328.405 32.0971 328.974 31.3372 329.516C30.5773 330.004 29.8721 330.438 29.2209 330.817C27.6471 331.902 25.9651 332.688 24.1744 333.176C22.3837 333.664 20.6204 333.907 18.8837 333.907C16.3331 333.907 13.9186 333.501 11.6395 332.688C9.36047 331.82 7.35293 330.601 5.61628 329.028C3.93433 327.456 2.5773 325.504 1.54651 323.173C0.515721 320.842 0 318.158 0 315.122C0 309.43 1.08549 304.334 3.25581 299.834C5.48084 295.28 8.57386 291.539 12.5349 288.611C13.5116 287.852 14.6238 287.31 15.8721 286.985C17.1204 286.605 18.4227 286.416 19.7791 286.416C21.2982 286.416 22.6006 286.578 23.686 286.903C24.7715 287.229 25.775 287.689 26.6977 288.286C27.6744 288.828 28.5971 289.478 29.4651 290.238C30.3331 290.997 31.3099 291.783 32.3953 292.596ZM60.3953 285.602C60.8837 285.602 61.3447 285.656 61.7791 285.765C62.1587 285.386 62.8099 285.196 63.7326 285.196C65.0349 285.196 66.0116 285.711 66.6628 286.741L68.3721 289.587C69.7285 290.942 70.8413 292.515 71.7093 294.304C72.632 296.039 73.3646 297.855 73.907 299.752C74.4494 301.65 74.8297 303.547 75.0465 305.445C75.2634 307.343 75.3721 309.104 75.3721 310.731C75.3721 313.496 74.9651 316.369 74.1512 319.351C73.3372 322.332 71.8721 325.043 69.7558 327.483C67.8023 329.977 66.039 331.793 64.4651 332.932C62.8913 334.016 60.9925 334.558 58.7674 334.558C57.8447 334.558 56.6512 334.449 55.186 334.233C53.775 334.016 52.3099 333.555 50.7907 332.85C49.3256 332.146 47.9419 331.115 46.6395 329.76C45.3372 328.405 44.3878 326.589 43.7907 324.311C43.2483 322.414 42.8413 320.761 42.5698 319.351C42.3529 317.887 42.2442 316.423 42.2442 314.959C42.2442 312.357 42.461 309.809 42.8953 307.315C43.3837 304.767 44.0349 302.409 44.8488 300.24C45.6628 298.017 46.6395 296.039 47.7791 294.304C48.9727 292.569 50.275 291.186 51.686 290.156C53.9651 288.53 56.868 287.012 60.3953 285.602ZM62.186 292.027L59.907 292.759C58.3878 293.247 57.0581 294.06 55.9186 295.198C54.7791 296.283 53.8023 297.529 52.9884 298.939C52.1744 300.349 51.4959 301.839 50.9535 303.412C50.4111 304.93 49.9767 306.393 49.6512 307.803C49.3256 309.213 49.0814 310.459 48.9186 311.544C48.8099 312.628 48.7558 313.387 48.7558 313.821C48.7558 317.616 49.814 321.547 51.9302 325.613C52.961 326.48 53.9925 327.13 55.0233 327.564C56.1087 327.998 57.4925 328.215 59.1744 328.215C59.2832 328.215 59.446 328.161 59.6628 328.052L60.1512 327.89C60.2599 327.836 60.368 327.781 60.4767 327.727C60.5855 327.673 60.6936 327.592 60.8023 327.483L61.8605 326.589C62.0773 326.535 62.2401 326.372 62.3488 326.101C63.3256 325.016 64.1936 323.932 64.9535 322.848C65.7674 321.763 66.446 320.598 66.9884 319.351C67.5855 318.05 68.0192 316.667 68.2907 315.203C68.6163 313.686 68.7791 311.978 68.7791 310.08C68.7791 307.587 68.4261 305.12 67.7209 302.68C67.0698 300.186 66.1204 297.882 64.8721 295.768C63.9494 294.575 63.3256 293.816 63 293.491C62.7285 293.111 62.5116 292.705 62.3488 292.271L62.186 292.027ZM117.698 320.733C119.109 316.342 120.248 312.005 121.116 307.722C121.984 303.384 122.798 299.02 123.558 294.629C123.721 293.707 124.101 292.975 124.698 292.433C125.349 291.891 126.081 291.62 126.895 291.62C127.818 291.62 128.577 291.945 129.174 292.596C129.826 293.247 130.151 294.168 130.151 295.361C129.283 301.053 128.116 306.773 126.651 312.52C125.186 318.212 123.748 323.607 122.337 328.703C122.012 329.895 121.659 330.899 121.279 331.712C120.899 332.471 120.085 332.986 118.837 333.257H118.593C117.67 333.203 117.101 333.067 116.884 332.85L116.314 332.281C115.337 330.926 114.632 329.651 114.198 328.459C113.763 327.212 113.33 325.965 112.895 324.718C112.135 323.038 111.213 321.167 110.128 319.107C109.097 316.993 108.147 314.797 107.279 312.52L106.709 310.975C105.733 313.089 104.865 315.122 104.105 317.074C103.345 319.026 102.612 320.95 101.907 322.848C101.256 324.745 100.577 326.643 99.8721 328.54C99.1669 330.438 98.3796 332.362 97.5116 334.314C96.9145 335.127 96.0739 335.669 94.9884 335.941H94.7442C93.7674 335.832 92.9261 335.48 92.2209 334.883C91.5157 334.341 91.1087 333.61 91 332.688C90.2948 329.597 89.6977 326.561 89.2093 323.58C88.7209 320.543 88.1238 317.562 87.4186 314.634C86.1163 310.026 84.9227 305.499 83.8372 301.053C82.7517 296.608 81.8837 291.918 81.2326 286.985C81.1785 286.822 81.1512 286.605 81.1512 286.334C81.1512 285.412 81.4494 284.626 82.0465 283.976C82.6977 283.325 83.4843 283 84.407 283C85.0581 283 85.7093 283.217 86.3605 283.651C87.0116 284.085 87.4727 284.789 87.7442 285.765C88.3954 290.644 89.2634 295.28 90.3488 299.671C91.4343 304.008 92.6006 308.508 93.8488 313.17L95.6395 321.709L95.9651 320.083L97.5116 315.691C98.4343 313.089 99.3837 310.541 100.36 308.047C101.337 305.553 102.341 303.005 103.372 300.403C103.481 300.186 103.562 299.834 103.616 299.346C103.725 298.804 103.888 298.289 104.105 297.801C104.376 297.259 104.728 296.797 105.163 296.418C105.651 296.039 106.356 295.822 107.279 295.768H107.442C108.907 296.147 109.856 297.177 110.291 298.858L110.372 300.403C110.481 302.355 110.996 304.496 111.919 306.827C112.841 309.158 113.818 311.463 114.849 313.74C115.283 315.041 115.717 316.288 116.151 317.48C116.64 318.619 117.155 319.703 117.698 320.733ZM164.907 287.473C165.395 288.395 165.64 289.262 165.64 290.075C165.64 290.834 165.314 291.511 164.663 292.108C164.066 292.65 163.279 292.921 162.302 292.921C161.651 292.921 161.054 292.786 160.512 292.515C158.395 290.726 156.089 289.831 153.593 289.831C150.772 289.831 148.384 290.97 146.43 293.247C146.376 293.463 146.295 293.707 146.186 293.978C146.132 294.25 146.051 294.494 145.942 294.71C145.942 296.987 146.539 298.885 147.733 300.403C148.926 301.867 150.419 303.195 152.209 304.388C154 305.526 155.926 306.611 157.988 307.641C160.051 308.67 161.977 309.864 163.767 311.219C165.558 312.574 167.051 314.228 168.244 316.179C169.438 318.077 170.035 320.462 170.035 323.336C170.035 325.721 169.465 327.727 168.326 329.353C167.24 330.98 165.856 332.308 164.174 333.338C162.492 334.314 160.702 335.019 158.802 335.453C156.903 335.941 155.14 336.184 153.512 336.184C150.69 336.184 147.923 335.588 145.209 334.395C142.496 333.257 140.135 331.522 138.128 329.191C137.694 328.594 137.26 327.836 136.826 326.914C136.391 325.992 136.174 325.097 136.174 324.23C136.174 323.308 136.446 322.522 136.988 321.872C137.585 321.167 138.426 320.815 139.512 320.815C140.542 320.815 141.356 321.275 141.953 322.197C142.605 323.064 143.174 324.149 143.663 325.45C145.074 326.86 146.593 327.917 148.221 328.622C149.849 329.272 151.531 329.597 153.267 329.597C153.919 329.597 154.733 329.543 155.709 329.435C156.686 329.272 157.635 329.028 158.558 328.703C159.535 328.378 160.403 327.971 161.163 327.483C161.977 326.941 162.547 326.291 162.872 325.531C162.981 325.097 163.062 324.745 163.116 324.474C163.225 324.149 163.333 323.851 163.442 323.58C163.116 321.737 162.438 320.137 161.407 318.782C160.43 317.426 159.263 316.233 157.907 315.203C156.551 314.174 155.112 313.279 153.593 312.52C152.128 311.761 150.772 311.029 149.523 310.324C147.298 309.077 145.291 307.587 143.5 305.851C141.709 304.062 140.353 301.487 139.43 298.126C139.159 297.15 139.023 296.228 139.023 295.361C139.023 293.518 139.484 291.837 140.407 290.319C141.33 288.801 142.523 287.527 143.988 286.497C145.453 285.412 147.109 284.572 148.953 283.976C150.798 283.379 152.67 283.081 154.57 283.081C156.795 283.081 158.721 283.488 160.349 284.301C161.977 285.06 163.496 286.118 164.907 287.473ZM198.279 294.222C198.116 300.024 198.035 306.014 198.035 312.195V331.224C198.035 332.2 197.682 332.986 196.977 333.582C196.326 334.179 195.62 334.477 194.86 334.477C194.101 334.477 193.341 334.205 192.581 333.664C191.876 333.176 191.469 332.308 191.36 331.061V312.357C191.36 306.339 191.442 300.512 191.605 294.873C189 295.144 186.667 295.388 184.605 295.605C182.542 295.768 180.725 295.957 179.151 296.174C178.066 296.065 177.225 295.686 176.628 295.036C176.085 294.385 175.814 293.599 175.814 292.677C175.814 291.647 176.302 290.861 177.279 290.319C178.256 289.777 179.558 289.37 181.186 289.099C182.814 288.774 184.686 288.557 186.802 288.449C188.973 288.34 191.252 288.177 193.64 287.961C196.949 287.689 199.88 287.473 202.43 287.31C204.981 287.147 207.179 287.066 209.023 287.066C210.977 287.771 211.953 288.855 211.953 290.319C211.791 291.457 211.302 292.271 210.488 292.759C209.728 293.247 208.725 293.572 207.477 293.734C206.283 293.897 204.899 293.978 203.326 293.978C201.752 293.978 200.07 294.06 198.279 294.222ZM225.465 333.745C225.465 334.667 225.112 335.425 224.407 336.022C223.756 336.618 223.051 336.916 222.291 336.916C221.531 336.916 220.772 336.645 220.012 336.103C219.306 335.615 218.899 334.802 218.791 333.664C218.791 330.031 218.818 326.426 218.872 322.848C218.981 319.27 219.035 315.664 219.035 312.032C219.035 311.002 218.953 309.376 218.791 307.153C218.682 304.876 218.628 302.517 218.628 300.078C218.628 297.475 218.709 294.927 218.872 292.433C219.089 289.94 219.577 287.771 220.337 285.928L220.826 285.114L221.721 284.382C223.186 283.841 224.705 283.569 226.279 283.569C228.504 283.569 230.891 283.813 233.442 284.301C235.992 284.735 238.353 285.521 240.523 286.659C242.694 287.798 244.484 289.343 245.895 291.295C247.36 293.193 248.093 295.632 248.093 298.614C248.093 300.024 247.876 301.325 247.442 302.517C247.062 303.71 246.547 304.794 245.895 305.77C245.298 306.746 244.593 307.613 243.779 308.372C243.019 309.132 242.26 309.755 241.5 310.243C239.926 311.273 238.19 312.086 236.291 312.682C234.391 313.224 232.411 313.848 230.349 314.553L229.372 314.878C229.263 314.824 229.209 314.797 229.209 314.797C230.512 315.719 231.733 316.695 232.872 317.724C234.066 318.7 235.26 319.676 236.453 320.652C237.702 321.628 238.977 322.576 240.279 323.498C241.635 324.365 243.101 325.179 244.674 325.938C245.705 326.914 246.221 327.944 246.221 329.028C246.221 329.95 245.895 330.709 245.244 331.305C244.647 331.847 243.915 332.118 243.047 332.118C242.395 332.118 241.635 331.928 240.767 331.549C239.899 331.17 239.004 330.709 238.081 330.167C237.159 329.57 236.209 328.947 235.233 328.296C234.31 327.646 233.442 327.049 232.628 326.507C231.217 325.585 229.915 324.637 228.721 323.661C227.581 322.685 226.551 321.737 225.628 320.815V322.522C225.628 324.311 225.574 326.155 225.465 328.052C225.411 329.895 225.411 331.793 225.465 333.745ZM225.709 308.779C225.601 308.888 225.547 308.942 225.547 308.942C225.492 308.942 225.628 308.888 225.953 308.779C227.147 308.454 228.612 308.128 230.349 307.803C232.14 307.424 233.849 306.909 235.477 306.258C237.105 305.553 238.488 304.632 239.628 303.493C240.821 302.301 241.419 300.701 241.419 298.695C241.419 297.069 241.093 295.795 240.442 294.873C239.845 293.951 239.031 293.247 238 292.759C237.023 292.217 235.911 291.837 234.663 291.62C233.415 291.349 232.167 291.078 230.919 290.807C230.213 290.644 229.426 290.509 228.558 290.4C227.69 290.238 226.958 290.156 226.36 290.156C226.144 290.156 225.981 290.509 225.872 291.214C225.763 291.864 225.682 292.65 225.628 293.572C225.628 294.494 225.628 295.415 225.628 296.337C225.628 297.204 225.628 297.855 225.628 298.289C225.628 300.294 225.628 302.192 225.628 303.981C225.682 305.77 225.709 307.369 225.709 308.779ZM272.674 285.602C273.163 285.602 273.624 285.656 274.058 285.765C274.438 285.386 275.089 285.196 276.012 285.196C277.314 285.196 278.291 285.711 278.942 286.741L280.651 289.587C282.008 290.942 283.12 292.515 283.988 294.304C284.911 296.039 285.644 297.855 286.186 299.752C286.728 301.65 287.109 303.547 287.326 305.445C287.542 307.343 287.651 309.104 287.651 310.731C287.651 313.496 287.244 316.369 286.43 319.351C285.616 322.332 284.151 325.043 282.035 327.483C280.081 329.977 278.318 331.793 276.744 332.932C275.17 334.016 273.272 334.558 271.047 334.558C270.124 334.558 268.93 334.449 267.465 334.233C266.054 334.016 264.589 333.555 263.07 332.85C261.605 332.146 260.221 331.115 258.919 329.76C257.616 328.405 256.667 326.589 256.07 324.311C255.527 322.414 255.12 320.761 254.849 319.351C254.632 317.887 254.523 316.423 254.523 314.959C254.523 312.357 254.74 309.809 255.174 307.315C255.663 304.767 256.314 302.409 257.128 300.24C257.942 298.017 258.919 296.039 260.058 294.304C261.252 292.569 262.554 291.186 263.965 290.156C266.244 288.53 269.147 287.012 272.674 285.602ZM274.465 292.027L272.186 292.759C270.667 293.247 269.337 294.06 268.198 295.198C267.058 296.283 266.081 297.529 265.267 298.939C264.453 300.349 263.775 301.839 263.233 303.412C262.69 304.93 262.256 306.393 261.93 307.803C261.605 309.213 261.36 310.459 261.198 311.544C261.089 312.628 261.035 313.387 261.035 313.821C261.035 317.616 262.093 321.547 264.209 325.613C265.24 326.48 266.272 327.13 267.302 327.564C268.388 327.998 269.772 328.215 271.453 328.215C271.562 328.215 271.725 328.161 271.942 328.052L272.43 327.89C272.539 327.836 272.647 327.781 272.756 327.727C272.865 327.673 272.973 327.592 273.081 327.483L274.14 326.589C274.356 326.535 274.519 326.372 274.628 326.101C275.605 325.016 276.473 323.932 277.233 322.848C278.047 321.763 278.725 320.598 279.267 319.351C279.865 318.05 280.298 316.667 280.57 315.203C280.895 313.686 281.058 311.978 281.058 310.08C281.058 307.587 280.705 305.12 280 302.68C279.349 300.186 278.399 297.882 277.151 295.768C276.228 294.575 275.605 293.816 275.279 293.491C275.008 293.111 274.791 292.705 274.628 292.271L274.465 292.027ZM302.465 330.329C302.194 331.197 301.733 331.847 301.081 332.281C300.484 332.715 299.888 332.932 299.291 332.932C298.368 332.932 297.581 332.66 296.93 332.118C296.279 331.522 295.899 330.682 295.791 329.597C295.953 328.08 296.035 326.561 296.035 325.043C296.035 321.628 295.709 318.212 295.058 314.797C294.461 311.381 294.054 307.857 293.837 304.225V301.867C293.837 301.053 293.865 300.132 293.919 299.102C293.973 298.072 294.054 297.069 294.163 296.093C294.272 295.117 294.38 294.222 294.488 293.409C294.651 292.542 294.814 291.864 294.977 291.376L295.221 290.563C295.221 290.238 295.33 289.94 295.547 289.668C295.818 289.343 296.116 289.072 296.442 288.855C296.821 288.639 297.202 288.476 297.581 288.367C297.961 288.205 298.287 288.123 298.558 288.123C299.318 288.123 300.051 288.395 300.756 288.936C302.872 290.672 305.016 292.569 307.186 294.629C309.411 296.635 311.5 298.695 313.453 300.809C315.461 302.924 317.306 305.038 318.988 307.153C320.67 309.267 322.027 311.219 323.058 313.008L323.547 307.722C323.818 305.391 324.008 302.978 324.116 300.484C324.279 297.991 324.388 295.415 324.442 292.759C324.333 292.325 324.279 291.945 324.279 291.62C324.279 290.536 324.577 289.696 325.174 289.099C325.772 288.503 326.531 288.205 327.453 288.205C328.213 288.205 328.837 288.34 329.326 288.611C329.868 288.882 330.275 289.234 330.547 289.668C330.872 290.102 331.089 290.59 331.198 291.132C331.306 291.62 331.36 292.108 331.36 292.596C331.36 293.463 331.279 294.331 331.116 295.198C331.008 296.011 330.953 296.771 330.953 297.475C330.628 302.029 330.275 306.502 329.895 310.893C329.516 315.231 329.326 319.676 329.326 324.23C329.272 325.26 328.946 326.128 328.349 326.832C327.806 327.537 326.992 327.89 325.907 327.89C325.31 327.89 324.74 327.7 324.198 327.32C323.709 326.941 323.248 326.507 322.814 326.019C322.38 325.531 322 325.043 321.674 324.555C321.403 324.068 321.213 323.715 321.105 323.498L319.721 320.489C317.17 315.881 314.24 311.653 310.93 307.803C307.674 303.9 304.256 300.43 300.674 297.394C300.566 298.153 300.458 298.939 300.349 299.752C300.295 300.512 300.267 301.27 300.267 302.029C300.267 304.09 300.376 306.149 300.593 308.21C300.865 310.27 301.135 312.33 301.407 314.39C301.679 316.396 301.923 318.429 302.14 320.489C302.411 322.55 302.547 324.637 302.547 326.751C302.547 327.348 302.547 327.944 302.547 328.54C302.547 329.137 302.519 329.733 302.465 330.329ZM348.047 317.887C347.775 317.833 347.531 317.806 347.314 317.806C347.205 317.806 346.934 318.212 346.5 319.026C346.066 319.785 345.551 320.679 344.953 321.709C344.411 322.685 343.868 323.688 343.326 324.718C342.783 325.694 342.376 326.399 342.105 326.832C341.237 327.862 340.26 328.378 339.174 328.378C338.36 328.378 337.655 328.106 337.058 327.564C336.461 326.968 336.163 326.128 336.163 325.043C336.163 324.609 336.19 324.257 336.244 323.986C338.035 320.842 339.744 317.752 341.372 314.716C343 311.679 344.682 308.67 346.419 305.689C348.209 302.707 350.081 299.806 352.035 296.987C353.988 294.114 356.186 291.322 358.628 288.611C359.008 288.177 359.415 287.907 359.849 287.798C360.283 287.635 360.69 287.527 361.07 287.473C361.884 287.473 362.562 287.771 363.105 288.367C363.702 288.964 364.054 289.696 364.163 290.563C364 291.16 363.81 291.566 363.593 291.783L364.244 291.457C364.949 291.457 365.682 291.647 366.442 292.027C367.256 292.406 367.826 293.138 368.151 294.222C368.585 297.259 369.101 300.213 369.698 303.086C370.295 305.905 370.865 308.752 371.407 311.625C372.004 314.444 372.519 317.29 372.953 320.164C373.442 323.038 373.74 326.019 373.849 329.109C373.849 330.194 373.523 331.034 372.872 331.63C372.221 332.172 371.516 332.444 370.756 332.444C369.942 332.444 369.155 332.2 368.395 331.712C367.69 331.224 367.283 330.383 367.174 329.191C367.066 325.396 366.74 321.818 366.198 318.456C366.089 318.565 365.791 318.646 365.302 318.7C362.372 318.7 359.442 318.565 356.512 318.294C353.635 318.022 350.814 317.887 348.047 317.887ZM350.895 311.381C352.849 311.49 355.128 311.625 357.733 311.788C360.337 311.951 362.725 312.032 364.895 312.032H364.977L364.895 311.625C364.733 311.083 364.542 310.297 364.326 309.267C364.109 308.237 363.865 307.125 363.593 305.933C363.376 304.74 363.132 303.52 362.86 302.273C362.644 300.972 362.426 299.806 362.209 298.776C361.992 297.747 361.802 296.906 361.64 296.255C361.531 295.605 361.477 295.28 361.477 295.28C360.988 295.714 360.31 296.499 359.442 297.638C358.682 298.614 357.705 300.05 356.512 301.948C355.318 303.791 353.826 306.312 352.035 309.511L350.895 311.381ZM379.547 289.099C379.492 288.936 379.465 288.72 379.465 288.449C379.465 287.419 379.791 286.605 380.442 286.009C381.093 285.358 381.798 285.033 382.558 285.033C383.263 285.033 383.969 285.25 384.674 285.684C385.38 286.118 385.841 286.822 386.058 287.798C386.818 291.214 387.632 294.548 388.5 297.801C389.423 300.999 390.399 304.334 391.43 307.803C391.756 309.376 392.109 311.056 392.488 312.845C392.868 314.634 393.302 316.423 393.791 318.212C394.279 319.947 394.849 321.628 395.5 323.254C396.151 324.827 396.884 326.182 397.701 327.32C398.352 327.808 399.133 328.052 400.058 328.052C402.552 328.052 404.616 327.266 406.244 325.694C407.872 324.122 409.148 322.251 410.073 320.083C410.991 317.86 411.616 315.556 411.942 313.17C412.32 310.785 412.508 308.779 412.508 307.153V300.078C412.508 298.289 412.456 296.499 412.352 294.71C412.241 292.867 412.215 291.051 412.267 289.262C412.43 288.286 412.808 287.527 413.407 286.985C414.058 286.388 414.761 286.09 415.523 286.09C416.227 286.09 416.878 286.334 417.477 286.822C418.128 287.256 418.616 288.015 418.942 289.099C418.942 291.647 418.994 294.168 419.105 296.662C419.267 299.102 419.346 301.569 419.346 304.062C419.346 306.936 419.131 309.999 418.694 313.252C418.317 316.505 417.503 319.595 416.259 322.522C415.009 325.396 413.244 327.944 410.965 330.167C408.738 332.335 405.782 333.772 402.09 334.477C401.764 334.531 401.413 334.558 401.035 334.558C400.709 334.558 400.358 334.558 399.98 334.558C397.968 334.558 396.26 334.151 394.849 333.338C393.438 332.471 392.244 331.332 391.267 329.923C390.291 328.513 389.477 326.914 388.826 325.125C388.174 323.336 387.605 321.493 387.116 319.595C386.682 317.697 386.302 315.854 385.977 314.065C385.651 312.222 385.298 310.541 384.919 309.023C384.105 305.77 383.155 302.463 382.07 299.102C381.039 295.74 380.198 292.406 379.547 289.099ZM448.322 294.222C448.166 300.024 448.081 306.014 448.081 312.195V331.224C448.081 332.2 447.73 332.986 447.02 333.582C446.369 334.179 445.666 334.477 444.91 334.477C444.148 334.477 443.387 334.205 442.631 333.664C441.921 333.176 441.518 332.308 441.407 331.061V312.357C441.407 306.339 441.485 300.512 441.654 294.873C439.05 295.144 436.712 295.388 434.648 295.605C432.59 295.768 430.773 295.957 429.198 296.174C428.11 296.065 427.27 295.686 426.678 295.036C426.131 294.385 425.857 293.599 425.857 292.677C425.857 291.647 426.352 290.861 427.329 290.319C428.306 289.777 429.608 289.37 431.236 289.099C432.864 288.774 434.733 288.557 436.849 288.449C439.017 288.34 441.296 288.177 443.686 287.961C446.994 287.689 449.924 287.473 452.477 287.31C455.029 287.147 457.224 287.066 459.067 287.066C461.02 287.771 461.997 288.855 461.997 290.319C461.84 291.457 461.346 292.271 460.538 292.759C459.776 293.247 458.773 293.572 457.523 293.734C456.332 293.897 454.945 293.978 453.375 293.978C451.8 293.978 450.12 294.06 448.322 294.222ZM496.678 287.473C497.16 288.395 497.407 289.262 497.407 290.075C497.407 290.834 497.081 291.511 496.43 292.108C495.831 292.65 495.05 292.921 494.073 292.921C493.422 292.921 492.823 292.786 492.276 292.515C490.166 290.726 487.854 289.831 485.36 289.831C482.541 289.831 480.151 290.97 478.198 293.247C478.146 293.463 478.061 293.707 477.95 293.978C477.898 294.25 477.82 294.494 477.709 294.71C477.709 296.987 478.308 298.885 479.5 300.403C480.692 301.867 482.183 303.195 483.98 304.388C485.764 305.526 487.692 306.611 489.756 307.641C491.82 308.67 493.747 309.864 495.532 311.219C497.329 312.574 498.82 314.228 500.012 316.179C501.203 318.077 501.802 320.462 501.802 323.336C501.802 325.721 501.236 327.727 500.09 329.353C499.009 330.98 497.622 332.308 495.942 333.338C494.262 334.314 492.471 335.019 490.57 335.453C488.668 335.941 486.91 336.184 485.282 336.184C482.456 336.184 479.689 335.588 476.973 334.395C474.265 333.257 471.901 331.522 469.895 329.191C469.459 328.594 469.029 327.836 468.593 326.914C468.157 325.992 467.942 325.097 467.942 324.23C467.942 323.308 468.215 322.522 468.756 321.872C469.355 321.167 470.195 320.815 471.282 320.815C472.311 320.815 473.125 321.275 473.718 322.197C474.369 323.064 474.942 324.149 475.43 325.45C476.843 326.86 478.36 327.917 479.988 328.622C481.616 329.272 483.296 329.597 485.035 329.597C485.686 329.597 486.5 329.543 487.477 329.435C488.453 329.272 489.404 329.028 490.322 328.703C491.299 328.378 492.172 327.971 492.927 327.483C493.747 326.941 494.314 326.291 494.64 325.531C494.75 325.097 494.828 324.745 494.88 324.474C494.991 324.149 495.102 323.851 495.206 323.58C494.88 321.737 494.203 320.137 493.174 318.782C492.198 317.426 491.032 316.233 489.671 315.203C488.317 314.174 486.878 313.279 485.36 312.52C483.895 311.761 482.541 311.029 481.291 310.324C479.064 309.077 477.058 307.587 475.267 305.851C473.477 304.062 472.122 301.487 471.198 298.126C470.924 297.15 470.787 296.228 470.787 295.361C470.787 293.518 471.25 291.837 472.174 290.319C473.099 288.801 474.291 287.527 475.756 286.497C477.221 285.412 478.875 284.572 480.724 283.976C482.567 283.379 484.436 283.081 486.337 283.081C488.564 283.081 490.492 283.488 492.12 284.301C493.747 285.06 495.265 286.118 496.678 287.473Z" fill="#C4C4C4"/>
<path d="M265.953 230.954C318.459 230.954 361.023 188.429 361.023 135.97C361.023 83.5117 318.459 40.9862 265.953 40.9862C213.448 40.9862 170.884 83.5117 170.884 135.97C170.884 188.429 213.448 230.954 265.953 230.954Z" fill="white"/>
<path fill-rule="evenodd" clip-rule="evenodd" d="M327.452 74.3425C328.967 75.8629 330.27 77.1068 330.346 77.1068C330.422 77.1068 329.244 75.8629 327.729 74.3425C326.213 72.8228 324.91 71.5789 324.834 71.5789C324.759 71.5789 325.936 72.8228 327.452 74.3425ZM268.042 75.6476C268.533 75.7087 269.405 75.71 269.978 75.6502C270.552 75.5903 270.151 75.5402 269.086 75.5389C268.021 75.5376 267.551 75.587 268.042 75.6476ZM235.947 77.0456C235.676 77.544 235.54 78.0918 235.646 78.2629C235.77 78.4619 235.714 78.4964 235.49 78.3578C235.233 78.1998 235.19 78.298 235.328 78.7313C235.458 79.1424 235.379 79.3721 235.065 79.4924C234.818 79.5874 234.683 79.8418 234.766 80.0584C234.849 80.2744 234.808 80.3844 234.676 80.3024C234.166 79.9882 233.841 82.4389 234.19 83.9612C234.375 84.7673 234.584 85.3684 234.655 85.2969C234.727 85.2253 234.796 85.6235 234.809 86.1804C234.851 87.9883 235.24 90.7845 235.46 90.8658C235.578 90.9094 235.641 91.3745 235.599 91.9002C235.557 92.4252 235.637 92.9255 235.777 93.012C235.916 93.0979 236.03 93.4095 236.03 93.7049C236.03 94.0003 236.137 94.241 236.268 94.241C236.4 94.241 236.473 94.552 236.431 94.9319C236.389 95.3125 236.455 95.6228 236.577 95.6228C236.699 95.6228 236.88 96.058 236.98 96.5902C237.08 97.1224 237.276 97.5576 237.417 97.5576C237.558 97.5576 237.601 97.7443 237.513 97.972C237.322 98.4704 237.852 98.5354 238.079 98.041C238.166 97.8517 238.173 97.9616 238.094 98.2856C237.931 98.9505 238.463 100.321 238.883 100.321C239.034 100.321 238.971 100.539 238.743 100.805C238.514 101.071 238.232 101.475 238.116 101.703C238 101.931 238.219 101.745 238.601 101.289C238.984 100.833 239.24 100.367 239.17 100.254C239.1 100.142 239.184 99.8307 239.355 99.5633C239.639 99.1229 239.652 99.1294 239.504 99.6303C239.404 99.9667 239.707 99.75 240.278 99.0774C240.795 98.4697 241.222 97.8614 241.228 97.7268C241.233 97.5914 241.392 97.3865 241.58 97.2701C241.831 97.1159 241.627 96.5856 240.826 95.3047C238.118 90.9712 236.957 86.6741 236.617 79.7319L236.441 76.1394L235.947 77.0456ZM231.107 81.3915C230.758 82.1117 230.545 82.7733 230.634 82.8624C230.723 82.9516 230.874 82.7252 230.97 82.3602C231.133 81.7376 231.158 81.7298 231.378 82.234C231.56 82.651 231.581 82.6067 231.471 82.0349C231.39 81.6179 231.462 81.2529 231.636 81.195C231.805 81.1391 231.898 80.8652 231.843 80.5874C231.772 80.2309 231.556 80.4664 231.107 81.3915ZM229.837 84.4648C229.592 85.1837 229.4 85.9058 229.412 86.0685C229.423 86.2318 229.671 85.6905 229.964 84.8668C230.256 84.0432 230.448 83.3211 230.39 83.2625C230.331 83.2046 230.082 83.7453 229.837 84.4648ZM323.104 86.4334C323.241 89.2068 323.357 89.4788 323.399 87.125C323.423 85.8707 323.348 84.8447 323.234 84.8447C323.119 84.8441 323.061 85.5591 323.104 86.4334ZM307.397 91.8924C308.377 92.88 309.242 93.6886 309.317 93.6886C309.393 93.6886 308.654 92.88 307.674 91.8924C306.694 90.9042 305.829 90.0955 305.753 90.0955C305.677 90.0955 306.417 90.9042 307.397 91.8924ZM321.913 93.781C322.022 94.2924 321.98 94.5019 321.79 94.3848C321.346 94.1109 321.119 95.0249 321.462 95.7074C321.737 96.2545 321.751 96.2324 321.613 95.4849C321.508 94.9189 321.543 94.7738 321.722 95.0275C322.114 95.5831 322.431 94.0705 322.048 93.4707C321.802 93.0862 321.778 93.1441 321.913 93.781ZM287.836 102.184C288.717 102.239 290.086 102.238 290.879 102.183C291.672 102.127 290.952 102.082 289.279 102.083C287.605 102.084 286.956 102.129 287.836 102.184ZM288.518 108.536C289.012 108.597 289.821 108.597 290.316 108.536C290.81 108.475 290.406 108.424 289.417 108.424C288.428 108.424 288.023 108.475 288.518 108.536ZM232.647 115.998C233.143 116.059 233.89 116.059 234.306 115.996C234.722 115.932 234.315 115.882 233.402 115.884C232.489 115.885 232.149 115.936 232.647 115.998ZM243.861 119.805C243.862 120.717 243.914 121.057 243.975 120.56C244.037 120.064 244.036 119.317 243.973 118.902C243.91 118.487 243.86 118.893 243.861 119.805ZM223.789 121.525C224.284 121.587 225.093 121.587 225.587 121.525C226.082 121.464 225.678 121.414 224.689 121.414C223.7 121.414 223.295 121.464 223.789 121.525ZM224.071 124.566C224.568 124.627 225.315 124.626 225.731 124.563C226.147 124.5 225.74 124.449 224.827 124.451C223.914 124.452 223.574 124.504 224.071 124.566ZM325.2 129.064C325.2 130.507 325.247 131.099 325.304 130.376C325.361 129.654 325.361 128.473 325.304 127.751C325.247 127.029 325.2 127.619 325.2 129.064ZM168.926 136.664C168.926 139.399 168.968 140.482 169.018 139.068C169.069 137.654 169.068 135.416 169.018 134.093C168.967 132.771 168.926 133.927 168.926 136.664ZM251.07 137.078C251.07 138.674 251.115 139.327 251.171 138.529C251.227 137.731 251.227 136.425 251.171 135.627C251.115 134.829 251.07 135.482 251.07 137.078ZM303.16 141.154C306.079 141.199 310.934 141.199 313.949 141.155C316.964 141.11 314.575 141.073 308.642 141.073C302.708 141.073 300.242 141.11 303.16 141.154ZM331.551 153.108C331.551 154.095 331.602 154.5 331.663 154.005C331.724 153.512 331.724 152.704 331.663 152.209C331.602 151.715 331.551 152.119 331.551 153.108ZM229.253 159.981C229.709 160.484 230.456 161.154 230.912 161.468C231.893 162.145 231.672 161.905 229.806 160.275C228.784 159.381 228.64 159.305 229.253 159.981ZM226.34 161.192C227.325 162.218 228.184 163.057 228.251 163.057C228.316 163.057 228.166 162.831 227.916 162.555C227.666 162.28 227.554 161.938 227.666 161.795C227.778 161.653 227.75 161.631 227.605 161.746C227.459 161.861 226.712 161.364 225.945 160.641C225.063 159.811 225.209 160.014 226.34 161.192ZM199.507 164.646L197.995 166.235L199.586 164.724C201.063 163.321 201.303 163.057 201.098 163.057C201.055 163.057 200.338 163.772 199.507 164.646ZM205.733 167.548L203.804 169.552L205.81 167.625C207.672 165.834 207.941 165.544 207.738 165.544C207.697 165.544 206.793 166.446 205.733 167.548ZM286.374 169.552C287.354 170.539 288.219 171.348 288.294 171.348C288.37 171.348 287.631 170.539 286.651 169.552C285.671 168.563 284.807 167.755 284.73 167.755C284.654 167.755 285.394 168.563 286.374 169.552ZM293.22 175.972C293.867 176.03 294.925 176.03 295.572 175.972C296.218 175.914 295.69 175.866 294.396 175.866C293.103 175.866 292.574 175.914 293.22 175.972ZM263.777 199.675C263.779 200.587 263.831 200.927 263.892 200.43C263.954 199.934 263.952 199.188 263.889 198.772C263.826 198.357 263.775 198.764 263.777 199.675ZM194.822 200.509C195.959 201.728 196.945 202.687 197.014 202.64C197.083 202.594 196.153 201.597 194.948 200.425L192.756 198.293L194.822 200.509ZM204.902 202.37L203.251 204.097L204.98 202.448C206.586 200.915 206.835 200.642 206.631 200.642C206.588 200.642 205.81 201.42 204.902 202.37ZM179.18 206.515L176.142 209.624L179.254 206.589C182.145 203.77 182.492 203.406 182.292 203.406C182.252 203.406 180.851 204.806 179.18 206.515ZM333.253 205.41L331.324 207.414L333.33 205.487C335.193 203.696 335.462 203.406 335.259 203.406C335.217 203.406 334.314 204.308 333.253 205.41ZM291.462 208.658C291.462 210.709 291.505 211.549 291.559 210.523C291.612 209.497 291.612 207.818 291.559 206.792C291.505 205.766 291.462 206.605 291.462 208.658ZM191.766 226.828L189.143 229.523L191.84 226.903C193.324 225.462 194.537 224.249 194.537 224.208C194.537 224.008 194.201 224.325 191.766 226.828ZM195.222 232.494L193.016 234.774L195.298 232.569C197.417 230.522 197.706 230.214 197.505 230.214C197.463 230.214 196.436 231.24 195.222 232.494ZM259.191 232.901C259.682 232.962 260.553 232.962 261.127 232.903C261.701 232.843 261.299 232.793 260.234 232.792C259.169 232.791 258.699 232.839 259.191 232.901ZM181.392 237.192L178.908 239.749L181.467 237.267C182.875 235.902 184.026 234.752 184.026 234.71C184.026 234.51 183.699 234.818 181.392 237.192Z" fill="#789497"/>
<path fill-rule="evenodd" clip-rule="evenodd" d="M264.169 39.4436C264.66 39.5047 265.532 39.5055 266.106 39.4459C266.68 39.3859 266.278 39.3361 265.213 39.3347C264.148 39.3336 263.678 39.3826 264.169 39.4436ZM333.261 67.1575C334.164 68.0689 334.965 68.8151 335.041 68.8151C335.117 68.8151 334.441 68.0689 333.538 67.1575C332.634 66.2454 331.833 65.4992 331.757 65.4992C331.681 65.4992 332.357 66.2454 333.261 67.1575ZM230.819 82.6542C230.483 83.4205 229.884 85.129 229.486 86.4496C228.56 89.5307 228.446 94.0477 229.211 97.4196C229.804 100.036 232.231 105.195 232.981 105.432C233.475 105.589 234.924 105.357 234.924 105.121C234.924 105.057 234.502 104.169 233.988 103.147C231.687 98.5757 230.638 93.2924 230.875 87.4704C230.961 85.3423 231.153 83.107 231.303 82.5032C231.68 80.9763 231.531 81.0225 230.819 82.6542ZM233.585 84.5682C232.555 89.9621 233.388 96.2499 235.779 101.108L236.914 103.416L237.509 102.542C237.836 102.061 238.447 101.224 238.865 100.68C239.283 100.137 239.618 99.5541 239.607 99.385C239.597 99.2158 239.453 99.357 239.288 99.6992C239.123 100.041 238.902 100.321 238.798 100.321C238.446 100.321 237.948 98.8808 238.094 98.2855C238.173 97.9615 238.166 97.8516 238.079 98.0409C237.852 98.5353 237.322 98.4703 237.513 97.9719C237.601 97.7442 237.558 97.5575 237.417 97.5575C237.276 97.5575 237.08 97.1223 236.98 96.5901C236.88 96.0579 236.699 95.6227 236.577 95.6227C236.455 95.6227 236.389 95.3124 236.431 94.9318C236.473 94.5519 236.4 94.2409 236.268 94.2409C236.137 94.2409 236.03 94.0002 236.03 93.7048C236.03 93.4095 235.916 93.0978 235.777 93.012C235.637 92.9254 235.557 92.4251 235.599 91.9001C235.641 91.3745 235.578 90.9093 235.46 90.8657C235.24 90.7844 234.851 87.9882 234.809 86.1803C234.796 85.6234 234.725 85.2272 234.651 85.3014C234.577 85.3749 234.384 84.8355 234.223 84.1036L233.929 82.7719L233.585 84.5682ZM322.711 85.3358C323.035 85.8595 321.189 88.2504 318.264 91.0954L316.526 92.7856L317.101 93.5162C317.418 93.9176 317.81 94.1635 317.974 94.0626C318.152 93.952 318.19 94.0093 318.068 94.2064C317.839 94.5772 319.48 96.5882 320.017 96.594C320.205 96.596 320.461 96.7085 320.586 96.8451C320.714 96.9857 320.671 97.0123 320.486 96.9063C319.986 96.62 319.796 97.173 320.262 97.5595C320.607 97.8451 320.76 97.7065 321.221 96.6923C321.522 96.028 321.763 95.2981 321.756 95.0704C321.746 94.7932 321.659 94.8388 321.49 95.2083C321.263 95.7047 321.245 95.6904 321.308 95.0704C321.347 94.6904 321.535 94.4113 321.724 94.4504C321.964 94.4998 322.019 94.2884 321.903 93.7595C321.79 93.2449 321.821 93.1167 321.996 93.3652C322.181 93.6254 322.388 93.2078 322.71 91.9262C323.24 89.8196 323.326 85.5303 322.845 85.233C322.654 85.1153 322.6 85.1569 322.711 85.3358ZM225.495 94.4283C224.379 95.6474 222.304 98.4254 221.714 99.4923C221.419 100.024 220.791 101.143 220.318 101.979C219.17 104.01 217.726 107.494 217.714 108.267C217.708 108.609 217.611 108.889 217.497 108.889C217.383 108.889 217.373 109.293 217.474 109.787C217.575 110.281 217.715 110.674 217.784 110.661C218.6 110.508 220.834 109.611 221.036 109.357C221.179 109.175 221.456 108.529 221.651 107.921C222.275 105.969 224.583 101.276 225.791 99.4982L226.964 97.7722L226.662 96.2141C226.495 95.3566 226.325 94.4289 226.285 94.1518C226.22 93.7165 226.113 93.7536 225.495 94.4283ZM213.106 119.412C212.451 119.674 212.451 119.674 213.495 120.504C215.187 121.847 216.375 122.495 216.827 122.322C217.059 122.234 217.181 122.27 217.097 122.404C217.015 122.539 217.459 122.853 218.085 123.103C220.129 123.92 222.568 124.357 225.114 124.361C227.514 124.365 227.615 124.34 227.644 123.743C227.661 123.401 227.62 123.264 227.552 123.437C227.484 123.612 227.178 123.689 226.873 123.608C226.492 123.509 226.374 123.322 226.498 123.016C226.597 122.77 226.738 122.422 226.811 122.244C226.9 122.028 226.742 121.971 226.347 122.074C225.907 122.19 225.844 122.29 226.11 122.454C226.308 122.577 226.373 122.775 226.252 122.895C226.132 123.015 225.807 122.813 225.531 122.447C225.254 122.08 224.795 121.757 224.512 121.729C223.319 121.611 220.462 120.997 219.459 120.643C218.863 120.434 218.31 120.328 218.228 120.41C218.147 120.492 217.138 120.233 215.988 119.836C214.837 119.439 213.866 119.122 213.829 119.132C213.792 119.141 213.467 119.267 213.106 119.412ZM318.824 129.478C318.825 130.39 318.877 130.73 318.939 130.233C319 129.736 318.999 128.99 318.936 128.575C318.873 128.159 318.823 128.566 318.824 129.478ZM216.591 135.62C216.627 139.026 216.789 142.333 216.954 142.968C218.824 150.203 221.672 155.895 225.531 160.101C227.011 161.716 227.302 161.919 227.694 161.613C228.093 161.302 228.103 161.315 227.784 161.724C227.465 162.13 227.601 162.331 228.89 163.349C229.698 163.989 231.231 165.095 232.296 165.808C234.832 167.506 235.051 167.632 234.822 167.262C234.719 167.095 234.856 166.831 235.125 166.675C235.576 166.412 235.57 166.389 235.048 166.381C234.736 166.377 234.314 166.218 234.108 166.027C233.806 165.748 233.773 165.761 233.935 166.097C234.045 166.325 233.942 166.275 233.708 165.987C233.203 165.366 233.416 164.82 233.98 165.288C234.26 165.52 234.37 165.524 234.37 165.301C234.37 165.131 234.233 164.991 234.064 164.991C233.895 164.991 233.828 164.808 233.914 164.585C234 164.361 233.88 163.988 233.647 163.755C233.414 163.523 233.325 163.333 233.449 163.333C233.572 163.333 232.86 162.789 231.867 162.123C229.015 160.211 226.292 156.886 224.25 152.822C222.08 148.503 219.894 140.22 219.067 133.189L218.742 130.419L217.635 129.924L216.528 129.429L216.591 135.62ZM239.073 131.797C239.073 131.983 238.961 132.067 238.825 131.983C238.688 131.899 237.727 132.326 236.688 132.933C235.649 133.539 234.189 134.238 233.443 134.485L232.086 134.935L232.275 138.148C232.774 146.645 234.655 153.25 237.77 157.437C238.904 158.961 239.311 159.271 241.614 160.363C243.031 161.036 244.812 161.813 245.573 162.093C246.334 162.371 247.143 162.728 247.371 162.886C247.599 163.044 247.459 162.806 247.059 162.355C243.77 158.654 240.481 150.036 239.601 142.812C239.43 141.406 239.233 140.07 239.163 139.842C238.965 139.192 239.016 132.419 239.221 132.087C239.322 131.924 239.33 131.716 239.239 131.624C239.147 131.533 239.073 131.611 239.073 131.797ZM348.719 135.835C348.72 137.658 348.764 138.369 348.818 137.413C348.872 136.457 348.872 134.964 348.817 134.096C348.763 133.229 348.718 134.011 348.719 135.835ZM362.546 136.526C362.546 138.122 362.592 138.774 362.648 137.976C362.704 137.178 362.704 135.872 362.648 135.074C362.592 134.277 362.546 134.929 362.546 136.526ZM353.409 136.249C353.409 137.389 353.457 137.855 353.517 137.286C353.577 136.716 353.577 135.783 353.517 135.213C353.457 134.643 353.409 135.109 353.409 136.249ZM210.039 149.593C206.409 151.396 203.948 154.961 203.845 158.563C203.823 159.36 203.711 160.013 203.597 160.015C203.482 160.015 203.389 160.162 203.389 160.34C203.389 160.518 203.171 160.922 202.905 161.236C202.639 161.551 202.981 161.31 203.666 160.7C205.42 159.136 208.959 156.705 211.48 155.331C212.659 154.689 213.624 154.053 213.624 153.919C213.624 153.785 213.265 152.77 212.826 151.664C212.388 150.558 211.983 149.44 211.927 149.179C211.838 148.763 211.611 148.812 210.039 149.593ZM199.789 154.005C199.304 155.26 198.761 157.122 198.584 158.144C198.375 159.343 198.082 160.132 197.755 160.37C197.378 160.645 197.116 161.579 196.724 164.04C196.435 165.855 196.133 167.651 196.052 168.031C195.928 168.609 196.075 168.518 196.945 167.479C197.518 166.794 198.629 165.551 199.416 164.715C200.57 163.489 200.848 163.007 200.854 162.227C200.863 160.979 201.857 155.948 202.53 153.745C202.817 152.804 202.983 151.964 202.898 151.88C202.814 151.795 202.278 151.726 201.708 151.726H200.671L199.789 154.005ZM207.397 167.207C207.301 167.361 207.108 167.416 206.966 167.328C206.825 167.241 206.709 167.308 206.709 167.479C206.709 167.648 206.579 167.707 206.42 167.609C205.986 167.341 202.768 170.811 201.034 173.415C200.195 174.674 198.901 176.932 198.16 178.432C196.863 181.052 195.091 185.652 195.091 186.397C195.091 186.771 197.296 189.559 199.51 191.981C200.461 193.022 200.783 193.245 200.699 192.809C200.636 192.481 200.858 190.907 201.193 189.311C201.527 187.715 201.822 186.221 201.847 185.99C201.873 185.76 201.962 185.449 202.046 185.299C202.13 185.15 202.61 183.757 203.113 182.202C203.616 180.649 204.973 177.451 206.129 175.096L208.23 170.815L207.469 170.907C206.716 170.998 206.452 170.709 206.985 170.38C207.457 170.089 207.295 169.84 206.373 169.431C205.884 169.215 205.628 168.99 205.804 168.931C205.981 168.872 206.381 168.961 206.693 169.129C207.006 169.296 207.262 169.319 207.262 169.179C207.262 169.039 206.989 168.853 206.657 168.767C206.078 168.615 206.093 168.572 207.002 167.771C207.525 167.311 207.867 166.933 207.762 166.93C207.657 166.928 207.493 167.052 207.397 167.207ZM283.47 171.327C280.695 172.481 277.808 173.269 276.22 173.307C274.889 173.339 280.558 174.446 285.268 175.074C287.17 175.328 290.655 175.592 293.013 175.661L297.3 175.787L295.088 174.999C292.105 173.936 290.374 173.017 288.52 171.507C287.665 170.812 286.739 170.254 286.462 170.268C286.186 170.281 284.839 170.759 283.47 171.327ZM255.978 172.729C255.914 177.359 254.653 182.356 252.37 187.028C250.428 191.004 246.915 195.619 244.494 197.373C243.901 197.803 243.577 198.155 243.774 198.155C243.972 198.155 244.657 198.584 245.297 199.108L246.461 200.061L247.815 198.494C251.695 194.005 254.375 188.831 255.842 182.994C256.456 180.549 256.577 179.471 256.56 176.598C256.549 174.699 256.42 172.522 256.275 171.762C256.015 170.403 256.011 170.419 255.978 172.729ZM228.838 182.862C224.618 183.601 223.093 184.393 225.147 184.777C225.723 184.885 226.852 185.265 227.655 185.62C228.46 185.975 229.21 186.253 229.324 186.238C229.559 186.207 231.604 183.046 231.604 182.713C231.604 182.419 231.264 182.437 228.838 182.862ZM291.976 185.645C292.698 185.703 293.881 185.703 294.603 185.645C295.326 185.589 294.735 185.542 293.289 185.542C291.844 185.542 291.253 185.589 291.976 185.645ZM252.946 198.98C252.437 199.73 252.064 200.463 252.116 200.608C252.209 200.863 255.358 204.236 255.504 204.236C255.734 204.236 254.995 200.339 254.528 199.091C254.221 198.272 253.948 197.606 253.921 197.609C253.894 197.613 253.455 198.231 252.946 198.98ZM186.372 207.068L183.334 210.177L186.446 207.142C188.158 205.472 189.558 204.074 189.558 204.033C189.558 203.833 189.194 204.18 186.372 207.068ZM188.175 218.468C187.042 219.608 186.177 220.541 186.253 220.541C186.329 220.541 187.318 219.608 188.452 218.468C189.585 217.328 190.451 216.395 190.374 216.395C190.298 216.395 189.308 217.328 188.175 218.468ZM184.156 222.545L182.505 224.272L184.233 222.622C185.839 221.09 186.089 220.817 185.885 220.817C185.842 220.817 185.064 221.595 184.156 222.545ZM261.138 224.058C261.635 224.119 262.382 224.118 262.797 224.055C263.213 223.992 262.806 223.941 261.894 223.943C260.981 223.945 260.641 223.996 261.138 224.058ZM186.787 241.199L184.164 243.894L186.861 241.274C188.345 239.833 189.558 238.62 189.558 238.579C189.558 238.379 189.222 238.696 186.787 241.199Z" fill="#A4C5CC"/>
<path fill-rule="evenodd" clip-rule="evenodd" d="M258.108 53.4091C256.938 53.5567 255.927 53.8201 255.86 53.9942C255.793 54.1686 255.844 54.9319 255.972 55.6906C256.1 56.4492 256.342 58.0026 256.508 59.1426C256.674 60.2826 256.926 61.8892 257.07 62.7125C257.212 63.5358 257.33 64.6764 257.33 65.2468C257.33 66.1733 257.241 66.3034 256.506 66.4647C255.018 66.7913 254.644 66.4777 254.442 64.7302C254.243 63.0145 253.622 58.9249 253.141 56.1689C252.885 54.7017 252.74 54.414 252.185 54.2747C251.825 54.1843 251.136 54.2479 250.654 54.4157C250.173 54.5834 249.463 54.7207 249.079 54.7207C248.693 54.7207 247.996 54.8369 247.529 54.9784C247.062 55.1201 246.182 55.3597 245.573 55.5112C241.294 56.5752 235.477 58.5866 235.475 59.0031C235.473 59.5431 236.419 61.9063 236.638 61.9063C236.76 61.9063 236.86 62.0942 236.86 62.3239C236.86 62.7525 237.394 64.0559 238.816 67.0932C239.261 68.0463 239.626 68.9968 239.626 69.2049C239.626 69.4138 240.093 69.7716 240.663 70.0006C241.892 70.4931 243.499 71.9536 243.499 72.5788C243.499 72.8872 243.644 72.9627 243.983 72.8299C244.249 72.7259 245.027 72.45 245.711 72.2178C246.396 71.9855 247.081 71.6999 247.233 71.5841C247.385 71.4676 247.883 71.305 248.34 71.2224C248.796 71.1398 249.667 70.9355 250.275 70.7676C255.305 69.3858 260.975 68.5446 265.282 68.5414L268.394 68.5394L267.841 67.9864C267.191 67.3378 267.171 66.8414 267.598 62.1827C267.932 58.5482 268.152 58.0372 269.381 58.0372C270.515 58.0372 270.689 58.641 270.633 62.3949C270.58 65.9846 270.217 68.2629 269.698 68.2629C269.539 68.2629 269.469 68.3241 269.544 68.3982C269.619 68.4731 271.288 68.7177 273.256 68.9421C276.918 69.3604 278.825 69.659 281.256 70.1958C284.139 70.8314 284.633 70.9654 286.726 71.6771C287.908 72.0792 289.098 72.4084 289.369 72.4084C289.845 72.4084 290.358 71.4807 292.162 67.3645C292.478 66.6423 292.977 65.5233 293.271 64.8773C294.98 61.1258 295.503 59.8424 295.503 59.3936C295.503 58.8906 293.72 57.9189 292.199 57.5928C291.81 57.5096 291.243 57.3394 290.939 57.2145C289.567 56.652 287.497 56.0644 284.715 55.4485C283.726 55.2296 281.979 54.8396 280.833 54.582C279.687 54.3245 278.442 54.157 278.067 54.21C277.452 54.2966 277.366 54.4709 277.206 55.9645C277.107 56.8764 276.883 58.7419 276.707 60.1099C276.532 61.4779 276.315 63.404 276.227 64.3898C276.057 66.2891 275.675 66.8564 274.555 66.872C273.408 66.8883 273.075 65.8948 273.394 63.4161C274.074 58.1472 274.217 56.9765 274.372 55.4007L274.536 53.7314L271.811 53.3945C268.679 53.007 261.231 53.015 258.108 53.4091ZM244.882 59.9717C244.634 60.5687 244.618 61.0136 244.821 61.5609C244.977 61.9788 245.376 63.2536 245.708 64.3936C246.846 68.3 246.893 68.393 247.81 68.4835C248.379 68.5394 248.81 68.3833 249.165 67.9916C249.76 67.3339 249.743 67.2259 248.164 61.63C247.651 59.8081 247.11 59.1614 246.09 59.1512C245.386 59.1443 245.162 59.2969 244.882 59.9717ZM283.299 59.6995C282.787 59.9958 282.487 60.7019 281.715 63.4263C280.471 67.8153 280.486 67.7171 281.004 68.2889C281.489 68.825 282.392 68.9714 282.947 68.6038C283.116 68.4926 283.394 67.9656 283.566 67.4334C283.738 66.9019 284.253 65.3327 284.712 63.9462C285.627 61.1759 285.717 60.454 285.199 60.0395C284.621 59.5777 283.771 59.4256 283.299 59.6995ZM228.838 61.6772C227.241 62.4491 225.871 63.1582 225.795 63.2534C225.719 63.3484 224.848 63.8497 223.858 64.3671C222.87 64.8845 221.859 65.537 221.613 65.8181C221.367 66.0985 221.014 66.3281 220.826 66.3281C220.387 66.3281 219.675 66.8225 215.975 69.6935C212.691 72.2425 212.83 71.9478 214.219 73.4356C218.152 77.6481 219.413 78.9863 220.434 80.0299C222.975 82.627 223.571 83.9873 222.595 84.9632C221.839 85.7178 221.124 85.4478 219.632 83.8442C218.838 82.99 217.006 81.0675 215.56 79.5725C214.115 78.0768 212.521 76.3502 212.018 75.7361C211.515 75.1219 210.872 74.619 210.588 74.619C210.028 74.619 205.977 78.5082 203.112 81.7962C202.123 82.9308 201.035 84.1734 200.692 84.5566C200.35 84.9404 200.07 85.3294 200.07 85.4218C200.07 85.5142 199.806 85.8883 199.484 86.2533C199.162 86.6189 198.606 87.3735 198.25 87.9304C197.894 88.488 197.473 89.0241 197.315 89.1216C196.958 89.3415 196.932 90.372 197.284 90.372C197.425 90.372 197.705 90.5347 197.906 90.7344C198.107 90.9328 200.201 92.3947 202.56 93.9814C204.917 95.5682 206.971 96.963 207.124 97.0814C207.275 97.1992 208.022 97.6936 208.783 98.1802C210.619 99.3539 210.858 99.6089 210.858 100.397C210.858 101.401 209.97 102.071 208.94 101.846C208.473 101.743 208.092 101.553 208.092 101.423C208.092 101.294 207.858 101.114 207.572 101.023C207.286 100.932 206.695 100.551 206.258 100.176C205.821 99.8002 205.308 99.4931 205.118 99.4924C204.928 99.4924 204.772 99.389 204.772 99.2628C204.772 99.1366 204.43 98.8562 204.012 98.6408C203.593 98.4255 203.01 98.0306 202.715 97.7652C202.42 97.4991 202.026 97.2812 201.839 97.2812C201.652 97.2812 201.458 97.1797 201.406 97.0547C201.356 96.9305 200.505 96.2877 199.517 95.6274C198.528 94.9664 197.31 94.0738 196.81 93.6425C195.742 92.7219 195.095 92.6439 194.894 93.4122C194.815 93.716 194.639 93.9652 194.505 93.9652C194.371 93.9652 194.26 94.1564 194.26 94.3913C194.26 94.6255 194.012 95.0842 193.708 95.4101C193.403 95.7367 193.154 96.1667 193.154 96.3664C193.154 96.5655 193.056 96.7288 192.935 96.7288C192.623 96.7288 188.728 105.006 188.728 105.668C188.728 105.858 188.613 106.133 188.472 106.277C188.06 106.7 185.962 113.295 185.962 114.169C185.962 114.609 185.851 114.969 185.716 114.969C185.58 114.969 185.407 115.373 185.329 115.867C185.252 116.361 185.007 117.511 184.784 118.424C184.562 119.336 184.242 120.952 184.074 122.016C183.139 127.943 183.105 128.284 183.431 128.485C183.608 128.594 186.148 128.841 189.076 129.032C198.887 129.675 200.986 129.868 201.275 130.157C201.59 130.472 201.621 132.305 201.316 132.607C201.07 132.85 195.147 132.714 191.771 132.387C190.326 132.247 187.751 132.05 186.049 131.951L182.955 131.769L182.763 132.794C182.533 134.021 182.767 141.986 183.054 142.674C183.286 143.232 185.275 143.335 187.539 142.908C191.297 142.198 194.298 141.977 195.37 142.33C196.423 142.677 196.459 142.665 197.7 141.574C199.245 140.215 202.996 138.332 205.049 137.884C205.886 137.702 207.053 137.437 207.644 137.295L208.718 137.037L208.544 135.192C208.449 134.177 208.288 131.253 208.188 128.693C208.039 124.89 207.928 124.009 207.583 123.877C206.695 123.536 202.875 119.38 202.552 118.403C202.179 117.274 202.355 115.962 202.961 115.357C203.386 114.933 205.157 114.093 205.879 113.974C206.107 113.936 206.939 113.754 207.726 113.568L209.159 113.232L209.746 110.991C210.069 109.759 210.458 108.43 210.609 108.039C210.761 107.647 210.906 107.057 210.93 106.726C210.955 106.396 211.074 106.125 211.193 106.125C211.313 106.125 211.411 105.949 211.411 105.733C211.411 105.518 211.653 104.777 211.949 104.087C212.246 103.397 212.526 102.609 212.572 102.337C212.618 102.064 212.733 101.779 212.828 101.703C212.922 101.627 213.406 100.757 213.903 99.7689C214.4 98.7807 215.287 97.2486 215.875 96.3632C216.463 95.4791 216.943 94.6528 216.943 94.5273C216.943 94.4024 217.317 93.9001 217.773 93.4122C218.23 92.9242 218.603 92.407 218.603 92.2626C218.603 92.1182 218.976 91.6029 219.431 91.117C219.888 90.6316 220.261 90.1456 220.261 90.0377C220.265 89.6005 226.477 83.4909 227.07 83.3419C227.462 83.2437 227.883 82.7837 228.163 82.1481C229.116 79.9856 229.813 78.6233 230.013 78.5342C230.128 78.4834 230.221 78.2941 230.221 78.1133C230.221 77.7528 234.09 72.7044 235.251 71.5503C235.649 71.1541 236.174 70.754 236.417 70.6609C236.995 70.4397 236.977 70.1756 236.274 68.6051C235.952 67.8849 235.504 66.8603 235.279 66.3281C235.053 65.7959 234.569 64.7457 234.204 63.994C233.839 63.242 233.541 62.4649 233.541 62.2667C233.541 62.0685 233.416 61.9063 233.264 61.9063C233.111 61.9063 232.987 61.7109 232.987 61.4722C232.987 61.0059 232.343 60.2398 231.969 60.2611C231.845 60.2683 230.435 60.9056 228.838 61.6772ZM297.598 62.3333C297.054 63.4935 296.609 64.4964 296.609 64.5622C296.609 64.6277 296.111 65.7335 295.503 67.019C294.894 68.3052 294.396 69.5458 294.396 69.7774C294.396 70.0084 294.272 70.1971 294.12 70.1971C293.967 70.1971 293.843 70.3604 293.843 70.5601C293.843 71.0227 292.741 73.3257 292.421 73.5313C292.214 73.6646 293.241 74.1955 296.332 75.5513C296.713 75.7185 297.584 76.1876 298.269 76.5942C298.953 77.0008 300.169 77.6923 300.97 78.1315L302.427 78.9297L304.722 76.6365C307.179 74.1818 307.81 73.9184 308.769 74.9476C309.557 75.792 309.46 76.5747 308.471 77.3827C306.036 79.3708 305.461 79.9746 305.461 80.5432C305.461 81.2035 306.599 82.3576 307.25 82.3576C307.472 82.3576 308.809 81.2581 310.222 79.9147C313.718 76.5916 316.197 74.2755 317.355 73.2522L318.323 72.3967L317.604 71.7806C316.09 70.484 314.996 69.6545 314.794 69.6493C314.679 69.6467 314.194 69.2713 313.716 68.8153C313.238 68.3592 312.689 67.9864 312.497 67.9864C312.303 67.9864 312.104 67.8856 312.053 67.7633C311.818 67.1914 306.42 63.9031 302.556 61.9768C298.39 59.8996 298.751 59.8736 297.598 62.3333ZM222.255 74.6743C221.587 75.3412 221.884 76.5122 223.029 77.7262C223.638 78.3715 224.135 78.9883 224.135 79.0963C224.135 79.3539 225.386 80.5978 225.979 80.929C226.273 81.0936 226.733 81.089 227.226 80.9172C228.432 80.4976 228.252 79.5127 226.556 77.2447C225.76 76.1804 224.859 75.0965 224.553 74.8357C223.904 74.282 222.73 74.1994 222.255 74.6743ZM320.398 74.8617C320.398 75.0321 320.229 75.172 320.022 75.172C319.683 75.172 317.916 76.7217 313.492 80.901C312.155 82.1637 312.043 82.3472 312.604 82.3518C313.55 82.3602 316.848 81.1918 319.845 79.7872C321.29 79.1099 322.753 78.4704 323.095 78.3657C323.956 78.1016 323.889 77.8732 322.542 76.5024C320.986 74.9189 320.398 74.4694 320.398 74.8617ZM329.385 87.7118C329.273 89.7963 329.252 91.5717 329.338 91.6576C329.424 91.7435 330.433 91.2288 331.58 90.5139C333.856 89.0976 333.855 89.0976 332.446 87.4965C332.058 87.0548 331.737 86.6195 331.735 86.5291C331.733 86.4387 331.249 85.8148 330.66 85.1427L329.588 83.9209L329.385 87.7118ZM213.229 85.2787C212.707 85.8011 212.664 86.7893 213.14 87.3794C213.33 87.6156 214.263 88.5101 215.212 89.3669C217.099 91.0695 218.017 91.3225 218.712 90.3311C219.286 89.5113 218.857 88.7541 216.58 86.572C214.734 84.8025 213.993 84.5162 213.229 85.2787ZM334.772 92.0655C334.549 92.1865 333.557 92.7564 332.566 93.3322C331.575 93.9086 330.424 94.5559 330.007 94.7719C329.59 94.9872 329.25 95.267 329.25 95.3932C329.25 95.52 329.056 95.6228 328.819 95.6228C328.582 95.6228 328.464 95.7477 328.558 95.8993C328.652 96.0516 328.621 96.1758 328.489 96.1758C328.356 96.1758 328.091 96.829 327.9 97.6266C327.708 98.4249 327.415 99.3571 327.247 99.6987C327.081 100.041 327.014 100.391 327.1 100.476C327.369 100.745 331.223 102.116 333.628 102.797L335.933 103.451L338.123 102.384C339.715 101.608 340.314 101.173 340.314 100.792C340.314 100.33 338.231 95.9832 337.838 95.6228C337.755 95.5474 337.531 95.2052 337.341 94.863C336.47 93.2964 336.268 92.9913 335.739 92.437C335.371 92.0505 335.035 91.9217 334.772 92.0655ZM340.93 104.344C340.293 104.79 340.108 105.689 340.591 105.987C340.743 106.081 340.868 106.839 340.868 107.673C340.868 108.953 340.728 109.374 339.969 110.383C339.474 111.04 338.869 111.688 338.624 111.822C337.245 112.579 335.796 113.694 336.072 113.786C336.248 113.845 337.171 113.637 338.123 113.325C339.074 113.013 339.968 112.758 340.109 112.758C340.251 112.758 341.29 112.43 342.42 112.029L344.475 111.3L344.295 110.302C344.196 109.753 344.025 109.179 343.915 109.027C343.805 108.875 343.545 108.16 343.337 107.438C343.129 106.716 342.863 106.125 342.744 106.125C342.625 106.125 342.528 105.944 342.528 105.724C342.528 105.218 341.942 103.914 341.715 103.914C341.621 103.914 341.268 104.108 340.93 104.344ZM193.542 104.955C193.374 105.067 193.085 105.446 192.9 105.798C192.297 106.941 193.081 107.572 198.427 110.249C203.402 112.74 204.803 113.169 205.546 112.427C206.035 111.939 205.951 110.803 205.395 110.366C204.722 109.837 194.525 104.742 194.15 104.747C193.983 104.75 193.709 104.843 193.542 104.955ZM333.308 115.162C332.2 115.757 332.002 115.978 332.147 116.46C332.243 116.78 332.504 117.788 332.729 118.7C332.953 119.611 333.258 120.74 333.406 121.207C333.554 121.674 333.676 122.684 333.676 123.453C333.676 125.303 333.995 125.544 335.985 125.193C336.845 125.042 338.253 124.794 339.116 124.642C341.651 124.195 342.456 124.275 342.949 125.027C343.458 125.803 343.258 126.996 342.572 127.278C342.129 127.459 339.495 127.83 336.027 128.197L334.367 128.373L334.289 130.169C334.187 132.531 333.465 139.827 333.264 140.533C333.157 140.912 333.371 141.364 333.946 141.97C334.873 142.948 336.986 146.887 336.991 147.649C336.993 147.915 337.12 148.133 337.271 148.133C337.424 148.133 337.525 148.226 337.497 148.34C337.468 148.454 337.611 149.887 337.814 151.523C338.143 154.173 338.247 154.513 338.765 154.622C339.085 154.689 340.093 154.877 341.006 155.04C343.378 155.464 345.114 155.915 345.418 156.188C345.563 156.318 345.813 156.424 345.974 156.424C346.372 156.424 348.205 146.547 347.87 146.199C347.798 146.122 346.597 145.983 345.202 145.888C339.857 145.525 337.675 145.284 337.341 145.021C336.937 144.703 336.891 143.475 337.26 142.892C337.553 142.429 340.993 142.426 344.167 142.884C345.167 143.029 346.497 143.15 347.123 143.153L348.261 143.158L348.437 141.876C348.718 139.83 348.641 131.11 348.319 128.525C347.554 122.376 347.09 119.858 346.063 116.282C345.464 114.199 345.404 114.188 341.606 115.449C336.248 117.228 335.463 117.38 334.79 116.772C334.163 116.206 334.056 115.253 334.561 114.748C335.03 114.279 334.827 114.346 333.308 115.162ZM189.301 116.466C188.825 117.038 188.834 118.238 189.316 118.692C189.71 119.062 193.806 120.359 196.751 121.046C197.283 121.17 198.452 121.473 199.349 121.72C200.865 122.137 201.015 122.136 201.492 121.704C202.237 121.03 202.173 119.567 201.384 119.179C200.268 118.632 192.231 116.37 190.649 116.158C189.963 116.066 189.555 116.16 189.301 116.466ZM296.332 143.716C295.8 143.849 295.022 144.041 294.603 144.143C294.185 144.245 293.843 144.438 293.843 144.573C293.843 144.707 293.595 144.817 293.292 144.817C292.989 144.817 292.585 145.065 292.395 145.369C292.206 145.673 291.879 145.922 291.67 145.922C291.096 145.922 289.245 148.073 288.719 149.353C288.463 149.974 288.142 150.698 288.005 150.962C287.869 151.226 287.753 151.661 287.749 151.929C287.74 152.393 287.722 152.393 287.372 151.933C286.83 151.22 286.702 151.325 286.524 152.624C286.285 154.369 287.056 159.588 287.512 159.307C287.646 159.223 287.757 159.467 287.757 159.849C287.757 160.659 288.295 161.952 288.632 161.952C288.759 161.952 288.864 162.107 288.864 162.297C288.864 162.487 289.144 162.972 289.487 163.376C289.828 163.78 290.42 164.489 290.8 164.953C291.18 165.417 291.617 165.802 291.771 165.809C291.925 165.815 292.188 166.04 292.355 166.308C292.713 166.881 296.811 168.948 298.407 169.362C301.017 170.036 303.524 170.242 309.089 170.237C315.193 170.231 317.918 169.987 320.102 169.252C321.754 168.695 324.271 167.423 324.271 167.144C324.271 167.024 324.427 166.925 324.617 166.923C325.097 166.919 327.291 164.845 328.515 163.238C329.72 161.655 330.91 159.166 330.91 158.228C330.91 157.862 331.034 157.485 331.186 157.391C331.338 157.297 331.461 156.139 331.459 154.819C331.453 151.218 330.576 149.103 328.239 147.048C327.55 146.442 326.624 145.785 326.182 145.59C325.739 145.394 325.377 145.155 325.377 145.058C325.377 144.96 325.159 144.809 324.893 144.72C324.627 144.632 323.911 144.35 323.303 144.095C322.331 143.685 320.681 143.62 309.748 143.551C302.902 143.509 296.865 143.583 296.332 143.716ZM191.08 145.378C190.167 145.494 188.175 145.736 186.654 145.916C185.133 146.096 183.83 146.302 183.76 146.372C183.485 146.647 183.777 149.78 184.311 152.278C185.157 156.236 185.409 157.034 185.773 156.905C185.953 156.841 187.034 156.568 188.175 156.299C189.316 156.031 190.436 155.718 190.663 155.605C190.907 155.483 191.201 154.674 191.38 153.631C191.894 150.643 192.416 149.033 193.734 146.379C194.023 145.795 194.26 145.267 194.26 145.205C194.26 145.057 193.127 145.119 191.08 145.378ZM293.241 147.754C291.932 148.297 291.077 150.004 291.077 152.071C291.077 153.238 291.189 153.597 291.643 153.88C292.123 154.18 292.326 154.149 292.999 153.67C294.275 152.762 295.837 152.911 297.112 154.062C298.466 155.284 299.285 155.161 299.531 153.699C299.777 152.235 299.777 152.229 299.532 151.173C298.786 147.948 296.183 146.534 293.241 147.754ZM323.303 149.373C322.846 149.587 322.284 149.924 322.054 150.122C321.035 150.998 320.425 153.901 321.02 155.042C321.385 155.742 322.611 156.171 322.611 155.598C322.611 155.426 322.736 155.363 322.888 155.457C323.04 155.551 323.164 155.448 323.164 155.23C323.164 155.012 323.538 154.678 323.994 154.489C324.945 154.096 326.096 154.432 326.921 155.344C327.569 156.058 327.992 156.007 328.375 155.167C328.788 154.262 328.786 152.616 328.369 151.421C327.982 150.309 327.713 150.012 326.553 149.412C325.496 148.866 324.411 148.853 323.303 149.373ZM337.548 158.051C337.548 158.372 337.559 158.714 337.572 158.811C337.585 158.908 337.469 159.066 337.314 159.162C337.158 159.257 336.983 159.645 336.924 160.022C336.866 160.399 336.609 161.189 336.353 161.778C336.098 162.367 335.888 162.962 335.888 163.102C335.888 163.242 335.64 163.624 335.336 163.949C334.514 164.83 334.623 165.526 335.612 165.724C336.069 165.815 336.442 165.998 336.442 166.131C336.442 166.264 336.631 166.373 336.864 166.373C337.096 166.373 338.123 166.792 339.146 167.304C342.045 168.755 342.094 168.758 342.598 167.552C343.249 165.992 343.878 164.271 344.59 162.102C345.694 158.734 345.941 157.807 345.778 157.645C345.692 157.559 345.543 157.735 345.447 158.036C345.21 158.782 344.777 158.899 343.338 158.606C341.398 158.212 339.136 157.763 338.309 157.609C337.674 157.49 337.548 157.563 337.548 158.051ZM188.399 159.278C187.381 159.57 186.484 159.977 186.405 160.181C186.239 160.615 186.895 162.94 187.684 164.715C187.988 165.399 188.401 166.327 188.601 166.776L188.966 167.593L189.095 166.914C189.646 164.014 189.835 162.771 189.835 162.045C189.835 161.583 189.969 160.819 190.134 160.347C190.671 158.807 190.467 158.682 188.399 159.278ZM330.273 170.142L327.839 172.519L328.475 172.957C329.288 173.516 329.783 174.145 329.794 174.633C329.804 175.06 328.547 176.322 328.111 176.322C327.727 176.322 326.717 175.765 326.243 175.292C325.284 174.334 324.536 174.025 323.912 174.33C322.866 174.841 320.036 175.717 318.808 175.91C318.161 176.012 317.632 176.215 317.632 176.363C317.632 176.511 317.492 176.545 317.322 176.44C317.085 176.293 319.484 180.088 320.037 180.734C320.098 180.804 320.388 180.711 320.684 180.527C321.472 180.034 321.621 180.084 323.078 181.325C323.81 181.948 324.72 182.717 325.101 183.032C327.796 185.271 329.563 187.01 329.701 187.561C329.992 188.719 328.13 189.79 327.264 188.962C326.37 188.108 324.576 186.824 324.277 186.824C324.077 186.824 324.229 187.329 324.662 188.103C325.056 188.806 325.377 189.552 325.377 189.761C325.377 189.97 325.502 190.141 325.654 190.141C325.806 190.141 325.93 190.321 325.93 190.542C325.93 191.815 327.122 192.894 327.485 191.95C327.57 191.728 328.438 190.702 329.413 189.669C330.389 188.637 331.654 187.107 332.224 186.271C332.794 185.435 333.478 184.511 333.745 184.215C334.011 183.921 334.229 183.527 334.229 183.34C334.229 183.154 334.346 182.96 334.488 182.909C334.843 182.783 338.266 177.006 339.749 174.029C341.149 171.222 341.161 171.262 338.516 170.231C337.604 169.876 336.048 169.174 335.059 168.671C334.07 168.168 333.137 167.759 332.984 167.761C332.832 167.763 331.612 168.835 330.273 170.142Z" fill="#FF4E44"/>
<path fill-rule="evenodd" clip-rule="evenodd" d="M303.455 143.365C306.384 143.41 311.177 143.41 314.105 143.365C317.033 143.32 314.638 143.284 308.78 143.284C302.923 143.284 300.527 143.32 303.455 143.365ZM225.518 191.799C225.138 192.097 224.672 192.342 224.481 192.346C224.291 192.349 224.135 192.467 224.135 192.609C224.135 192.751 223.887 192.946 223.584 193.042C223.28 193.138 222.876 193.365 222.685 193.545C222.494 193.724 221.497 194.306 220.47 194.836C219.444 195.366 218.603 195.88 218.603 195.977C218.603 196.074 218.23 196.308 217.773 196.497C217.317 196.686 216.943 196.95 216.943 197.083C216.943 197.217 216.78 197.327 216.58 197.327C216.381 197.327 215.964 197.561 215.656 197.85C215.346 198.137 214.669 198.591 214.151 198.859C213.633 199.125 212.692 199.73 212.061 200.201C211.43 200.672 210.568 201.306 210.145 201.61C206.771 204.034 202.843 207.6 203.358 207.771C203.527 207.828 203.666 208.049 203.666 208.262C203.666 208.697 205.347 209.486 206.275 209.486C207.241 209.486 208.092 210.473 208.092 211.593C208.092 212.385 207.833 212.847 206.748 214.001C203.738 217.2 202.862 218.29 202.38 219.436C201.866 220.658 202.089 221.927 203.01 223.02C203.592 223.711 203.921 223.858 204.893 223.858C206.017 223.858 206.192 223.735 208.721 221.163C210.179 219.681 211.619 218.157 211.921 217.777C212.222 217.397 213.582 215.936 214.943 214.53C217.462 211.928 217.874 211.71 219.263 212.238C219.836 212.456 220.783 213.713 220.842 214.331C220.87 214.629 219.068 217.646 218.619 218.054C218.368 218.282 217.863 218.903 217.497 219.436C217.131 219.968 216.76 220.465 216.673 220.541C216.586 220.617 216.085 221.239 215.56 221.923C215.036 222.607 214.535 223.229 214.448 223.305C214.17 223.546 213.156 225.064 212.55 226.146C211.192 228.568 212.385 231.024 214.928 231.037C216.211 231.044 216.028 231.224 220.539 225.511C221.529 224.258 222.617 222.908 222.959 222.509C223.302 222.111 223.582 221.706 223.582 221.61C223.583 221.198 225.983 218.914 226.487 218.846C227.666 218.686 228.59 219.16 228.998 220.136C229.351 220.981 229.348 221.215 228.969 222.121C228.733 222.685 228.447 223.214 228.333 223.295C228.219 223.376 227.227 224.811 226.127 226.483C225.028 228.155 224.037 229.648 223.924 229.801C223.055 230.986 222.475 232.519 222.475 233.637C222.475 234.338 222.6 234.912 222.752 234.912C222.904 234.912 222.998 235.047 222.96 235.213C222.831 235.775 224.307 236.626 225.409 236.626C226.827 236.626 227.346 235.989 230.979 229.799C231.247 229.343 231.536 228.908 231.622 228.832C231.871 228.613 233.384 226.276 233.769 225.516C234.546 223.985 236.033 222.236 236.64 222.14C237.656 221.979 238.814 222.487 239.092 223.219C239.519 224.338 239.392 225.012 238.38 227.02C237.126 229.509 237.095 230.727 238.264 231.709C239.891 233.077 241.381 232.346 242.663 229.553C244.258 226.076 244.605 225.235 244.605 224.844C244.605 224.623 244.713 224.377 244.843 224.295C244.975 224.214 245.235 223.554 245.423 222.828C245.61 222.102 245.87 221.26 246 220.955C246.794 219.103 248.199 213.742 248.752 210.454C248.931 209.389 249.209 208.056 249.372 207.491C249.633 206.584 249.589 206.349 249.003 205.492C248.638 204.958 248.168 204.454 247.959 204.373C247.54 204.212 246.818 204.694 246.818 205.135C246.818 205.289 246.592 205.615 246.316 205.861C246.041 206.107 245.426 206.88 244.95 207.578C243.658 209.473 242.264 210.593 241.207 210.586C239.216 210.572 237.876 208.18 238.838 206.359C239.014 206.027 239.512 205.323 239.945 204.794C240.922 203.601 240.927 203.321 239.979 202.7C239.564 202.429 238.98 201.979 238.682 201.701C238.121 201.179 236.583 200.997 236.583 201.452C236.583 201.593 236.423 201.873 236.229 202.074C236.033 202.275 235.572 202.875 235.204 203.406C233.865 205.341 232.689 206.019 231.166 205.733C230.42 205.593 230.13 205.328 229.656 204.349C229.138 203.281 229.109 203.015 229.408 202.097C229.75 201.05 231.242 198.649 231.657 198.478C231.78 198.427 231.881 198.113 231.881 197.781C231.881 197.369 231.562 197.004 230.884 196.64C228.693 195.461 227.178 193.53 227.178 191.919C227.178 191.086 226.494 191.036 225.518 191.799ZM215.536 200.173C214.607 200.806 212.128 203.209 210.553 205.001C209.005 206.762 209.918 209.21 212.123 209.21C213.02 209.21 213.407 208.948 215.445 206.961C218.461 204.02 219.263 202.864 219.029 201.8C218.833 200.908 217.955 199.974 217.058 199.702C216.683 199.59 216.149 199.754 215.536 200.173ZM231.157 212.646C230.137 213.09 229.679 214.197 229.964 215.528C230.231 216.769 230.789 217.272 231.938 217.304C233.602 217.351 234.583 216.763 234.78 215.598C235.01 214.239 234.579 213.201 233.566 212.678C232.57 212.164 232.277 212.16 231.157 212.646Z" fill="#FEAA16"/>
<path fill-rule="evenodd" clip-rule="evenodd" d="M217.198 38.3938C215.023 40.5674 217.407 44.0493 220.169 42.7333C221.502 42.0982 222.078 40.7045 221.54 39.4186C220.722 37.4627 218.626 36.968 217.198 38.3938ZM258.021 39.8196C235.644 41.6129 213.355 51.7935 198.17 67.1576C182.62 82.8911 173.187 101.477 169.909 122.845C169.054 128.419 168.838 140.235 169.483 146.198C171.697 166.672 180.12 184.942 193.991 199.357L197.001 202.485L196.579 203.844C196.043 205.569 196.196 208.705 196.881 210.039C197.156 210.571 197.876 211.468 198.483 212.033L199.586 213.059L198.322 214.464C196.702 216.263 195.871 218.42 195.821 220.955L195.782 222.89L187.394 231.32C182.781 235.956 178.818 240.106 178.587 240.542C177.81 242.014 178.636 244.049 180.29 244.74C182.247 245.558 182.64 245.264 191.115 236.662L198.897 228.765L200.701 229.652C202.288 230.433 202.728 230.529 204.343 230.446C206.111 230.356 206.186 230.378 206.331 231.043C206.828 233.33 207.421 234.545 208.632 235.755C210.683 237.805 212.709 238.276 216.162 237.507C216.81 237.364 216.973 237.477 217.458 238.407C217.763 238.993 218.332 239.809 218.723 240.22C219.113 240.631 219.433 241.086 219.433 241.231C219.433 241.374 218.872 242.4 218.188 243.51C216.615 246.059 216.495 247.496 217.752 248.752C219.422 250.421 220.945 249.696 223.28 246.122C224.638 244.044 225.143 243.48 225.646 243.48C228.176 243.48 231.394 241.173 232.96 238.237L233.856 236.558L235.079 237.633C237.289 239.577 240.452 239.846 243.245 238.327C245.192 237.269 246.299 235.876 248.037 232.299C250.99 226.222 253.676 217.939 254.602 212.049C254.922 210.017 255.008 209.811 255.412 210.114C255.661 210.301 256.4 210.858 257.053 211.352C259.299 213.049 260.163 212.526 261.791 208.483C263.159 205.087 263.682 202.726 263.68 199.952C263.677 196.257 262.971 193.737 260.984 190.328C260.008 188.654 259.932 187.377 260.807 187.377C261.04 187.377 262.625 187.736 264.329 188.176C270.772 189.836 278.709 191.018 286.927 191.538C295.624 192.089 300.78 191.486 305.255 189.396C306.435 188.845 307.471 188.464 307.556 188.55C307.944 188.936 309.468 193.091 310.447 196.426C311.539 200.149 312.786 205.826 313.103 208.516L313.278 210.004L311.237 211.324C308.572 213.046 302.107 216.373 298.446 217.905C292.614 220.346 286.322 222.043 278.767 223.211C274.545 223.863 273.147 223.946 265.074 224.022L256.084 224.107L253.38 229.422C251.892 232.345 249.807 236.252 248.746 238.105C247.686 239.957 246.818 241.744 246.818 242.075C246.818 243.064 247.566 244.208 248.452 244.574C249.162 244.868 249.435 244.843 250.316 244.406C251.222 243.957 251.732 243.213 254.463 238.367L257.577 232.839L261.949 232.929C279.18 233.281 294.543 230.048 308.365 223.16C327.205 213.772 342.357 198.65 352.122 179.49C357.232 169.466 360.226 159.548 361.799 147.442C362.489 142.138 362.486 129.909 361.794 124.918C358.852 103.694 350.653 86.2519 336.043 70.13C325.353 58.3351 309.699 48.6207 293.693 43.8512C281.579 40.2413 269.621 38.8899 258.021 39.8196ZM208.045 42.7071C207.189 43.1713 206.602 44.6657 206.865 45.7117C206.964 46.1075 207.43 46.7542 207.899 47.1488C208.914 48.0017 210.267 47.926 211.298 46.9587C213.656 44.7455 210.908 41.1536 208.045 42.7071ZM321.141 44.2909C319.984 45.2159 319.825 46.8647 320.783 48.0022C321.684 49.0718 322.612 49.3158 323.835 48.8054C324.753 48.4218 325.654 47.1908 325.654 46.3184C325.654 44.1721 322.86 42.9168 321.141 44.2909ZM258.298 48.5533C254.962 48.8435 248.422 49.9238 245.155 50.7248C228.81 54.7307 215.507 62.2263 203.663 74.1037C197.953 79.8295 192.726 86.8856 188.584 94.4635C183.849 103.124 180.353 113.557 178.749 123.812C178.014 128.514 177.702 140.183 178.195 144.564C179.084 152.468 180.589 159.295 182.792 165.425C184.123 169.129 187.535 176.501 187.797 176.239C187.947 176.09 188.021 175.588 188.847 169.136C189.339 165.29 189.652 163.329 190.389 159.464C190.665 158.02 191.035 155.843 191.212 154.627C191.998 149.251 193.611 145.722 196.683 142.661C199.631 139.724 203.157 137.976 207.136 137.479L208.719 137.282L208.493 134.761C208.368 133.376 208.253 130.467 208.236 128.299L208.205 124.355L207.111 123.475C205.135 121.885 202.865 119.348 202.541 118.368C202.142 117.161 202.387 115.874 203.14 115.221C203.737 114.704 205.221 114.167 207.728 113.562L209.163 113.215L209.756 110.983C211.216 105.482 213.469 100.045 215.719 96.5902C216.313 95.6781 216.925 94.7276 217.078 94.4785C219.262 90.9348 224.386 85.1271 226.565 83.7284C227.551 83.0947 227.991 82.4871 229.193 80.0929C230.789 76.9136 234.121 72.4454 235.93 71.0584C237.521 69.8379 238.831 69.5055 240.362 69.9336C241.592 70.2771 243.082 71.5333 243.382 72.4773C243.495 72.8319 243.697 72.9412 244.007 72.8163C245.233 72.3231 249.408 71.0057 251.382 70.4892C262.827 67.4933 275.519 68.0144 287.619 71.9783C292.29 73.5085 300.915 77.7066 302.971 79.4508C303.352 79.7735 304.168 80.3733 304.785 80.7839C305.402 81.1937 306.383 81.9646 306.964 82.4962C307.545 83.0277 308.287 83.4629 308.613 83.4629C310.188 83.4629 316.288 81.4572 319.921 79.7436C321.409 79.0429 323.171 78.367 323.837 78.2427C326.193 77.8029 328.299 79.1613 329.023 81.5867C329.256 82.3674 329.36 84.2443 329.327 87.0866C329.274 91.6133 328.75 95.0737 327.578 98.6343C327.112 100.053 327.068 100.446 327.358 100.625C327.878 100.946 331.261 102.111 333.676 102.8C337.14 103.788 339.97 105.013 340.437 105.726C341.051 106.662 340.987 108.769 340.31 109.863C339.478 111.209 336.243 113.653 333.192 115.242C332.545 115.578 332.016 115.921 332.016 116.003C332.016 116.085 332.258 116.975 332.554 117.979C334.231 123.676 334.585 132.741 333.393 139.513C333.14 140.955 333.153 141.002 334.192 142.315C336.189 144.839 337.562 148.502 337.928 152.278C338.242 155.518 336.935 161.194 335.276 163.788C333.077 167.228 332.217 168.326 330.416 169.991C327.323 172.85 322.073 175.455 318.434 175.938C317.688 176.036 317.079 176.164 317.079 176.222C317.079 176.366 320.456 181.547 322.097 183.923C323.992 186.666 327.41 193.839 328.463 197.286C328.752 198.232 335.559 190.164 339.297 184.444C352.363 164.45 356.769 139.325 351.218 116.45C347.268 100.17 339.817 86.7119 328.281 75.0172C313.18 59.7086 294.553 50.803 273.136 48.652C270.512 48.3884 260.928 48.3248 258.298 48.5533ZM182.994 52.8553C182.832 53.1974 182.461 54.0989 182.168 54.8589C181.649 56.2109 181.596 56.254 179.736 56.8562C176.558 57.8851 176.466 58.3931 179.094 60.3965L180.568 61.5196L180.706 63.5786C180.913 66.6514 181.276 66.9155 183.361 65.5103C185.566 64.023 185.519 64.0318 187.643 64.7153C190.582 65.6612 190.929 65.2312 189.944 61.8632L189.486 60.3001L190.629 58.6731C192.496 56.0133 192.265 55.6217 188.741 55.4824L186.955 55.4116L185.747 53.8225C184.416 52.0707 183.517 51.7548 182.994 52.8553ZM260.787 75.8805C257.757 76.2923 256.25 76.6039 253.318 77.4275C251.557 77.922 247.654 79.2784 247.408 79.4827C247.274 79.5926 249.82 83.0973 251.81 85.5415L253.389 87.4828L256.812 87.8114C262.466 88.3546 293.341 92.7291 305.038 94.6443C308.228 95.1668 310.877 95.5552 310.923 95.5083C311.103 95.3288 305.229 89.5523 303.386 88.0976C300.331 85.6853 296.462 83.2118 293.052 81.4891C289.491 79.6915 282.814 77.4022 278.74 76.5831C273.101 75.4491 266.01 75.1713 260.787 75.8805ZM235.374 78.337C233.684 81.9041 233.135 84.5852 233.134 89.2667C233.134 94.3093 233.892 97.6884 235.945 101.795L236.889 103.683L239.018 100.851C240.19 99.294 241.316 97.7951 241.522 97.5192C241.851 97.0795 241.765 96.8075 240.813 95.2845C238.127 90.9855 236.97 86.7119 236.604 79.7319L236.415 76.1394L235.374 78.337ZM240.197 78.676C240.104 81.8124 241.739 87.0925 243.757 90.1749C245.646 93.0589 245.711 93.0927 247.222 92.0082C247.912 91.5131 248.477 91.0356 248.476 90.9471C248.475 90.8587 247.773 89.916 246.915 88.8523C244.808 86.2376 242.473 82.6582 241.236 80.1463C240.6 78.8549 240.208 78.3006 240.197 78.676ZM230.782 82.1436C230.287 83.2495 229.574 85.3353 229.199 86.7796C228.599 89.0936 228.534 89.8145 228.651 92.8592C228.816 97.153 229.508 99.8522 231.306 103.223L232.633 105.711L233.847 105.614C234.515 105.56 235.102 105.478 235.151 105.432C235.2 105.385 234.746 104.31 234.141 103.042C231.893 98.326 230.972 94.2501 230.965 88.9902C230.963 86.9396 231.15 84.4811 231.428 82.9399C231.684 81.5125 231.847 80.2966 231.789 80.2393C231.731 80.1814 231.278 81.0382 230.782 82.1436ZM321.366 85.8609C320.453 86.4087 318.524 87.3696 317.079 87.9968C315.633 88.6239 314.298 89.2342 314.111 89.3526C313.868 89.5068 314.133 90.0194 315.034 91.1449C315.729 92.0115 317.24 93.9339 318.393 95.4159C319.546 96.8979 320.563 98.1106 320.655 98.1106C321.124 98.1106 322.686 93.2625 323.149 90.372C323.483 88.285 323.536 84.8402 323.234 84.8551C323.119 84.861 322.279 85.3138 321.366 85.8609ZM167.243 87.1888C164.652 88.2954 165.618 92.3068 168.476 92.3068C170.469 92.3068 171.799 90.2003 170.901 88.4658C170.204 87.1179 168.666 86.5811 167.243 87.1888ZM361.428 87.1823C358.908 88.2778 359.73 92.3068 362.474 92.3068C364.024 92.3068 365.21 91.21 365.21 89.7767C365.21 88.3897 364.855 87.7248 363.832 87.1966C362.856 86.6917 362.561 86.6898 361.428 87.1823ZM224.304 95.6313C222.188 98.2889 220.647 100.797 219.145 104.033C218.014 106.47 216.474 110.999 216.7 111.224C216.778 111.302 217.812 110.958 218.998 110.46L221.155 109.554L222.053 107.355C223.486 103.849 224.4 101.989 225.796 99.7409L227.101 97.6389L226.716 95.7328C226.505 94.6847 226.295 93.7062 226.25 93.5585C226.206 93.4109 225.33 94.3438 224.304 95.6313ZM254.287 94.8382C250.998 96.7138 247.09 100.201 244.579 103.499C243.109 105.432 240.456 109.697 240.456 110.131C240.456 110.309 239.149 110.555 237.205 110.742C233.118 111.137 230.595 111.928 224.505 114.724C219.651 116.952 215.635 118.573 213.638 119.111C213.022 119.276 212.518 119.522 212.518 119.658C212.518 120.126 214.603 121.637 216.528 122.564C219.416 123.953 221.637 124.461 224.827 124.461C231.367 124.461 236.407 121.585 240.183 115.696C241.018 114.394 241.841 113.326 242.012 113.32C242.7 113.299 243.579 116.152 243.712 118.839C243.865 121.915 243.517 123.879 242.401 126.236C240.615 130.007 237.63 132.773 233.934 134.078L232.091 134.729L232.239 138.46C232.561 146.55 234.354 152.93 237.576 157.441C238.935 159.343 240.253 160.17 244.807 161.976C245.989 162.445 247.641 163.147 248.478 163.536C250.219 164.346 250.814 164.385 253.872 163.891C256.799 163.418 258.138 163.763 259.711 165.397C260.607 166.328 260.962 167.003 261.387 168.587L261.927 170.596L263.846 171.11C266.011 171.688 274.924 173.515 279.735 174.366C286.313 175.53 293.754 176.211 296.537 175.906C298.567 175.683 298.459 175.545 295.779 174.933C292.25 174.128 289.158 172.189 285.821 168.688C283.334 166.079 281.483 162.598 280.549 158.773C278.613 150.851 282.196 141.982 288.965 137.941C293.13 135.454 296.179 135.04 309.25 135.189L318.433 135.294L318.761 133.353C319.165 130.967 318.937 125.486 318.332 123.02C316.747 116.564 311.855 112.252 303.865 110.272C291.941 107.316 279.102 108.137 271.573 112.335C269.279 113.615 266.734 115.538 266.734 115.992C266.734 116.199 266.978 117.09 267.275 117.972C268.845 122.626 267.897 127.624 264.645 131.847C263.936 132.767 263.401 133.553 263.455 133.594C263.509 133.635 264.271 133.823 265.148 134.012C270.088 135.078 274.035 138.878 275.653 144.126C276.111 145.614 276.244 146.729 276.228 148.962C276.185 155.208 273.721 160.31 269.398 163.101C267.478 164.34 266.899 164.395 265.13 163.499C259.218 160.506 254.339 153.828 252.145 145.727C251.459 143.193 251.412 142.639 251.412 137.078C251.41 131.307 251.435 131.045 252.265 127.958C254.014 121.448 256.753 116.595 261.1 112.302C266.218 107.249 271.674 104.514 279.873 102.892C283.478 102.179 294.832 102.19 299.514 102.911C303.681 103.553 308.251 104.695 311.172 105.824C317.872 108.416 322.195 113.518 324.306 121.325C324.862 123.378 324.942 124.336 324.951 128.925C324.957 131.814 324.871 134.586 324.759 135.088C324.565 135.96 324.606 136.02 325.727 136.507C326.421 136.807 327.006 136.914 327.163 136.768C327.574 136.385 327.695 128.354 327.33 125.613C326.241 117.444 322.477 109.317 317.44 104.264L315.557 102.375L308.642 101.354C304.838 100.792 298.863 99.8945 295.365 99.3591C285.526 97.8543 257.598 93.9645 256.652 93.9671C256.188 93.969 255.123 94.3607 254.287 94.8382ZM163.812 97.5362C162.88 98.4671 162.723 99.914 163.436 101.001C164.436 102.527 167.008 102.406 167.995 100.788C168.655 99.7078 168.672 99.1177 168.075 98.1074C167.141 96.5284 165.095 96.2545 163.812 97.5362ZM363.848 97.4438C363.16 98.0221 362.997 98.3708 362.997 99.2589C362.997 100.703 363.396 101.391 364.503 101.853C367.351 103.041 369.701 99.536 367.428 97.4887C366.318 96.4887 365.004 96.4725 363.848 97.4438ZM325.93 104.365C325.93 104.507 329.401 109.926 329.701 110.251C329.934 110.504 334.782 107.872 334.782 107.491C334.782 107.395 333.382 106.842 331.67 106.263C329.959 105.684 327.967 104.983 327.244 104.704C326.522 104.426 325.93 104.273 325.93 104.365ZM229.253 116.6C227.597 117.086 220.182 119.821 219.475 120.206C218.685 120.638 221.788 121.187 224.965 121.177C227.94 121.168 228.282 121.108 230.245 120.259C232.524 119.274 235.476 117.144 235.476 116.485C235.476 115.89 231.418 115.966 229.253 116.6ZM286.375 119.977C284.641 120.668 283.608 122.315 283.608 124.388C283.608 126.223 284.353 127.457 285.919 128.215C287.366 128.915 288.12 128.926 289.556 128.267C290.884 127.658 291.461 127.048 292.057 125.623C293.453 122.283 289.77 118.625 286.375 119.977ZM311.183 121.726C309.266 122.408 308.227 123.871 308.227 125.886C308.227 129.254 311.489 131.268 314.451 129.728C316.074 128.884 316.851 127.407 316.727 125.398C316.642 124.031 316.496 123.67 315.69 122.84C314.876 122 313.404 121.305 312.514 121.339C312.362 121.345 311.763 121.519 311.183 121.726ZM214.922 128.688C214.743 128.867 214.993 132.16 215.453 135.666C216.941 146.997 221.053 156.315 227.033 161.903C230.035 164.709 233.118 166.772 238.454 169.546L240.464 170.591L241.982 169.585C242.816 169.031 243.499 168.472 243.499 168.343C243.499 168.213 241.911 167.388 239.971 166.509C236.288 164.84 231.917 162.179 229.961 160.414C228.423 159.025 225.689 155.363 224.635 153.279C222.137 148.343 220.239 140.99 219.025 131.551C218.867 130.321 218.844 130.298 216.953 129.438C215.901 128.961 214.987 128.623 214.922 128.688ZM296.609 141.263C292.928 141.871 289.56 144.331 287.917 147.614C286.685 150.075 286.269 152.145 286.454 154.904C286.837 160.604 289.941 165.399 294.898 167.947C298.601 169.85 300.976 170.237 308.968 170.24C315.373 170.242 318.295 169.951 320.636 169.076C325.476 167.267 329.224 163.534 330.762 158.993C333.755 150.155 329.294 142.296 320.682 141.236C317.853 140.888 298.753 140.909 296.609 141.263ZM207.232 144.111C204.037 144.992 200.976 147.44 199.699 150.137C198.733 152.178 198.039 155.084 196.902 161.859C195.645 169.346 195.645 169.293 196.931 167.736C198.846 165.416 203.84 160.643 206.114 158.958C207.367 158.03 209.632 156.576 211.146 155.726C212.661 154.877 213.901 154.13 213.901 154.067C213.901 154.003 213.544 153.046 213.108 151.94C212.672 150.834 211.909 148.53 211.412 146.82L210.51 143.711L209.508 143.735C208.957 143.749 207.933 143.918 207.232 144.111ZM293.572 147.612C291.974 148.249 291.077 149.824 291.077 151.993C291.077 152.936 291.226 153.434 291.616 153.786C292.134 154.254 292.187 154.25 292.899 153.691C293.396 153.3 294.039 153.108 294.848 153.108C295.842 153.108 296.246 153.281 297.146 154.093C298.071 154.928 298.324 155.032 298.803 154.776C299.524 154.391 299.766 153.417 299.564 151.717C299.352 149.928 298.754 148.848 297.51 148.003C296.414 147.258 294.849 147.103 293.572 147.612ZM323.17 149.446C322.64 149.712 321.939 150.33 321.612 150.82C320.015 153.208 320.915 157.006 322.694 155.388C324.231 153.99 325.249 153.952 326.775 155.235L327.662 155.981L328.179 155.343C328.516 154.927 328.696 154.263 328.696 153.441C328.696 150.053 325.935 148.058 323.17 149.446ZM214.388 161.096C210.798 163.108 208.503 164.819 205.852 167.459C201.596 171.698 198.23 176.955 196.108 182.679C194.54 186.907 194.432 186.304 197.372 189.739C198.797 191.404 200.641 193.486 201.469 194.366L202.974 195.967L205.602 194.002C208.387 191.92 211.098 190.305 214.385 188.769C215.488 188.254 216.39 187.74 216.39 187.627C216.39 187.515 215.953 187.152 215.418 186.822C212.927 185.284 213.438 183.823 217.803 180.016C220.405 177.746 224.024 175.763 226.901 175.031C227.948 174.765 229.885 174.564 231.535 174.55C233.094 174.537 234.37 174.497 234.37 174.461C234.37 174.426 233.716 174.071 232.918 173.672C230.15 172.291 225.161 168.757 222.787 166.494C221.474 165.244 219.654 163.218 218.742 161.993C217.829 160.767 217.019 159.76 216.943 159.753C216.868 159.747 215.718 160.351 214.388 161.096ZM365.096 167.776C363.56 169.6 364.731 172.177 367.096 172.177C368.008 172.177 368.342 172.011 369.054 171.2C370.013 170.108 370.108 169.486 369.495 168.302C368.966 167.28 368.301 166.926 366.912 166.926C366.024 166.926 365.675 167.089 365.096 167.776ZM251.914 169.775C247.787 171.448 243.377 174.861 239.816 179.138C237.613 181.786 232.424 189.647 232.439 190.315C232.446 190.587 235.874 193.18 236.227 193.18C236.352 193.18 237.124 192.191 237.941 190.981C239.891 188.096 240.503 187.543 241.743 187.543C242.515 187.543 242.917 187.743 243.534 188.432C244.847 189.9 244.683 190.578 242.195 193.939L240.696 195.964L241.336 196.506C241.689 196.804 242.662 197.502 243.499 198.056C244.336 198.612 245.331 199.351 245.711 199.7L246.403 200.334L248.063 198.392C252.407 193.311 255.67 186.405 256.517 180.504C256.898 177.853 256.732 172.501 256.202 170.311C255.873 168.949 255.799 168.861 255 168.865C254.531 168.868 253.142 169.277 251.914 169.775ZM306.684 177.947C303.182 181.311 300.071 182.296 293.83 182.015C286.045 181.666 274.86 179.972 265.213 177.68C263.996 177.392 262.86 177.154 262.69 177.153C262.396 177.152 261.852 180.933 262.11 181.191C262.704 181.784 275.787 184.315 281.948 185.028C287.888 185.715 295.747 185.876 298.407 185.365C302.54 184.571 305.14 183.263 307.651 180.714C308.973 179.373 310.584 176.778 310.339 176.383C310.266 176.264 309.854 176.144 309.424 176.116C308.801 176.075 308.245 176.447 306.684 177.947ZM244.991 178.928C243.546 179.557 242.807 180.888 242.807 182.866C242.807 184.17 242.945 184.757 243.389 185.353C245.321 187.943 249.264 187.684 250.699 184.873C251.796 182.726 251.164 180.378 249.178 179.215C247.871 178.449 246.334 178.344 244.991 178.928ZM227.732 180.433C226.895 180.702 225.69 181.251 225.055 181.653C223.689 182.517 221.922 184.028 221.922 184.332C221.922 184.45 222.638 184.603 223.513 184.671C224.4 184.74 226.072 185.187 227.294 185.682C229.598 186.615 229.535 186.623 230.272 185.305C230.442 185 231.246 183.727 232.06 182.474C232.874 181.222 233.541 180.133 233.541 180.056C233.541 179.701 229.116 179.989 227.732 180.433ZM312.564 183.454C312.142 183.918 312.202 184.154 313.454 186.977C315.603 191.821 317.576 198.302 318.457 203.406C318.979 206.431 318.817 206.353 320.97 204.616C322.192 203.629 322.888 202.866 322.888 202.512C322.888 201.444 320.916 196.055 319.298 192.701C317.642 189.268 313.66 182.955 313.149 182.955C313.076 182.955 312.812 183.179 312.564 183.454ZM359.045 184.34C358.122 185.066 357.879 186.232 358.394 187.464C358.875 188.616 359.551 189.035 360.926 189.035C362.892 189.035 364.105 186.961 363.243 185.071C362.641 183.752 360.31 183.346 359.045 184.34ZM219.152 192.702C212.494 196.046 207.637 199.38 204.421 202.813C202.515 204.85 202.129 206.195 202.979 207.837C203.426 208.701 204.663 209.486 205.575 209.486C207.169 209.486 208.466 211.081 207.887 212.331C207.732 212.667 206.528 214.107 205.21 215.532C203.892 216.957 202.632 218.474 202.41 218.903C201.524 220.617 202.143 222.932 203.704 223.739C205.47 224.651 205.908 224.345 211.853 218.046C217.078 212.508 217.369 212.25 218.357 212.25C219.147 212.25 219.529 212.423 219.966 212.978C221.077 214.389 220.83 214.932 216.623 220.316C212.365 225.764 211.964 226.433 211.964 228.085C211.964 229.257 212.091 229.566 212.905 230.38C214.111 231.585 215.189 231.628 216.449 230.522C216.95 230.083 218.603 228.139 220.125 226.202C225.181 219.764 225.999 218.883 226.927 218.883C228.01 218.883 229.115 219.972 229.115 221.039C229.115 221.482 228.737 222.383 228.269 223.056C224.028 229.158 222.216 232.276 222.205 233.489C222.189 235.204 223.737 236.847 225.37 236.847C226.531 236.847 227.731 235.389 231.486 229.412C233.434 226.312 235.327 223.42 235.692 222.987C236.438 222.102 237.494 221.955 238.424 222.606C239.462 223.333 239.409 224.334 238.194 226.988C236.962 229.677 236.927 230.629 238.019 231.79C238.782 232.602 240.379 232.644 241.354 231.878C243.282 230.363 247.89 216.876 249.213 208.87L249.704 205.905L248.76 204.932C248.241 204.397 247.724 203.959 247.612 203.959C247.499 203.959 246.443 205.28 245.265 206.896C242.719 210.386 241.875 210.927 240.233 210.121C239.538 209.78 239.105 209.313 238.849 208.63C238.411 207.462 238.72 206.553 240.231 204.561L241.136 203.366L240.451 202.831C239.395 202.007 237.337 200.642 237.158 200.647C237.07 200.65 236.378 201.534 235.62 202.612C233.901 205.057 233.203 205.617 231.868 205.617C231.032 205.617 230.674 205.44 230.078 204.732C229.009 203.463 229.219 202.052 230.817 199.766C231.49 198.804 232.127 197.878 232.232 197.707C232.347 197.52 231.78 197.002 230.798 196.396C228.106 194.736 227.188 193.364 227.425 191.354C227.446 191.184 226.9 190.969 226.214 190.875C225.527 190.781 224.685 190.637 224.343 190.556C223.913 190.453 222.308 191.117 219.152 192.702ZM255.373 194.878C255.052 195.507 254.108 197.01 253.277 198.216L251.765 200.408L253.095 201.935C253.827 202.775 254.852 204.024 255.374 204.71C256.22 205.821 256.36 205.906 256.663 205.493C256.849 205.237 257.217 204.152 257.48 203.081C258.125 200.449 257.919 197.368 256.957 195.269C256.57 194.424 256.187 193.733 256.106 193.733C256.024 193.733 255.694 194.249 255.373 194.878ZM181.435 204.489L175.925 209.995L176.08 211.144C176.164 211.776 176.448 212.53 176.71 212.819C177.43 213.614 178.895 213.794 179.809 213.2C181.16 212.32 190.171 203.294 190.529 202.461C191.278 200.718 190.058 198.984 188.083 198.984C186.974 198.984 186.811 199.119 181.435 204.489ZM275.691 199.24C274.331 199.463 273.282 200.103 272.616 201.117C272.184 201.776 272.128 202.623 272.128 208.507C272.128 214.655 272.17 215.222 272.682 216.09C272.986 216.606 273.587 217.291 274.017 217.61C274.778 218.176 275.067 218.192 284.716 218.192C294.301 218.192 294.658 218.173 295.396 217.622C297.263 216.23 297.292 216.111 297.393 209.512C297.451 205.684 297.373 203.083 297.178 202.359C296.736 200.719 295.734 199.661 294.277 199.294C292.936 198.957 277.693 198.913 275.691 199.24ZM215.118 200.605C213.437 201.838 210.082 205.445 209.884 206.232C209.498 207.768 211.134 209.478 212.631 209.103C213.341 208.925 217.886 204.466 218.521 203.324C219.065 202.348 218.934 201.421 218.137 200.588C217.195 199.607 216.473 199.611 215.118 200.605ZM277.799 208.658V212.25H284.715H291.63V208.658V205.064H284.715H277.799V208.658ZM345.656 207.891C345.533 208.078 345.115 209.041 344.729 210.03L344.025 211.83L342.129 212.524C339.128 213.621 339.099 214.099 341.905 216.17L343.357 217.242V219.251C343.357 221.197 343.624 221.923 344.338 221.923C344.512 221.923 345.417 221.431 346.349 220.829L348.043 219.735L349.968 220.313C351.027 220.631 352.089 220.817 352.328 220.725C352.875 220.515 352.881 219.432 352.345 217.664C351.788 215.833 351.782 215.869 353.039 214.185C353.648 213.37 354.146 212.474 354.146 212.193C354.146 211.509 353.086 211.145 351.093 211.145H349.461L348.342 209.633C347.374 208.323 346.513 207.552 346.02 207.552C345.942 207.552 345.779 207.704 345.656 207.891ZM188.018 211.471C187.551 211.823 183.541 215.704 179.106 220.094C173.652 225.493 170.949 228.364 170.749 228.967C170.27 230.417 171.133 231.891 172.687 232.279C173.851 232.569 175.409 231.242 183.957 222.679C191.602 215.022 192.048 214.519 192.048 213.566C192.048 211.414 189.705 210.196 188.018 211.471ZM230.623 213.205C229.768 214.06 229.721 215.485 230.518 216.496C231.303 217.494 232.995 217.518 233.968 216.546C234.941 215.574 234.916 213.884 233.918 213.099C232.906 212.304 231.479 212.35 230.623 213.205ZM318.185 226.54C316.357 227.208 315.9 229.632 317.334 231.064C319.019 232.748 321.781 231.428 321.781 228.939C321.781 227.196 319.874 225.923 318.185 226.54ZM308.496 231.787C307.527 232.45 307.407 232.694 307.401 233.999C307.395 235.679 308.332 236.696 309.885 236.696C312.651 236.696 313.657 232.968 311.229 231.713C310.221 231.192 309.331 231.216 308.496 231.787ZM298.639 234.515C296.153 235.772 297.104 239.622 299.897 239.604C302.286 239.59 303.516 236.927 301.934 235.192C301 234.167 299.81 233.923 298.639 234.515ZM210.858 244.776C210.152 245.044 209.478 245.746 207.724 248.039C206.36 249.822 206.033 250.449 206.032 251.272C206.028 253.448 208.551 254.553 210.067 253.038C211.624 251.482 213.901 247.972 213.901 247.126C213.901 245.647 212.14 244.286 210.858 244.776Z" fill="#070715"/>
</svg>
