<svg width="322" height="216" viewBox="0 0 322 216" fill="none" xmlns="http://www.w3.org/2000/svg">
<path d="M20.7689 187.586C21.1167 188.038 21.2908 188.507 21.2908 188.993C21.2908 189.585 21.0645 190.054 20.6124 190.401C20.1603 190.714 19.6209 190.87 18.9947 190.87C18.6816 190.87 18.351 190.784 18.0032 190.61C17.6901 190.401 17.3595 190.175 17.0117 189.932C16.6986 189.654 16.368 189.376 16.0203 189.098C15.7072 188.785 15.4116 188.542 15.1331 188.368C14.7157 188.264 14.385 188.159 14.1417 188.055C13.8983 187.916 13.4979 187.812 12.9414 187.742C11.6193 187.916 10.4191 188.438 9.3408 189.306C8.26249 190.14 7.32319 191.201 6.52291 192.487C5.75769 193.738 5.14861 195.128 4.69649 196.657C4.27903 198.187 4.07029 199.699 4.07029 201.193C4.07029 202.41 4.22684 203.557 4.53994 204.634C4.85304 205.677 5.34023 206.615 6.00108 207.45C6.66192 208.249 7.46221 208.892 8.40151 209.379C9.37545 209.83 10.5235 210.056 11.8456 210.056C13.3067 210.056 14.6981 209.761 16.0203 209.17C17.3424 208.579 18.2988 207.728 18.8903 206.615C19.4468 205.816 20.073 205.416 20.7689 205.416C21.2561 205.416 21.7258 205.59 22.1779 205.938C22.6651 206.251 22.9085 206.72 22.9085 207.345C22.9085 207.867 22.7694 208.371 22.491 208.857C22.2125 209.309 21.8648 209.744 21.4473 210.161C21.0299 210.543 20.5777 210.908 20.0906 211.256C19.6034 211.568 19.1513 211.847 18.7338 212.09C17.7248 212.785 16.6465 213.289 15.4984 213.602C14.3504 213.915 13.2199 214.071 12.1065 214.071C10.4713 214.071 8.92334 213.81 7.46221 213.289C6.00108 212.733 4.71403 211.951 3.60065 210.943C2.52233 209.935 1.65233 208.683 0.991482 207.189C0.330633 205.695 0 203.974 0 202.028C0 198.378 0.695916 195.111 2.08733 192.226C3.51381 189.306 5.49678 186.908 8.03622 185.031C8.66242 184.544 9.37545 184.197 10.1757 183.988C10.976 183.745 11.811 183.623 12.6805 183.623C13.6545 183.623 14.4894 183.728 15.1853 183.936C15.8812 184.145 16.5246 184.44 17.1161 184.823C17.7423 185.17 18.3339 185.587 18.8903 186.074C19.4468 186.561 20.073 187.064 20.7689 187.586ZM38.72 183.102C39.0331 183.102 39.3286 183.137 39.6071 183.206C39.8505 182.963 40.2679 182.841 40.8595 182.841C41.6944 182.841 42.3206 183.172 42.7381 183.832L43.8339 185.657C44.7035 186.526 45.417 187.534 45.9735 188.681C46.565 189.793 47.0347 190.957 47.3824 192.174C47.7302 193.39 47.974 194.607 48.113 195.823C48.252 197.04 48.3217 198.169 48.3217 199.212C48.3217 200.985 48.0608 202.827 47.539 204.739C47.0171 206.65 46.0778 208.388 44.7211 209.952C43.4687 211.551 42.3382 212.715 41.3291 213.445C40.3201 214.141 39.1028 214.488 37.6763 214.488C37.0848 214.488 36.3196 214.418 35.3803 214.28C34.4756 214.141 33.5363 213.845 32.5624 213.393C31.6231 212.941 30.7359 212.281 29.901 211.412C29.0661 210.543 28.4574 209.379 28.0746 207.919C27.7268 206.702 27.4659 205.642 27.2918 204.739C27.1528 203.8 27.0831 202.862 27.0831 201.923C27.0831 200.255 27.2221 198.621 27.5006 197.022C27.8137 195.389 28.2311 193.877 28.753 192.487C29.2748 191.061 29.901 189.793 30.6316 188.681C31.3968 187.568 32.2317 186.682 33.1364 186.022C34.5975 184.979 36.4586 184.006 38.72 183.102ZM39.868 187.221L38.4069 187.69C37.4329 188.003 36.5805 188.524 35.8499 189.254C35.1193 189.949 34.4931 190.749 33.9713 191.652C33.4495 192.556 33.0145 193.512 32.6667 194.52C32.319 195.493 32.0405 196.431 31.8318 197.335C31.6231 198.239 31.4665 199.038 31.3621 199.734C31.2924 200.429 31.2578 200.915 31.2578 201.193C31.2578 203.626 31.9362 206.146 33.2929 208.753C33.9538 209.309 34.615 209.726 35.2759 210.004C35.9718 210.283 36.8589 210.421 37.9372 210.421C38.0069 210.421 38.1113 210.387 38.2503 210.317L38.5634 210.213C38.6331 210.178 38.7024 210.143 38.7722 210.109C38.8419 210.074 38.9112 210.022 38.9809 209.952L39.6593 209.379C39.7983 209.344 39.9027 209.24 39.9724 209.066C40.5986 208.371 41.1551 207.676 41.6422 206.98C42.1641 206.285 42.5991 205.538 42.9468 204.739C43.3296 203.904 43.6077 203.018 43.7818 202.08C43.9905 201.107 44.0949 200.012 44.0949 198.795C44.0949 197.196 43.8686 195.615 43.4165 194.051C42.999 192.452 42.3903 190.975 41.5901 189.619C40.9985 188.855 40.5986 188.368 40.3898 188.159C40.2158 187.916 40.0767 187.655 39.9724 187.377L39.868 187.221ZM75.457 205.625C76.3616 202.81 77.0922 200.029 77.6487 197.283C78.2052 194.502 78.727 191.705 79.2142 188.889C79.3186 188.298 79.5619 187.829 79.9448 187.482C80.3622 187.134 80.8319 186.96 81.3537 186.96C81.9453 186.96 82.432 187.169 82.8148 187.586C83.2323 188.003 83.441 188.594 83.441 189.358C82.8846 193.008 82.1365 196.675 81.1972 200.359C80.2579 204.009 79.3361 207.467 78.4314 210.734C78.2227 211.499 77.9964 212.142 77.7531 212.663C77.5097 213.15 76.9878 213.48 76.1876 213.654H76.031C75.4395 213.619 75.0742 213.532 74.9352 213.393L74.5699 213.028C73.9437 212.159 73.4916 211.342 73.2131 210.578C72.9347 209.778 72.6566 208.979 72.3782 208.18C71.891 207.102 71.2999 205.903 70.604 204.582C69.9431 203.227 69.334 201.819 68.7775 200.359L68.4123 199.369C67.7861 200.724 67.2296 202.028 66.7424 203.279C66.2552 204.53 65.7856 205.764 65.3334 206.98C64.916 208.197 64.481 209.413 64.0289 210.63C63.5767 211.847 63.072 213.08 62.5155 214.332C62.1327 214.853 61.5938 215.2 60.8979 215.374H60.7413C60.1151 215.305 59.5758 215.079 59.1236 214.697C58.6715 214.349 58.4106 213.88 58.3409 213.289C57.8888 211.308 57.506 209.361 57.1929 207.45C56.8798 205.503 56.4969 203.592 56.0448 201.715C55.2099 198.76 54.4447 195.858 53.7488 193.008C53.0528 190.158 52.4964 187.151 52.0789 183.988C52.0442 183.884 52.0267 183.745 52.0267 183.571C52.0267 182.98 52.2179 182.476 52.6007 182.059C53.0182 181.642 53.5225 181.434 54.114 181.434C54.5315 181.434 54.949 181.573 55.3664 181.851C55.7839 182.129 56.0795 182.581 56.2536 183.206C56.671 186.335 57.2275 189.306 57.9234 192.122C58.6193 194.902 59.367 197.787 60.1673 200.776L61.3153 206.251L61.5241 205.208L62.5155 202.392C63.1071 200.724 63.7158 199.09 64.342 197.492C64.9682 195.893 65.6119 194.259 66.2727 192.591C66.3425 192.452 66.3946 192.226 66.4293 191.913C66.499 191.566 66.6034 191.235 66.7424 190.923C66.9165 190.575 67.1423 190.279 67.4208 190.036C67.7339 189.793 68.186 189.654 68.7775 189.619H68.8819C69.8212 189.862 70.4299 190.523 70.7083 191.6L70.7605 192.591C70.8302 193.842 71.1604 195.215 71.752 196.71C72.3435 198.204 72.9697 199.681 73.6306 201.141C73.909 201.975 74.1871 202.775 74.4655 203.539C74.7786 204.269 75.1092 204.965 75.457 205.625ZM105.723 184.301C106.036 184.892 106.193 185.448 106.193 185.97C106.193 186.456 105.984 186.891 105.567 187.273C105.184 187.62 104.68 187.794 104.053 187.794C103.636 187.794 103.253 187.708 102.905 187.534C101.549 186.387 100.07 185.813 98.4698 185.813C96.6609 185.813 95.1301 186.543 93.8777 188.003C93.843 188.142 93.7909 188.298 93.7211 188.472C93.6865 188.646 93.6343 188.802 93.5646 188.941C93.5646 190.401 93.9474 191.618 94.7126 192.591C95.4778 193.529 96.4347 194.381 97.5827 195.146C98.7307 195.875 99.9656 196.571 101.288 197.231C102.61 197.891 103.845 198.656 104.993 199.525C106.141 200.394 107.098 201.454 107.863 202.705C108.628 203.922 109.011 205.451 109.011 207.293C109.011 208.823 108.646 210.109 107.915 211.151C107.219 212.194 106.332 213.046 105.254 213.706C104.175 214.332 103.027 214.783 101.81 215.062C100.592 215.374 99.4613 215.531 98.4176 215.531C96.6088 215.531 94.8345 215.148 93.0949 214.384C91.3554 213.654 89.842 212.542 88.555 211.047C88.2765 210.665 87.9985 210.178 87.7201 209.587C87.4416 208.996 87.3026 208.423 87.3026 207.867C87.3026 207.276 87.4767 206.772 87.8244 206.355C88.2072 205.903 88.7462 205.677 89.4421 205.677C90.103 205.677 90.6248 205.972 91.0076 206.563C91.4251 207.119 91.7904 207.815 92.1035 208.649C93.0081 209.553 93.9821 210.23 95.0257 210.682C96.0694 211.099 97.1477 211.308 98.2611 211.308C98.6786 211.308 99.2004 211.273 99.8266 211.203C100.453 211.099 101.061 210.943 101.653 210.734C102.279 210.526 102.836 210.265 103.323 209.952C103.845 209.605 104.21 209.188 104.419 208.701C104.488 208.423 104.541 208.197 104.575 208.023C104.645 207.815 104.714 207.624 104.784 207.45C104.575 206.268 104.14 205.242 103.479 204.374C102.853 203.505 102.105 202.74 101.236 202.08C100.366 201.419 99.4438 200.846 98.4698 200.359C97.5305 199.872 96.6609 199.403 95.8607 198.951C94.4342 198.152 93.1471 197.196 91.9991 196.084C90.8511 194.937 89.9815 193.286 89.3899 191.131C89.2158 190.505 89.129 189.914 89.129 189.358C89.129 188.177 89.4246 187.099 90.0161 186.126C90.6077 185.153 91.3729 184.336 92.3122 183.676C93.2515 182.98 94.3127 182.442 95.4954 182.059C96.6781 181.677 97.8783 181.486 99.096 181.486C100.522 181.486 101.757 181.747 102.801 182.268C103.845 182.755 104.819 183.432 105.723 184.301ZM127.118 188.629C127.014 192.348 126.962 196.188 126.962 200.151V212.35C126.962 212.976 126.736 213.48 126.283 213.862C125.866 214.245 125.414 214.436 124.927 214.436C124.44 214.436 123.953 214.262 123.466 213.915C123.013 213.602 122.753 213.046 122.683 212.246V200.255C122.683 196.397 122.735 192.661 122.839 189.046C121.17 189.22 119.674 189.376 118.352 189.515C117.03 189.619 115.864 189.741 114.855 189.88C114.159 189.81 113.62 189.567 113.238 189.15C112.89 188.733 112.716 188.229 112.716 187.638C112.716 186.978 113.029 186.473 113.655 186.126C114.281 185.779 115.116 185.518 116.16 185.344C117.204 185.135 118.404 184.997 119.761 184.927C121.152 184.857 122.613 184.753 124.144 184.614C126.266 184.44 128.145 184.301 129.78 184.197C131.415 184.093 132.824 184.041 134.007 184.041C135.259 184.492 135.885 185.188 135.885 186.126C135.781 186.856 135.468 187.377 134.946 187.69C134.459 188.003 133.815 188.211 133.015 188.316C132.25 188.42 131.363 188.472 130.354 188.472C129.345 188.472 128.266 188.524 127.118 188.629ZM144.548 213.967C144.548 214.558 144.321 215.044 143.869 215.427C143.452 215.809 143 216 142.512 216C142.025 216 141.539 215.826 141.051 215.479C140.599 215.166 140.338 214.644 140.269 213.915C140.269 211.586 140.286 209.274 140.321 206.98C140.391 204.686 140.425 202.375 140.425 200.046C140.425 199.386 140.373 198.343 140.269 196.918C140.199 195.458 140.164 193.946 140.164 192.382C140.164 190.714 140.216 189.08 140.321 187.482C140.46 185.883 140.773 184.492 141.26 183.311L141.573 182.789L142.147 182.32C143.087 181.973 144.06 181.799 145.069 181.799C146.496 181.799 148.026 181.955 149.662 182.268C151.297 182.546 152.81 183.05 154.202 183.78C155.593 184.51 156.741 185.5 157.646 186.752C158.585 187.968 159.055 189.532 159.055 191.444C159.055 192.348 158.916 193.182 158.637 193.946C158.394 194.711 158.063 195.406 157.646 196.032C157.263 196.657 156.811 197.213 156.289 197.7C155.802 198.187 155.315 198.587 154.828 198.899C153.819 199.56 152.706 200.081 151.488 200.463C150.27 200.811 149.001 201.211 147.679 201.663L147.052 201.871C146.983 201.836 146.948 201.819 146.948 201.819C147.783 202.41 148.566 203.036 149.296 203.696C150.062 204.322 150.827 204.947 151.592 205.573C152.393 206.198 153.21 206.807 154.045 207.398C154.915 207.954 155.854 208.475 156.863 208.962C157.524 209.587 157.854 210.248 157.854 210.943C157.854 211.534 157.646 212.02 157.228 212.403C156.845 212.75 156.376 212.924 155.819 212.924C155.402 212.924 154.915 212.802 154.358 212.559C153.802 212.316 153.228 212.02 152.636 211.673C152.044 211.29 151.436 210.891 150.81 210.474C150.218 210.056 149.662 209.674 149.14 209.327C148.235 208.736 147.4 208.127 146.635 207.502C145.904 206.876 145.244 206.268 144.652 205.677V206.772C144.652 207.919 144.617 209.101 144.548 210.317C144.513 211.499 144.513 212.715 144.548 213.967ZM144.704 197.961C144.634 198.031 144.6 198.065 144.6 198.065C144.565 198.065 144.652 198.031 144.861 197.961C145.626 197.752 146.565 197.544 147.679 197.335C148.827 197.092 149.923 196.762 150.966 196.345C152.01 195.893 152.897 195.302 153.628 194.572C154.393 193.808 154.776 192.782 154.776 191.496C154.776 190.453 154.567 189.637 154.149 189.046C153.767 188.455 153.245 188.003 152.584 187.69C151.958 187.343 151.245 187.099 150.444 186.96C149.644 186.786 148.844 186.613 148.044 186.439C147.592 186.335 147.087 186.248 146.531 186.178C145.974 186.074 145.504 186.022 145.122 186.022C144.983 186.022 144.878 186.248 144.809 186.699C144.739 187.117 144.687 187.62 144.652 188.211C144.652 188.802 144.652 189.393 144.652 189.984C144.652 190.54 144.652 190.957 144.652 191.235C144.652 192.521 144.652 193.738 144.652 194.885C144.687 196.032 144.704 197.057 144.704 197.961ZM174.814 183.102C175.127 183.102 175.423 183.137 175.701 183.206C175.944 182.963 176.362 182.841 176.953 182.841C177.788 182.841 178.415 183.172 178.832 183.832L179.928 185.657C180.797 186.526 181.511 187.534 182.067 188.681C182.659 189.793 183.129 190.957 183.476 192.174C183.824 193.39 184.068 194.607 184.207 195.823C184.346 197.04 184.416 198.169 184.416 199.212C184.416 200.985 184.155 202.827 183.633 204.739C183.111 206.65 182.172 208.388 180.815 209.952C179.563 211.551 178.432 212.715 177.423 213.445C176.414 214.141 175.197 214.488 173.77 214.488C173.179 214.488 172.414 214.418 171.474 214.28C170.57 214.141 169.63 213.845 168.656 213.393C167.717 212.941 166.83 212.281 165.995 211.412C165.16 210.543 164.551 209.379 164.169 207.919C163.821 206.702 163.56 205.642 163.386 204.739C163.247 203.8 163.177 202.862 163.177 201.923C163.177 200.255 163.316 198.621 163.595 197.022C163.908 195.389 164.325 193.877 164.847 192.487C165.369 191.061 165.995 189.793 166.726 188.681C167.491 187.568 168.326 186.682 169.23 186.022C170.691 184.979 172.553 184.006 174.814 183.102ZM175.962 187.221L174.501 187.69C173.527 188.003 172.674 188.524 171.944 189.254C171.213 189.949 170.587 190.749 170.065 191.652C169.543 192.556 169.108 193.512 168.761 194.52C168.413 195.493 168.134 196.431 167.926 197.335C167.717 198.239 167.56 199.038 167.456 199.734C167.386 200.429 167.352 200.915 167.352 201.193C167.352 203.626 168.03 206.146 169.387 208.753C170.048 209.309 170.709 209.726 171.37 210.004C172.066 210.283 172.953 210.421 174.031 210.421C174.101 210.421 174.205 210.387 174.344 210.317L174.657 210.213C174.727 210.178 174.796 210.143 174.866 210.109C174.936 210.074 175.005 210.022 175.075 209.952L175.753 209.379C175.892 209.344 175.997 209.24 176.066 209.066C176.693 208.371 177.249 207.676 177.736 206.98C178.258 206.285 178.693 205.538 179.041 204.739C179.424 203.904 179.702 203.018 179.876 202.08C180.084 201.107 180.189 200.012 180.189 198.795C180.189 197.196 179.963 195.615 179.51 194.051C179.093 192.452 178.484 190.975 177.684 189.619C177.092 188.855 176.693 188.368 176.484 188.159C176.31 187.916 176.171 187.655 176.066 187.377L175.962 187.221ZM193.913 211.777C193.739 212.333 193.443 212.75 193.026 213.028C192.643 213.306 192.261 213.445 191.878 213.445C191.286 213.445 190.782 213.271 190.365 212.924C189.947 212.542 189.704 212.003 189.634 211.308C189.738 210.335 189.791 209.361 189.791 208.388C189.791 206.198 189.582 204.009 189.164 201.819C188.782 199.629 188.521 197.37 188.382 195.041V193.529C188.382 193.008 188.399 192.417 188.434 191.757C188.468 191.096 188.521 190.453 188.59 189.828C188.66 189.202 188.729 188.629 188.799 188.107C188.903 187.551 189.008 187.117 189.112 186.804L189.269 186.282C189.269 186.074 189.338 185.883 189.477 185.709C189.652 185.5 189.843 185.326 190.051 185.188C190.295 185.049 190.539 184.944 190.782 184.875C191.025 184.77 191.234 184.718 191.408 184.718C191.895 184.718 192.365 184.892 192.817 185.24C194.174 186.352 195.548 187.568 196.94 188.889C198.366 190.175 199.705 191.496 200.958 192.852C202.245 194.207 203.428 195.563 204.506 196.918C205.585 198.274 206.455 199.525 207.115 200.672L207.428 197.283C207.603 195.789 207.724 194.242 207.794 192.643C207.898 191.044 207.968 189.393 208.002 187.69C207.933 187.412 207.898 187.169 207.898 186.96C207.898 186.265 208.089 185.726 208.472 185.344C208.855 184.961 209.342 184.77 209.933 184.77C210.42 184.77 210.82 184.857 211.133 185.031C211.481 185.205 211.742 185.431 211.916 185.709C212.125 185.987 212.264 186.3 212.334 186.647C212.403 186.96 212.438 187.273 212.438 187.586C212.438 188.142 212.386 188.698 212.282 189.254C212.212 189.776 212.177 190.262 212.177 190.714C211.968 193.634 211.742 196.501 211.499 199.316C211.255 202.097 211.133 204.947 211.133 207.867C211.099 208.527 210.89 209.083 210.507 209.535C210.16 209.987 209.638 210.213 208.942 210.213C208.559 210.213 208.194 210.091 207.846 209.848C207.533 209.605 207.237 209.327 206.959 209.014C206.68 208.701 206.437 208.388 206.228 208.075C206.054 207.762 205.933 207.536 205.863 207.398L204.976 205.469C203.341 202.514 201.462 199.803 199.34 197.335C197.253 194.833 195.061 192.608 192.765 190.662C192.695 191.149 192.626 191.652 192.556 192.174C192.522 192.661 192.504 193.147 192.504 193.634C192.504 194.955 192.574 196.275 192.713 197.596C192.887 198.917 193.061 200.237 193.235 201.558C193.409 202.844 193.565 204.148 193.704 205.469C193.878 206.789 193.965 208.127 193.965 209.483C193.965 209.865 193.965 210.248 193.965 210.63C193.965 211.012 193.948 211.395 193.913 211.777ZM223.136 203.8C222.962 203.766 222.805 203.748 222.666 203.748C222.596 203.748 222.423 204.009 222.144 204.53C221.866 205.017 221.535 205.59 221.153 206.251C220.805 206.876 220.457 207.519 220.109 208.18C219.761 208.805 219.5 209.257 219.326 209.535C218.77 210.195 218.144 210.526 217.448 210.526C216.926 210.526 216.474 210.352 216.091 210.004C215.708 209.622 215.517 209.083 215.517 208.388C215.517 208.11 215.534 207.884 215.569 207.71C216.717 205.695 217.813 203.713 218.857 201.767C219.9 199.82 220.979 197.891 222.092 195.98C223.24 194.068 224.44 192.208 225.693 190.401C226.945 188.559 228.354 186.769 229.919 185.031C230.163 184.753 230.424 184.579 230.702 184.51C230.981 184.406 231.242 184.336 231.485 184.301C232.007 184.301 232.442 184.492 232.79 184.875C233.172 185.257 233.398 185.726 233.468 186.282C233.364 186.665 233.242 186.926 233.103 187.064L233.52 186.856C233.972 186.856 234.442 186.978 234.929 187.221C235.451 187.464 235.816 187.933 236.025 188.629C236.303 190.575 236.634 192.469 237.016 194.311C237.399 196.119 237.764 197.943 238.112 199.786C238.495 201.593 238.825 203.418 239.104 205.26C239.417 207.102 239.608 209.014 239.678 210.995C239.678 211.69 239.469 212.229 239.052 212.611C238.634 212.959 238.182 213.133 237.695 213.133C237.173 213.133 236.669 212.976 236.181 212.663C235.729 212.35 235.468 211.812 235.399 211.047C235.329 208.614 235.12 206.32 234.773 204.165C234.703 204.235 234.512 204.287 234.198 204.322C232.32 204.322 230.441 204.235 228.563 204.061C226.719 203.887 224.91 203.8 223.136 203.8ZM224.962 199.629C226.214 199.699 227.676 199.786 229.345 199.89C231.015 199.994 232.546 200.046 233.938 200.046H233.99L233.938 199.786C233.833 199.438 233.711 198.934 233.572 198.274C233.433 197.613 233.277 196.901 233.103 196.136C232.964 195.372 232.807 194.59 232.633 193.79C232.494 192.956 232.355 192.208 232.216 191.548C232.077 190.888 231.955 190.349 231.85 189.932C231.781 189.515 231.746 189.306 231.746 189.306C231.433 189.585 230.998 190.088 230.441 190.818C229.954 191.444 229.328 192.365 228.563 193.581C227.797 194.763 226.841 196.379 225.693 198.43L224.962 199.629ZM243.331 185.344C243.296 185.24 243.278 185.101 243.278 184.927C243.278 184.267 243.487 183.745 243.905 183.363C244.322 182.946 244.774 182.737 245.261 182.737C245.713 182.737 246.166 182.876 246.618 183.154C247.07 183.432 247.366 183.884 247.505 184.51C247.992 186.699 248.514 188.837 249.071 190.923C249.662 192.973 250.288 195.111 250.949 197.335C251.158 198.343 251.384 199.421 251.628 200.568C251.871 201.715 252.15 202.862 252.463 204.009C252.776 205.121 253.141 206.198 253.558 207.241C253.976 208.249 254.446 209.118 254.97 209.848C255.387 210.161 255.888 210.317 256.481 210.317C258.08 210.317 259.403 209.813 260.447 208.805C261.49 207.797 262.309 206.598 262.901 205.208C263.49 203.783 263.891 202.306 264.099 200.776C264.342 199.247 264.463 197.961 264.463 196.918V192.382C264.463 191.235 264.429 190.088 264.362 188.941C264.292 187.76 264.275 186.595 264.308 185.448C264.413 184.823 264.655 184.336 265.039 183.988C265.456 183.606 265.907 183.415 266.396 183.415C266.846 183.415 267.264 183.571 267.648 183.884C268.065 184.162 268.379 184.649 268.587 185.344C268.587 186.978 268.621 188.594 268.692 190.193C268.796 191.757 268.846 193.338 268.846 194.937C268.846 196.779 268.708 198.743 268.429 200.828C268.186 202.914 267.665 204.895 266.867 206.772C266.066 208.614 264.934 210.248 263.473 211.673C262.046 213.063 260.15 213.984 257.783 214.436C257.574 214.471 257.349 214.488 257.107 214.488C256.898 214.488 256.673 214.488 256.431 214.488C255.141 214.488 254.046 214.227 253.141 213.706C252.236 213.15 251.471 212.42 250.845 211.516C250.219 210.612 249.697 209.587 249.279 208.44C248.862 207.293 248.497 206.112 248.184 204.895C247.905 203.678 247.662 202.497 247.453 201.35C247.244 200.168 247.018 199.09 246.775 198.117C246.253 196.032 245.644 193.912 244.948 191.757C244.287 189.602 243.748 187.464 243.331 185.344ZM287.423 188.629C287.323 192.348 287.269 196.188 287.269 200.151V212.35C287.269 212.976 287.043 213.48 286.588 213.862C286.171 214.245 285.72 214.436 285.236 214.436C284.747 214.436 284.259 214.262 283.775 213.915C283.32 213.602 283.061 213.046 282.99 212.246V200.255C282.99 196.397 283.04 192.661 283.148 189.046C281.479 189.22 279.98 189.376 278.657 189.515C277.337 189.619 276.173 189.741 275.162 189.88C274.465 189.81 273.927 189.567 273.547 189.15C273.196 188.733 273.021 188.229 273.021 187.638C273.021 186.978 273.338 186.473 273.964 186.126C274.59 185.779 275.425 185.518 276.469 185.344C277.513 185.135 278.711 184.997 280.068 184.927C281.458 184.857 282.919 184.753 284.451 184.614C286.572 184.44 288.45 184.301 290.087 184.197C291.723 184.093 293.13 184.041 294.312 184.041C295.564 184.492 296.19 185.188 296.19 186.126C296.09 186.856 295.773 187.377 295.255 187.69C294.767 188.003 294.124 188.211 293.322 188.316C292.558 188.42 291.669 188.472 290.663 188.472C289.653 188.472 288.576 188.524 287.423 188.629ZM318.424 184.301C318.733 184.892 318.892 185.448 318.892 185.97C318.892 186.456 318.683 186.891 318.266 187.273C317.882 187.62 317.381 187.794 316.754 187.794C316.337 187.794 315.953 187.708 315.602 187.534C314.25 186.387 312.768 185.813 311.169 185.813C309.361 185.813 307.829 186.543 306.577 188.003C306.543 188.142 306.489 188.298 306.418 188.472C306.385 188.646 306.335 188.802 306.264 188.941C306.264 190.401 306.648 191.618 307.412 192.591C308.176 193.529 309.132 194.381 310.284 195.146C311.428 195.875 312.663 196.571 313.987 197.231C315.31 197.891 316.546 198.656 317.69 199.525C318.842 200.394 319.798 201.454 320.562 202.705C321.326 203.922 321.71 205.451 321.71 207.293C321.71 208.823 321.347 210.109 320.612 211.151C319.919 212.194 319.03 213.046 317.953 213.706C316.876 214.332 315.728 214.783 314.509 215.062C313.29 215.374 312.162 215.531 311.119 215.531C309.307 215.531 307.533 215.148 305.792 214.384C304.055 213.654 302.54 212.542 301.254 211.047C300.974 210.665 300.699 210.178 300.419 209.587C300.139 208.996 300.002 208.423 300.002 207.867C300.002 207.276 300.177 206.772 300.523 206.355C300.907 205.903 301.446 205.677 302.143 205.677C302.803 205.677 303.325 205.972 303.705 206.563C304.122 207.119 304.489 207.815 304.802 208.649C305.708 209.553 306.681 210.23 307.725 210.682C308.768 211.099 309.845 211.308 310.96 211.308C311.378 211.308 311.899 211.273 312.526 211.203C313.152 211.099 313.761 210.943 314.35 210.734C314.976 210.526 315.535 210.265 316.02 209.952C316.546 209.605 316.909 209.188 317.118 208.701C317.189 208.423 317.239 208.197 317.272 208.023C317.343 207.815 317.414 207.624 317.481 207.45C317.272 206.268 316.838 205.242 316.178 204.374C315.552 203.505 314.805 202.74 313.932 202.08C313.064 201.419 312.141 200.846 311.169 200.359C310.229 199.872 309.361 199.403 308.56 198.951C307.132 198.152 305.846 197.196 304.698 196.084C303.55 194.937 302.682 193.286 302.089 191.131C301.914 190.505 301.826 189.914 301.826 189.358C301.826 188.177 302.122 187.099 302.715 186.126C303.308 185.153 304.072 184.336 305.011 183.676C305.95 182.98 307.011 182.442 308.196 182.059C309.378 181.677 310.576 181.486 311.795 181.486C313.223 181.486 314.458 181.747 315.502 182.268C316.546 182.755 317.518 183.432 318.424 184.301Z" fill="#C4C4C4"/>
<path d="M170.505 148.067C204.167 148.067 231.455 120.803 231.455 87.1716C231.455 53.5401 204.167 26.2766 170.505 26.2766C136.843 26.2766 109.555 53.5401 109.555 87.1716C109.555 120.803 136.843 148.067 170.505 148.067Z" fill="white"/>
<path fill-rule="evenodd" clip-rule="evenodd" d="M209.932 47.6616C210.904 48.6363 211.739 49.4338 211.787 49.4338C211.836 49.4338 211.081 48.6363 210.11 47.6616C209.138 46.6873 208.303 45.8898 208.254 45.8898C208.206 45.8898 208.96 46.6873 209.932 47.6616ZM171.844 48.4983C172.159 48.5375 172.718 48.5383 173.085 48.5C173.453 48.4616 173.196 48.4295 172.513 48.4286C171.83 48.4278 171.529 48.4595 171.844 48.4983ZM151.268 49.3946C151.094 49.7141 151.007 50.0653 151.075 50.175C151.154 50.3026 151.118 50.3247 150.974 50.2359C150.81 50.1345 150.782 50.1975 150.871 50.4753C150.954 50.7389 150.903 50.8861 150.702 50.9633C150.543 51.0242 150.457 51.1873 150.51 51.3262C150.564 51.4646 150.538 51.5351 150.452 51.4826C150.126 51.2811 149.918 52.8523 150.141 53.8283C150.26 54.345 150.394 54.7304 150.44 54.6846C150.485 54.6387 150.53 54.8939 150.538 55.251C150.565 56.4101 150.814 58.2027 150.956 58.2548C151.031 58.2828 151.071 58.581 151.044 58.918C151.018 59.2546 151.069 59.5753 151.158 59.6308C151.248 59.6859 151.321 59.8857 151.321 60.075C151.321 60.2644 151.39 60.4187 151.474 60.4187C151.558 60.4187 151.605 60.6181 151.578 60.8616C151.551 61.1056 151.593 61.3046 151.671 61.3046C151.75 61.3046 151.866 61.5836 151.93 61.9248C151.994 62.266 152.12 62.545 152.21 62.545C152.3 62.545 152.328 62.6647 152.272 62.8107C152.149 63.1302 152.489 63.1719 152.634 62.8549C152.69 62.7335 152.695 62.804 152.644 63.0117C152.539 63.438 152.88 64.3168 153.15 64.3168C153.247 64.3168 153.206 64.4565 153.06 64.6271C152.913 64.7973 152.733 65.0567 152.658 65.2027C152.584 65.3491 152.724 65.2294 152.969 64.937C153.214 64.6446 153.378 64.3464 153.334 64.2738C153.289 64.2017 153.343 64.0023 153.452 63.8309C153.634 63.5485 153.643 63.5527 153.548 63.8739C153.484 64.0895 153.678 63.9506 154.044 63.5193C154.375 63.1298 154.649 62.7398 154.653 62.6535C154.657 62.5667 154.759 62.4353 154.879 62.3607C155.04 62.2618 154.909 61.9219 154.396 61.1006C152.659 58.3224 151.915 55.5675 151.697 51.1168L151.584 48.8136L151.268 49.3946ZM148.165 52.1808C147.941 52.6425 147.804 53.0667 147.862 53.1238C147.918 53.1809 148.015 53.0358 148.077 52.8018C148.181 52.4027 148.197 52.3977 148.338 52.7209C148.455 52.9883 148.468 52.9599 148.398 52.5933C148.346 52.3259 148.392 52.0919 148.504 52.0548C148.612 52.0189 148.672 51.8433 148.636 51.6652C148.591 51.4367 148.452 51.5877 148.165 52.1808ZM147.35 54.1511C147.193 54.612 147.071 55.0749 147.078 55.1792C147.085 55.2839 147.244 54.9369 147.432 54.4089C147.619 53.8808 147.742 53.4179 147.705 53.3803C147.667 53.3432 147.508 53.6898 147.35 54.1511ZM207.145 55.4132C207.232 57.1913 207.307 57.3656 207.334 55.8566C207.349 55.0524 207.301 54.3947 207.228 54.3947C207.154 54.3943 207.117 54.8526 207.145 55.4132ZM197.075 58.913C197.703 59.5461 198.257 60.0646 198.306 60.0646C198.355 60.0646 197.88 59.5461 197.252 58.913C196.624 58.2794 196.07 57.761 196.021 57.761C195.972 57.761 196.446 58.2794 197.075 58.913ZM206.381 60.1238C206.451 60.4516 206.424 60.5859 206.302 60.5109C206.018 60.3353 205.872 60.9213 206.092 61.3588C206.268 61.7096 206.277 61.6954 206.189 61.2162C206.122 60.8533 206.144 60.7603 206.259 60.923C206.51 61.2791 206.713 60.3094 206.468 59.9249C206.31 59.6784 206.294 59.7155 206.381 60.1238ZM184.534 65.5109C185.099 65.5464 185.977 65.546 186.485 65.5105C186.994 65.4746 186.532 65.4459 185.459 65.4463C184.386 65.4467 183.97 65.4759 184.534 65.5109ZM184.971 69.5834C185.288 69.6226 185.807 69.6226 186.124 69.5834C186.441 69.5442 186.182 69.5116 185.548 69.5116C184.913 69.5116 184.654 69.5442 184.971 69.5834ZM149.152 74.3674C149.47 74.4066 149.949 74.4062 150.215 74.3657C150.482 74.3253 150.221 74.2927 149.636 74.294C149.051 74.2948 148.833 74.3278 149.152 74.3674ZM156.341 76.8082C156.342 77.393 156.375 77.6107 156.415 77.292C156.454 76.9738 156.454 76.4954 156.413 76.2293C156.373 75.9628 156.34 76.2234 156.341 76.8082ZM143.473 77.9106C143.791 77.9502 144.309 77.9502 144.626 77.9106C144.943 77.8718 144.684 77.8393 144.05 77.8393C143.416 77.8393 143.156 77.8718 143.473 77.9106ZM143.654 79.86C143.973 79.8993 144.451 79.8988 144.718 79.8584C144.984 79.8179 144.724 79.7854 144.138 79.7866C143.553 79.7875 143.335 79.8204 143.654 79.86ZM208.489 82.7438C208.489 83.6693 208.519 84.0485 208.555 83.5855C208.592 83.1225 208.592 82.3651 208.555 81.9021C208.519 81.4391 208.489 81.8179 208.489 82.7438ZM108.3 87.6162C108.3 89.3701 108.327 90.0641 108.359 89.1574C108.391 88.251 108.391 86.8163 108.359 85.9683C108.326 85.1208 108.3 85.862 108.3 87.6162ZM160.963 87.8819C160.963 88.905 160.992 89.3238 161.028 88.812C161.064 88.3007 161.064 87.4632 161.028 86.9518C160.992 86.44 160.963 86.8588 160.963 87.8819ZM194.359 90.495C196.23 90.5238 199.342 90.5238 201.275 90.4954C203.208 90.4666 201.677 90.4433 197.873 90.4433C194.069 90.4428 192.488 90.4666 194.359 90.495ZM212.56 98.1586C212.56 98.7917 212.593 99.0512 212.632 98.7342C212.671 98.4176 212.671 97.8996 212.632 97.5826C212.593 97.266 212.56 97.525 212.56 98.1586ZM146.976 102.565C147.268 102.888 147.747 103.317 148.04 103.519C148.669 103.952 148.527 103.799 147.331 102.754C146.676 102.181 146.583 102.132 146.976 102.565ZM145.108 103.342C145.74 103.999 146.291 104.537 146.333 104.537C146.375 104.537 146.279 104.392 146.119 104.216C145.959 104.039 145.887 103.82 145.958 103.728C146.031 103.637 146.013 103.623 145.919 103.697C145.826 103.771 145.347 103.452 144.855 102.988C144.29 102.456 144.383 102.586 145.108 103.342ZM127.906 105.556L126.936 106.575L127.956 105.606C128.903 104.706 129.057 104.537 128.925 104.537C128.898 104.537 128.439 104.996 127.906 105.556ZM131.897 107.416L130.66 108.701L131.946 107.466C133.141 106.318 133.313 106.132 133.183 106.132C133.156 106.132 132.577 106.71 131.897 107.416ZM183.597 108.701C184.225 109.334 184.779 109.853 184.828 109.853C184.877 109.853 184.402 109.334 183.774 108.701C183.146 108.067 182.592 107.549 182.543 107.549C182.494 107.549 182.968 108.067 183.597 108.701ZM187.986 112.817C188.401 112.854 189.079 112.854 189.493 112.817C189.908 112.78 189.569 112.749 188.74 112.749C187.911 112.749 187.571 112.78 187.986 112.817ZM169.11 128.013C169.111 128.598 169.144 128.816 169.183 128.498C169.223 128.179 169.222 127.701 169.182 127.434C169.141 127.168 169.109 127.429 169.11 128.013ZM124.902 128.548C125.631 129.329 126.263 129.944 126.307 129.914C126.352 129.885 125.756 129.245 124.983 128.494L123.578 127.128L124.902 128.548ZM131.364 129.741L130.306 130.848L131.414 129.791C132.444 128.808 132.604 128.634 132.473 128.634C132.445 128.634 131.946 129.132 131.364 129.741ZM114.874 132.399L112.926 134.392L114.921 132.446C116.774 130.639 116.997 130.405 116.869 130.405C116.843 130.405 115.945 131.303 114.874 132.399ZM213.651 131.69L212.415 132.975L213.701 131.739C214.895 130.591 215.067 130.405 214.937 130.405C214.91 130.405 214.331 130.983 213.651 131.69ZM186.858 133.772C186.858 135.088 186.886 135.626 186.921 134.968C186.955 134.31 186.955 133.234 186.921 132.576C186.886 131.918 186.858 132.456 186.858 133.772ZM122.943 145.421L121.261 147.149L122.99 145.469C123.942 144.546 124.719 143.768 124.719 143.742C124.719 143.613 124.504 143.817 122.943 145.421ZM125.159 149.054L123.744 150.516L125.207 149.102C126.566 147.79 126.751 147.592 126.622 147.592C126.595 147.592 125.937 148.25 125.159 149.054ZM166.169 149.315C166.484 149.354 167.043 149.354 167.411 149.316C167.779 149.277 167.521 149.246 166.838 149.245C166.155 149.244 165.854 149.275 166.169 149.315ZM116.292 152.066L114.7 153.705L116.34 152.114C117.242 151.239 117.981 150.502 117.981 150.475C117.981 150.346 117.771 150.544 116.292 152.066Z" fill="#789497"/>
<path fill-rule="evenodd" clip-rule="evenodd" d="M169.361 25.2877C169.676 25.3269 170.235 25.3274 170.603 25.2891C170.971 25.2507 170.713 25.2187 170.03 25.2179C169.347 25.2172 169.046 25.2485 169.361 25.2877ZM213.656 43.0553C214.235 43.6396 214.749 44.118 214.798 44.118C214.847 44.118 214.413 43.6396 213.834 43.0553C213.254 42.4705 212.741 41.9921 212.692 41.9921C212.643 41.9921 213.077 42.4705 213.656 43.0553ZM147.98 52.9903C147.765 53.4817 147.381 54.5769 147.126 55.4236C146.532 57.399 146.459 60.2948 146.949 62.4566C147.329 64.1337 148.885 67.4412 149.366 67.5935C149.683 67.694 150.612 67.5451 150.612 67.3941C150.612 67.3532 150.341 66.7839 150.012 66.1286C148.537 63.1978 147.864 59.8106 148.016 56.078C148.071 54.7137 148.194 53.2806 148.29 52.8936C148.532 51.9147 148.437 51.9443 147.98 52.9903ZM149.753 54.2174C149.093 57.6755 149.627 61.7067 151.16 64.8215L151.887 66.3009L152.269 65.7407C152.479 65.4325 152.87 64.8957 153.138 64.547C153.406 64.1988 153.621 63.8251 153.614 63.7166C153.608 63.6082 153.515 63.6987 153.41 63.9181C153.304 64.1375 153.162 64.3168 153.095 64.3168C152.87 64.3168 152.55 63.3934 152.644 63.0117C152.695 62.804 152.691 62.7335 152.634 62.8549C152.489 63.1719 152.149 63.1302 152.272 62.8107C152.328 62.6647 152.3 62.545 152.21 62.545C152.12 62.545 151.994 62.266 151.93 61.9248C151.866 61.5836 151.75 61.3046 151.671 61.3046C151.593 61.3046 151.551 61.1056 151.578 60.8616C151.605 60.6181 151.558 60.4187 151.474 60.4187C151.39 60.4187 151.321 60.2644 151.321 60.075C151.321 59.8856 151.248 59.6859 151.158 59.6308C151.069 59.5753 151.018 59.2546 151.044 58.918C151.071 58.581 151.031 58.2828 150.956 58.2548C150.814 58.2027 150.565 56.41 150.538 55.251C150.53 54.8939 150.484 54.6399 150.437 54.6875C150.389 54.7346 150.266 54.3888 150.162 53.9196L149.974 53.0658L149.753 54.2174ZM206.893 54.7096C207.101 55.0453 205.917 56.5781 204.042 58.4021L202.928 59.4857L203.296 59.9541C203.499 60.2114 203.751 60.3691 203.856 60.3044C203.97 60.2335 203.995 60.2702 203.916 60.3966C203.769 60.6343 204.822 61.9235 205.166 61.9273C205.286 61.9286 205.45 62.0007 205.53 62.0883C205.613 62.1784 205.585 62.1955 205.467 62.1275C205.146 61.944 205.024 62.2985 205.323 62.5463C205.544 62.7294 205.642 62.6405 205.937 61.9903C206.131 61.5644 206.285 61.0965 206.28 60.9505C206.274 60.7728 206.218 60.802 206.11 61.0389C205.965 61.3571 205.953 61.348 205.993 60.9505C206.018 60.7069 206.139 60.528 206.26 60.553C206.414 60.5847 206.449 60.4491 206.375 60.11C206.302 59.7801 206.322 59.698 206.434 59.8573C206.553 60.0241 206.686 59.7564 206.892 58.9347C207.232 57.5842 207.287 54.8343 206.979 54.6437C206.856 54.5682 206.822 54.5949 206.893 54.7096ZM144.567 60.5388C143.851 61.3204 142.521 63.1014 142.142 63.7854C141.953 64.1262 141.551 64.844 141.248 65.38C140.512 66.6817 139.586 68.9156 139.578 69.4107C139.575 69.6301 139.512 69.8094 139.439 69.8094C139.366 69.8094 139.36 70.0685 139.424 70.3854C139.489 70.702 139.579 70.9544 139.623 70.9456C140.146 70.8476 141.578 70.2728 141.708 70.1098C141.8 69.9934 141.978 69.5792 142.102 69.1892C142.503 67.938 143.982 64.9291 144.757 63.7892L145.508 62.6826L145.315 61.6837C145.208 61.134 145.099 60.5392 145.073 60.3615C145.032 60.0825 144.963 60.1063 144.567 60.5388ZM136.624 76.5559C136.204 76.724 136.204 76.724 136.874 77.2562C137.958 78.1174 138.72 78.5329 139.009 78.4219C139.158 78.3652 139.236 78.3885 139.183 78.4745C139.13 78.5608 139.415 78.7623 139.816 78.9224C141.126 79.4463 142.691 79.7262 144.322 79.7291C145.861 79.7316 145.926 79.7157 145.945 79.3328C145.956 79.1134 145.929 79.0254 145.885 79.1368C145.842 79.2486 145.646 79.2978 145.45 79.2465C145.206 79.1827 145.13 79.063 145.21 78.867C145.273 78.7089 145.364 78.4862 145.411 78.3715C145.468 78.2334 145.366 78.1967 145.113 78.263C144.831 78.3368 144.79 78.4011 144.961 78.5062C145.088 78.585 145.129 78.7122 145.052 78.7894C144.975 78.8661 144.767 78.7368 144.59 78.5016C144.412 78.2663 144.118 78.0595 143.937 78.0415C143.171 77.9656 141.34 77.5723 140.697 77.3454C140.315 77.2111 139.96 77.1435 139.908 77.1957C139.856 77.2482 139.209 77.0826 138.472 76.8278C137.734 76.5734 137.111 76.3703 137.087 76.3765C137.064 76.3824 136.856 76.4633 136.624 76.5559ZM204.401 83.0095C204.402 83.5942 204.435 83.812 204.474 83.4937C204.514 83.1751 204.513 82.6967 204.473 82.4306C204.432 82.164 204.4 82.4247 204.401 83.0095ZM138.859 86.9472C138.881 89.1307 138.986 91.2507 139.091 91.6582C140.29 96.2967 142.116 99.9454 144.59 102.642C145.539 103.677 145.725 103.808 145.976 103.612C146.232 103.412 146.239 103.421 146.034 103.682C145.83 103.943 145.917 104.072 146.743 104.725C147.261 105.135 148.244 105.844 148.927 106.301C150.553 107.39 150.693 107.47 150.546 107.233C150.48 107.126 150.568 106.957 150.741 106.857C151.03 106.688 151.026 106.673 150.691 106.668C150.491 106.666 150.22 106.564 150.089 106.442C149.895 106.262 149.874 106.271 149.978 106.486C150.048 106.632 149.982 106.6 149.832 106.416C149.508 106.017 149.645 105.667 150.007 105.968C150.186 106.117 150.257 106.119 150.257 105.976C150.257 105.867 150.169 105.777 150.06 105.777C149.952 105.777 149.909 105.66 149.964 105.517C150.019 105.373 149.942 105.134 149.793 104.985C149.644 104.836 149.587 104.714 149.666 104.714C149.745 104.714 149.289 104.365 148.652 103.939C146.823 102.713 145.078 100.581 143.769 97.9755C142.377 95.2064 140.976 89.896 140.446 85.389L140.237 83.6126L139.527 83.2952L138.818 82.9778L138.859 86.9472ZM153.272 84.4964C153.272 84.6157 153.2 84.6695 153.113 84.6153C153.025 84.5615 152.409 84.8351 151.743 85.2242C151.077 85.6129 150.141 86.0609 149.662 86.2194L148.792 86.508L148.913 88.568C149.233 94.0156 150.44 98.2499 152.436 100.934C153.163 101.912 153.424 102.11 154.901 102.81C155.809 103.242 156.951 103.74 157.439 103.919C157.927 104.098 158.445 104.326 158.592 104.428C158.738 104.529 158.648 104.376 158.391 104.087C156.283 101.714 154.175 96.1895 153.61 91.5577C153.5 90.6568 153.374 89.8001 153.33 89.6537C153.203 89.237 153.235 84.8951 153.366 84.6824C153.432 84.5777 153.437 84.4443 153.378 84.3855C153.319 84.3271 153.272 84.3771 153.272 84.4964ZM223.567 87.0849C223.567 88.254 223.595 88.7094 223.63 88.0967C223.665 87.4836 223.665 86.5268 223.63 85.9704C223.595 85.414 223.566 85.9153 223.567 87.0849ZM232.432 87.5278C232.432 88.5509 232.461 88.9693 232.497 88.4579C232.533 87.9461 232.533 87.109 232.497 86.5973C232.461 86.0859 232.432 86.5043 232.432 87.5278ZM226.573 87.3505C226.573 88.0813 226.605 88.3803 226.643 88.015C226.681 87.6496 226.681 87.0515 226.643 86.6861C226.605 86.3207 226.573 86.6194 226.573 87.3505ZM134.658 95.9055C132.331 97.0616 130.753 99.3469 130.687 101.656C130.673 102.167 130.601 102.586 130.528 102.587C130.454 102.587 130.394 102.681 130.394 102.795C130.394 102.91 130.255 103.168 130.084 103.37C129.914 103.572 130.133 103.417 130.572 103.026C131.697 102.024 133.965 100.465 135.582 99.5842C136.338 99.1725 136.956 98.7646 136.956 98.6787C136.956 98.5928 136.726 97.9421 136.445 97.233C136.163 96.524 135.904 95.807 135.868 95.6402C135.811 95.3732 135.666 95.4049 134.658 95.9055ZM128.086 98.7342C127.775 99.5383 127.428 100.732 127.314 101.387C127.18 102.156 126.992 102.662 126.783 102.815C126.541 102.991 126.373 103.59 126.122 105.167C125.936 106.331 125.742 107.483 125.69 107.726C125.611 108.097 125.705 108.038 126.263 107.372C126.63 106.933 127.343 106.136 127.848 105.6C128.587 104.814 128.766 104.505 128.769 104.005C128.775 103.205 129.412 99.9796 129.843 98.5673C130.028 97.9638 130.134 97.4257 130.079 97.3715C130.025 97.3169 129.682 97.2727 129.317 97.2727H128.652L128.086 98.7342ZM132.964 107.198C132.903 107.297 132.779 107.332 132.688 107.276C132.597 107.22 132.523 107.263 132.523 107.372C132.523 107.481 132.439 107.518 132.337 107.455C132.059 107.284 129.996 109.508 128.885 111.178C128.347 111.985 127.517 113.433 127.042 114.394C126.211 116.074 125.074 119.023 125.074 119.501C125.074 119.741 126.488 121.528 127.908 123.081C128.517 123.748 128.723 123.891 128.67 123.612C128.629 123.401 128.772 122.392 128.986 121.369C129.201 120.346 129.39 119.388 129.406 119.24C129.423 119.092 129.48 118.893 129.534 118.797C129.588 118.701 129.895 117.808 130.217 116.812C130.54 115.816 131.41 113.766 132.151 112.256L133.498 109.511L133.01 109.57C132.527 109.628 132.358 109.443 132.7 109.232C133.002 109.045 132.899 108.886 132.307 108.624C131.994 108.485 131.83 108.341 131.942 108.303C132.056 108.265 132.312 108.323 132.513 108.43C132.713 108.537 132.877 108.552 132.877 108.462C132.877 108.373 132.703 108.253 132.489 108.198C132.118 108.101 132.128 108.073 132.711 107.56C133.046 107.265 133.265 107.022 133.198 107.02C133.131 107.019 133.025 107.098 132.964 107.198ZM181.735 109.84C179.956 110.579 178.105 111.085 177.087 111.109C176.234 111.129 179.868 111.839 182.888 112.242C184.107 112.404 186.341 112.574 187.853 112.618L190.602 112.698L189.183 112.193C187.271 111.512 186.161 110.923 184.972 109.955C184.424 109.509 183.831 109.151 183.653 109.16C183.476 109.169 182.613 109.475 181.735 109.84ZM164.11 110.738C164.069 113.706 163.26 116.91 161.797 119.906C160.551 122.454 158.299 125.413 156.747 126.538C156.367 126.813 156.159 127.039 156.286 127.039C156.412 127.039 156.851 127.314 157.262 127.65L158.008 128.261L158.876 127.256C161.364 124.378 163.082 121.061 164.022 117.319C164.416 115.751 164.494 115.061 164.483 113.219C164.476 112.001 164.393 110.605 164.3 110.118C164.134 109.247 164.131 109.257 164.11 110.738ZM146.71 117.235C144.004 117.708 143.027 118.216 144.344 118.462C144.713 118.532 145.437 118.775 145.952 119.003C146.467 119.23 146.948 119.408 147.021 119.399C147.172 119.379 148.483 117.353 148.483 117.139C148.483 116.951 148.265 116.962 146.71 117.235ZM187.188 119.019C187.651 119.056 188.41 119.056 188.873 119.019C189.336 118.983 188.957 118.953 188.03 118.953C187.104 118.953 186.725 118.983 187.188 119.019ZM162.166 127.568C161.839 128.049 161.6 128.518 161.634 128.611C161.693 128.775 163.712 130.937 163.806 130.937C163.953 130.937 163.48 128.439 163.18 127.639C162.983 127.114 162.808 126.687 162.791 126.689C162.774 126.692 162.492 127.087 162.166 127.568ZM119.485 132.753L117.537 134.746L119.532 132.8C120.63 131.73 121.528 130.833 121.528 130.807C121.528 130.679 121.294 130.902 119.485 132.753ZM120.641 140.062C119.914 140.793 119.359 141.391 119.408 141.391C119.457 141.391 120.091 140.793 120.818 140.062C121.545 139.331 122.099 138.733 122.051 138.733C122.002 138.733 121.367 139.331 120.641 140.062ZM118.064 142.675L117.005 143.783L118.114 142.725C119.143 141.743 119.303 141.568 119.172 141.568C119.145 141.568 118.646 142.066 118.064 142.675ZM167.418 143.645C167.736 143.685 168.215 143.684 168.482 143.644C168.748 143.603 168.487 143.571 167.902 143.572C167.317 143.573 167.099 143.606 167.418 143.645ZM119.75 154.635L118.069 156.363L119.798 154.683C120.749 153.759 121.528 152.982 121.528 152.955C121.528 152.827 121.312 153.03 119.75 154.635Z" fill="#A4C5CC"/>
<path fill-rule="evenodd" clip-rule="evenodd" d="M165.475 34.241C164.725 34.3356 164.077 34.5045 164.034 34.6161C163.991 34.7279 164.023 35.2173 164.106 35.7037C164.188 36.19 164.343 37.186 164.449 37.9168C164.556 38.6477 164.718 39.6776 164.81 40.2055C164.901 40.7333 164.976 41.4645 164.976 41.8303C164.976 42.4242 164.919 42.5076 164.448 42.6111C163.494 42.8205 163.254 42.6194 163.125 41.4991C162.997 40.3991 162.599 37.7772 162.291 36.0103C162.127 35.0697 162.034 34.8852 161.678 34.7959C161.447 34.738 161.005 34.7788 160.696 34.8863C160.388 34.9939 159.933 35.0819 159.686 35.0819C159.439 35.0819 158.993 35.1564 158.693 35.2471C158.393 35.338 157.829 35.4916 157.439 35.5887C154.696 36.2708 150.966 37.5603 150.965 37.8274C150.963 38.1736 151.57 39.6887 151.711 39.6887C151.789 39.6887 151.853 39.8091 151.853 39.9563C151.853 40.2312 152.195 41.0668 153.107 43.014C153.392 43.625 153.626 44.2344 153.626 44.3679C153.626 44.5017 153.925 44.7311 154.291 44.878C155.079 45.1937 156.109 46.1301 156.109 46.5309C156.109 46.7286 156.202 46.777 156.419 46.6919C156.59 46.6251 157.089 46.4483 157.528 46.2994C157.966 46.1505 158.406 45.9674 158.503 45.8931C158.601 45.8185 158.92 45.7142 159.213 45.6612C159.505 45.6083 160.064 45.4773 160.454 45.3697C163.678 44.4838 167.313 43.9445 170.075 43.9424L172.07 43.9412L171.715 43.5866C171.299 43.1708 171.286 42.8526 171.56 39.8658C171.774 37.5357 171.914 37.2081 172.703 37.2081C173.429 37.2081 173.541 37.5952 173.505 40.0019C173.471 42.3033 173.238 43.7639 172.906 43.7639C172.804 43.7639 172.759 43.8031 172.807 43.8507C172.855 43.8986 173.925 44.0555 175.186 44.1993C177.534 44.4675 178.757 44.659 180.316 45.0031C182.164 45.4106 182.48 45.4965 183.822 45.9528C184.58 46.2106 185.343 46.4216 185.517 46.4216C185.822 46.4216 186.151 45.8268 187.307 43.1879C187.51 42.7249 187.83 42.0075 188.019 41.5933C189.114 39.1883 189.449 38.3654 189.449 38.0777C189.449 37.7552 188.306 37.1323 187.331 36.9232C187.082 36.8698 186.718 36.7607 186.523 36.6806C185.644 36.3201 184.317 35.9434 182.533 35.5485C181.899 35.4081 180.779 35.1581 180.045 34.993C179.31 34.8279 178.512 34.7205 178.271 34.7545C177.877 34.81 177.822 34.9217 177.719 35.8793C177.656 36.4639 177.512 37.6599 177.399 38.5369C177.287 39.414 177.148 40.6488 177.091 41.2808C176.982 42.4985 176.738 42.8622 176.02 42.8722C175.284 42.8826 175.07 42.2457 175.275 40.6566C175.711 37.2786 175.803 36.5281 175.902 35.5178L176.008 34.4476L174.261 34.2316C172.253 33.9832 167.477 33.9883 165.475 34.241ZM156.996 38.4484C156.837 38.8311 156.826 39.1163 156.957 39.4672C157.057 39.7351 157.313 40.5524 157.526 41.2833C158.255 43.7877 158.285 43.8473 158.873 43.9053C159.238 43.9412 159.514 43.8411 159.741 43.59C160.123 43.1683 160.113 43.0991 159.1 39.5115C158.771 38.3435 158.424 37.9289 157.771 37.9223C157.319 37.9179 157.175 38.0157 156.996 38.4484ZM181.625 38.2738C181.297 38.4638 181.104 38.9165 180.61 40.6631C179.812 43.4769 179.822 43.414 180.154 43.7806C180.465 44.1243 181.044 44.2181 181.4 43.9825C181.508 43.9111 181.686 43.5733 181.797 43.2321C181.907 42.8914 182.237 41.8853 182.531 40.9964C183.118 39.2203 183.176 38.7575 182.843 38.4918C182.473 38.1957 181.928 38.0983 181.625 38.2738ZM146.71 39.5418C145.686 40.0366 144.808 40.4913 144.759 40.5522C144.71 40.6132 144.152 40.9346 143.518 41.2663C142.884 41.598 142.236 42.0163 142.078 42.1965C141.92 42.3762 141.694 42.5235 141.573 42.5235C141.292 42.5235 140.835 42.8405 138.464 44.6811C136.358 46.3152 136.447 46.1263 137.337 47.0802C139.859 49.7808 140.667 50.6388 141.322 51.3078C142.951 52.9728 143.333 53.8449 142.707 54.4706C142.223 54.9544 141.765 54.7813 140.808 53.7532C140.299 53.2056 139.124 51.9731 138.197 51.0146C137.271 50.0557 136.249 48.9487 135.926 48.555C135.604 48.1613 135.192 47.8389 135.01 47.8389C134.651 47.8389 132.053 50.3322 130.217 52.4402C129.583 53.1676 128.885 53.9642 128.665 54.2099C128.446 54.456 128.266 54.7054 128.266 54.7646C128.266 54.8239 128.097 55.0637 127.891 55.2977C127.684 55.5321 127.328 56.0159 127.1 56.3729C126.871 56.7304 126.602 57.0741 126.5 57.1366C126.271 57.2776 126.255 57.9383 126.48 57.9383C126.571 57.9383 126.75 58.0425 126.879 58.1706C127.008 58.2978 128.351 59.235 129.863 60.2523C131.374 61.2696 132.691 62.1638 132.789 62.2397C132.886 62.3152 133.365 62.6322 133.853 62.9442C135.03 63.6966 135.183 63.8601 135.183 64.3656C135.183 65.0088 134.613 65.4388 133.953 65.294C133.654 65.2281 133.409 65.1064 133.409 65.0234C133.409 64.9404 133.26 64.8248 133.076 64.7668C132.893 64.7085 132.514 64.464 132.234 64.2234C131.954 63.9827 131.625 63.7858 131.503 63.7854C131.381 63.7854 131.281 63.7191 131.281 63.6382C131.281 63.5573 131.062 63.3775 130.794 63.2395C130.525 63.1014 130.151 62.8482 129.962 62.6781C129.773 62.5075 129.52 62.3678 129.4 62.3678C129.281 62.3678 129.156 62.3027 129.123 62.2226C129.091 62.1429 128.546 61.7309 127.912 61.3075C127.278 60.8837 126.497 60.3115 126.176 60.035C125.492 59.4448 125.077 59.3947 124.948 59.8873C124.897 60.0821 124.785 60.2418 124.699 60.2418C124.613 60.2418 124.542 60.3645 124.542 60.515C124.542 60.6652 124.383 60.9592 124.188 61.1682C123.992 61.3776 123.833 61.6533 123.833 61.7813C123.833 61.909 123.77 62.0136 123.692 62.0136C123.493 62.0136 120.995 67.3203 120.995 67.7444C120.995 67.8666 120.921 68.0427 120.831 68.1353C120.567 68.4064 119.222 72.6344 119.222 73.195C119.222 73.4769 119.151 73.7076 119.064 73.7076C118.977 73.7076 118.866 73.9666 118.816 74.2831C118.767 74.6001 118.609 75.3376 118.467 75.9223C118.324 76.5071 118.119 77.5435 118.012 78.2255C117.412 82.0252 117.39 82.2437 117.599 82.3726C117.712 82.4427 119.341 82.6007 121.218 82.7234C127.508 83.1355 128.854 83.2597 129.039 83.4449C129.241 83.6464 129.261 84.8217 129.066 85.0153C128.908 85.1713 125.11 85.0841 122.946 84.8743C122.02 84.7846 120.369 84.6587 119.278 84.5948L117.294 84.4785L117.171 85.1354C117.023 85.922 117.173 91.0284 117.357 91.4697C117.506 91.8272 118.782 91.8935 120.233 91.6195C122.642 91.1644 124.566 91.0226 125.253 91.2491C125.928 91.4714 125.951 91.4639 126.747 90.7644C127.738 89.8931 130.143 88.6857 131.459 88.3987C131.995 88.2819 132.744 88.1122 133.122 88.0212L133.811 87.8556L133.699 86.6728C133.638 86.0221 133.535 84.1473 133.471 82.5061C133.376 80.0678 133.305 79.5034 133.083 79.4183C132.514 79.2002 130.065 76.5354 129.858 75.909C129.619 75.1853 129.732 74.3445 130.12 73.9566C130.392 73.6842 131.528 73.1457 131.99 73.0694C132.137 73.0452 132.67 72.9284 133.175 72.8096L134.094 72.5939L134.47 71.1575C134.677 70.3671 134.926 69.5154 135.023 69.2647C135.121 69.0136 135.213 68.6349 135.229 68.423C135.245 68.2112 135.321 68.0377 135.398 68.0377C135.475 68.0377 135.537 67.9246 135.537 67.7866C135.537 67.6485 135.693 67.1735 135.882 66.7309C136.072 66.2884 136.252 65.7833 136.282 65.6089C136.311 65.4342 136.385 65.2515 136.446 65.2027C136.506 65.1539 136.816 64.5958 137.135 63.9627C137.453 63.3291 138.022 62.3469 138.399 61.7792C138.776 61.2124 139.084 60.6827 139.084 60.6022C139.084 60.5221 139.324 60.2001 139.616 59.8873C139.909 59.5745 140.148 59.2429 140.148 59.1503C140.148 59.0577 140.387 58.7274 140.679 58.4158C140.972 58.1047 141.211 57.7931 141.211 57.7239C141.214 57.4436 145.197 53.5267 145.576 53.4312C145.828 53.3682 146.098 53.0733 146.277 52.6658C146.888 51.2794 147.335 50.406 147.463 50.3489C147.537 50.3164 147.597 50.195 147.597 50.0791C147.597 49.848 150.077 46.6114 150.821 45.8715C151.077 45.6175 151.413 45.3609 151.569 45.3013C151.939 45.1595 151.928 44.9901 151.477 43.9833C151.271 43.5216 150.983 42.8647 150.839 42.5235C150.694 42.1823 150.384 41.509 150.15 41.027C149.916 40.5449 149.725 40.0467 149.725 39.9197C149.725 39.7926 149.645 39.6887 149.547 39.6887C149.45 39.6887 149.37 39.5634 149.37 39.4103C149.37 39.1114 148.957 38.6202 148.717 38.6339C148.638 38.6385 147.734 39.047 146.71 39.5418ZM190.793 39.9624C190.444 40.7062 190.158 41.3492 190.158 41.3913C190.158 41.4333 189.839 42.1423 189.449 42.9664C189.059 43.791 188.74 44.5864 188.74 44.7349C188.74 44.883 188.66 45.0039 188.563 45.0039C188.465 45.0039 188.385 45.1086 188.385 45.2366C188.385 45.5332 187.679 47.0097 187.474 47.1415C187.341 47.227 187.999 47.5673 189.981 48.4366C190.225 48.5437 190.784 48.8445 191.223 49.1051C191.661 49.3658 192.441 49.8092 192.955 50.0907L193.889 50.6025L195.36 49.1323C196.935 47.5586 197.339 47.3897 197.955 48.0495C198.459 48.5909 198.398 49.0926 197.763 49.6107C196.202 50.8853 195.834 51.2723 195.834 51.6369C195.834 52.0602 196.563 52.8001 196.981 52.8001C197.123 52.8001 197.98 52.0953 198.886 51.234C201.127 49.1035 202.716 47.6186 203.459 46.9626L204.08 46.4141L203.619 46.0191C202.648 45.1878 201.946 44.6561 201.817 44.6527C201.743 44.6511 201.432 44.4104 201.126 44.118C200.82 43.8256 200.468 43.5866 200.344 43.5866C200.22 43.5866 200.093 43.522 200.06 43.4436C199.909 43.077 196.448 40.9688 193.971 39.7338C191.3 38.4021 191.532 38.3855 190.793 39.9624ZM142.489 47.8743C142.061 48.3018 142.252 49.0526 142.986 49.8309C143.376 50.2446 143.695 50.64 143.695 50.7093C143.695 50.8744 144.497 51.6719 144.877 51.8842C145.065 51.9897 145.361 51.9868 145.677 51.8767C146.45 51.6077 146.335 50.9762 145.247 49.5222C144.737 48.8399 144.159 48.145 143.963 47.9778C143.547 47.6228 142.794 47.5698 142.489 47.8743ZM205.41 47.9944C205.41 48.1037 205.302 48.1934 205.169 48.1934C204.951 48.1934 203.819 49.1869 200.982 51.8663C200.125 52.6758 200.053 52.7935 200.413 52.7964C201.019 52.8018 203.134 52.0527 205.055 51.1522C205.982 50.718 206.92 50.308 207.139 50.2409C207.691 50.0715 207.648 49.9251 206.784 49.0463C205.787 48.0311 205.41 47.7429 205.41 47.9944ZM211.172 56.2328C211.1 57.5691 211.086 58.7074 211.141 58.7624C211.196 58.8175 211.843 58.4876 212.579 58.0292C214.038 57.1212 214.038 57.1212 213.134 56.0947C212.885 55.8115 212.68 55.5325 212.678 55.4745C212.677 55.4165 212.366 55.0166 211.989 54.5857L211.302 53.8024L211.172 56.2328ZM136.703 54.6729C136.368 55.0078 136.341 55.6414 136.646 56.0197C136.768 56.1711 137.366 56.7446 137.974 57.2939C139.184 58.3854 139.772 58.5476 140.218 57.912C140.586 57.3865 140.311 56.901 138.851 55.502C137.668 54.3676 137.192 54.184 136.703 54.6729ZM214.625 59.0239C214.482 59.1015 213.846 59.4669 213.211 59.836C212.576 60.2056 211.838 60.6206 211.57 60.759C211.303 60.8971 211.085 61.0764 211.085 61.1574C211.085 61.2387 210.96 61.3046 210.808 61.3046C210.656 61.3046 210.581 61.3847 210.641 61.4818C210.702 61.5794 210.682 61.6591 210.597 61.6591C210.512 61.6591 210.342 62.0779 210.219 62.5892C210.097 63.101 209.908 63.6987 209.801 63.9176C209.694 64.137 209.651 64.3614 209.706 64.4161C209.879 64.5883 212.35 65.4671 213.892 65.9042L215.369 66.323L216.774 65.639C217.794 65.1418 218.178 64.8628 218.178 64.6184C218.178 64.3222 216.843 61.5357 216.591 61.3046C216.537 61.2562 216.394 61.0368 216.272 60.8174C215.714 59.8131 215.584 59.6175 215.245 59.2621C215.009 59.0144 214.794 58.9318 214.625 59.0239ZM218.573 66.8961C218.165 67.1818 218.046 67.7578 218.356 67.9492C218.454 68.0093 218.533 68.4956 218.533 69.0299C218.533 69.8507 218.444 70.1206 217.957 70.7675C217.64 71.1888 217.252 71.6042 217.095 71.6901C216.211 72.1752 215.282 72.8905 215.459 72.9493C215.572 72.9868 216.163 72.8538 216.773 72.6536C217.383 72.4538 217.956 72.2899 218.047 72.2899C218.137 72.2899 218.804 72.0801 219.528 71.8227L220.846 71.3556L220.73 70.7154C220.667 70.3633 220.557 69.9955 220.487 69.8979C220.416 69.8007 220.249 69.3423 220.116 68.8793C219.983 68.4164 219.812 68.0377 219.736 68.0377C219.66 68.0377 219.597 67.9217 219.597 67.7803C219.597 67.4558 219.222 66.6204 219.076 66.6204C219.016 66.6204 218.79 66.7443 218.573 66.8961ZM124.081 67.2873C123.974 67.3591 123.788 67.6022 123.67 67.8279C123.283 68.5607 123.786 68.9653 127.213 70.6816C130.403 72.2786 131.301 72.5535 131.778 72.0776C132.091 71.7648 132.037 71.0365 131.68 70.7562C131.249 70.4176 124.712 67.1509 124.471 67.1543C124.364 67.1559 124.188 67.2156 124.081 67.2873ZM213.687 73.8314C212.976 74.2131 212.849 74.3545 212.942 74.6635C213.003 74.8687 213.171 75.5148 213.315 76.0996C213.459 76.6839 213.654 77.4076 213.75 77.7066C213.844 78.0061 213.922 78.6538 213.922 79.1468C213.922 80.333 214.127 80.4873 215.403 80.2625C215.954 80.1654 216.857 80.0064 217.41 79.9088C219.035 79.6223 219.551 79.674 219.867 80.1558C220.194 80.6534 220.066 81.4179 219.626 81.5989C219.342 81.7153 217.653 81.9526 215.43 82.1882L214.366 82.3009L214.316 83.4524C214.25 84.9669 213.787 89.6445 213.658 90.0967C213.59 90.3398 213.727 90.6297 214.096 91.0184C214.69 91.6453 216.045 94.1708 216.048 94.6592C216.049 94.8298 216.13 94.9691 216.228 94.9691C216.325 94.9691 216.39 95.0287 216.372 95.1022C216.354 95.1751 216.445 96.0936 216.575 97.143C216.786 98.8418 216.853 99.0595 217.185 99.1292C217.39 99.1725 218.036 99.2931 218.622 99.3978C220.143 99.6693 221.256 99.9587 221.45 100.133C221.543 100.216 221.703 100.284 221.807 100.284C222.062 100.284 223.237 93.9522 223.023 93.7291C222.976 93.6803 222.206 93.5906 221.312 93.5301C217.885 93.297 216.486 93.1431 216.272 92.9742C216.013 92.7706 215.983 91.9832 216.22 91.609C216.408 91.3125 218.613 91.3104 220.649 91.6044C221.29 91.697 222.142 91.7746 222.543 91.7763L223.273 91.78L223.386 90.958C223.566 89.6462 223.517 84.056 223.31 82.3985C222.82 78.4565 222.522 76.842 221.864 74.5493C221.48 73.2142 221.441 73.2071 219.006 74.0154C215.571 75.1557 215.068 75.2533 214.637 74.8637C214.235 74.5009 214.166 73.8894 214.49 73.5658C214.79 73.2655 214.66 73.3084 213.687 73.8314ZM121.362 74.6673C121.057 75.0343 121.063 75.8034 121.372 76.0946C121.624 76.3319 124.251 77.1631 126.138 77.6036C126.479 77.6833 127.229 77.8776 127.804 78.0357C128.776 78.3031 128.872 78.3022 129.178 78.0253C129.656 77.5936 129.615 76.6551 129.109 76.4066C128.394 76.0558 123.241 74.6056 122.227 74.47C121.787 74.4112 121.525 74.4708 121.362 74.6673ZM189.981 92.1375C189.64 92.2226 189.141 92.3456 188.873 92.4111C188.605 92.4766 188.385 92.6005 188.385 92.6868C188.385 92.7727 188.226 92.8432 188.032 92.8432C187.838 92.8432 187.579 93.0025 187.457 93.1973C187.336 93.3925 187.126 93.5518 186.992 93.5518C186.624 93.5518 185.437 94.9311 185.1 95.7516C184.936 96.1495 184.73 96.6137 184.643 96.783C184.555 96.9519 184.481 97.231 184.478 97.4028C184.473 97.7002 184.461 97.7006 184.237 97.4053C183.889 96.9482 183.807 97.0158 183.693 97.8483C183.54 98.9673 184.034 102.313 184.326 102.133C184.412 102.079 184.483 102.236 184.483 102.48C184.483 103 184.828 103.828 185.044 103.828C185.126 103.828 185.193 103.928 185.193 104.05C185.193 104.172 185.373 104.483 185.592 104.741C185.811 105.001 186.19 105.456 186.434 105.753C186.678 106.05 186.958 106.297 187.057 106.301C187.155 106.306 187.324 106.449 187.431 106.622C187.661 106.989 190.288 108.314 191.311 108.579C192.984 109.012 194.592 109.143 198.159 109.14C202.073 109.137 203.82 108.98 205.22 108.509C206.279 108.152 207.893 107.336 207.893 107.158C207.893 107.081 207.993 107.017 208.115 107.015C208.423 107.013 209.829 105.684 210.613 104.653C211.386 103.638 212.149 102.043 212.149 101.441C212.149 101.207 212.229 100.965 212.326 100.905C212.424 100.845 212.503 100.102 212.501 99.2555C212.497 96.9474 211.935 95.5914 210.436 94.2734C209.995 93.8851 209.402 93.4642 209.118 93.3391C208.834 93.2136 208.602 93.0601 208.602 92.9979C208.602 92.9354 208.462 92.8382 208.292 92.7815C208.121 92.7247 207.662 92.5441 207.272 92.3802C206.649 92.1179 205.591 92.0758 198.582 92.032C194.193 92.0048 190.323 92.0524 189.981 92.1375ZM122.503 93.2031C121.917 93.2774 120.641 93.4325 119.665 93.5481C118.69 93.6636 117.855 93.7954 117.81 93.8405C117.633 94.0169 117.821 96.0252 118.163 97.6268C118.706 100.164 118.867 100.676 119.1 100.593C119.216 100.552 119.909 100.377 120.641 100.205C121.372 100.033 122.09 99.8324 122.236 99.7594C122.392 99.6814 122.581 99.1629 122.696 98.4939C123.025 96.5782 123.36 95.5464 124.204 93.845C124.39 93.4705 124.542 93.1318 124.542 93.0922C124.542 92.9975 123.816 93.0371 122.503 93.2031ZM187.999 94.7264C187.16 95.0742 186.612 96.1686 186.612 97.4937C186.612 98.2424 186.684 98.4726 186.974 98.6541C187.283 98.8459 187.413 98.8259 187.844 98.5194C188.662 97.9371 189.663 98.0326 190.481 98.7705C191.349 99.5542 191.874 99.4753 192.032 98.5377C192.189 97.5993 192.189 97.5951 192.032 96.9182C191.554 94.8506 189.885 93.9439 187.999 94.7264ZM207.272 95.7641C206.979 95.9017 206.619 96.1178 206.472 96.2446C205.818 96.8064 205.427 98.667 205.808 99.3986C206.043 99.8478 206.829 100.122 206.829 99.7552C206.829 99.6451 206.908 99.6042 207.006 99.6647C207.103 99.7248 207.183 99.6593 207.183 99.5191C207.183 99.3794 207.423 99.1654 207.715 99.0445C208.325 98.7921 209.063 99.0074 209.592 99.5921C210.007 100.05 210.279 100.017 210.524 99.4791C210.789 98.8989 210.787 97.8437 210.52 97.0775C210.272 96.3643 210.1 96.1741 209.356 95.7895C208.678 95.4392 207.983 95.4308 207.272 95.7641ZM216.405 101.328C216.405 101.534 216.412 101.753 216.42 101.815C216.428 101.877 216.354 101.979 216.255 102.04C216.155 102.101 216.043 102.349 216.005 102.591C215.967 102.833 215.803 103.34 215.639 103.717C215.475 104.095 215.341 104.476 215.341 104.566C215.341 104.656 215.181 104.9 214.986 105.109C214.46 105.674 214.53 106.12 215.164 106.247C215.457 106.305 215.696 106.423 215.696 106.508C215.696 106.593 215.817 106.663 215.966 106.663C216.115 106.663 216.773 106.932 217.429 107.26C219.288 108.19 219.319 108.192 219.642 107.419C220.06 106.419 220.463 105.315 220.919 103.925C221.627 101.766 221.786 101.172 221.681 101.068C221.626 101.012 221.53 101.125 221.469 101.318C221.317 101.796 221.04 101.872 220.117 101.684C218.873 101.431 217.423 101.143 216.893 101.044C216.486 100.968 216.405 101.015 216.405 101.328ZM120.784 102.114C120.131 102.302 119.556 102.563 119.506 102.693C119.399 102.971 119.82 104.462 120.326 105.6C120.521 106.039 120.786 106.633 120.914 106.922L121.148 107.445L121.23 107.01C121.583 105.151 121.705 104.354 121.705 103.889C121.705 103.592 121.791 103.102 121.897 102.8C122.241 101.813 122.11 101.733 120.784 102.114ZM211.741 109.08L210.18 110.604L210.588 110.884C211.109 111.243 211.427 111.646 211.434 111.958C211.44 112.232 210.634 113.042 210.355 113.042C210.108 113.042 209.461 112.685 209.157 112.381C208.542 111.767 208.063 111.569 207.663 111.764C206.992 112.092 205.178 112.654 204.39 112.778C203.976 112.843 203.636 112.973 203.636 113.068C203.636 113.163 203.547 113.185 203.438 113.117C203.286 113.023 204.824 115.456 205.179 115.87C205.217 115.915 205.404 115.855 205.593 115.737C206.099 115.421 206.194 115.453 207.128 116.249C207.597 116.649 208.181 117.141 208.425 117.343C210.153 118.779 211.286 119.894 211.374 120.247C211.561 120.989 210.367 121.676 209.812 121.145C209.239 120.598 208.089 119.775 207.897 119.775C207.768 119.775 207.866 120.098 208.144 120.594C208.396 121.045 208.602 121.523 208.602 121.657C208.602 121.791 208.682 121.901 208.78 121.901C208.877 121.901 208.957 122.016 208.957 122.158C208.957 122.974 209.721 123.666 209.953 123.06C210.008 122.919 210.564 122.261 211.19 121.599C211.815 120.937 212.626 119.956 212.991 119.42C213.357 118.884 213.796 118.291 213.967 118.102C214.137 117.913 214.277 117.661 214.277 117.541C214.277 117.421 214.352 117.297 214.443 117.265C214.671 117.184 216.865 113.48 217.816 111.572C218.713 109.772 218.721 109.797 217.026 109.137C216.44 108.909 215.443 108.459 214.809 108.137C214.175 107.814 213.577 107.552 213.479 107.553C213.381 107.554 212.599 108.241 211.741 109.08Z" fill="#FF4E44"/>
<path fill-rule="evenodd" clip-rule="evenodd" d="M194.548 91.9127C196.425 91.9414 199.498 91.9414 201.375 91.9127C203.253 91.8839 201.717 91.8605 197.962 91.8605C194.206 91.8605 192.67 91.8839 194.548 91.9127ZM144.582 122.964C144.338 123.155 144.039 123.312 143.917 123.314C143.795 123.317 143.695 123.392 143.695 123.483C143.695 123.574 143.536 123.699 143.341 123.761C143.147 123.822 142.888 123.968 142.765 124.083C142.643 124.198 142.004 124.571 141.345 124.911C140.687 125.251 140.148 125.581 140.148 125.643C140.148 125.705 139.909 125.855 139.616 125.976C139.324 126.097 139.084 126.266 139.084 126.352C139.084 126.438 138.98 126.508 138.852 126.508C138.724 126.508 138.457 126.658 138.259 126.843C138.06 127.027 137.626 127.319 137.294 127.49C136.962 127.661 136.359 128.048 135.954 128.35C135.55 128.652 134.997 129.059 134.726 129.254C132.563 130.808 130.045 133.094 130.374 133.204C130.483 133.24 130.572 133.382 130.572 133.519C130.572 133.798 131.65 134.304 132.245 134.304C132.864 134.304 133.409 134.936 133.409 135.654C133.409 136.162 133.244 136.458 132.548 137.198C130.618 139.249 130.057 139.948 129.747 140.682C129.418 141.466 129.561 142.279 130.152 142.98C130.524 143.423 130.736 143.517 131.359 143.517C132.079 143.517 132.191 143.439 133.813 141.789C134.748 140.839 135.671 139.862 135.864 139.619C136.057 139.375 136.929 138.439 137.802 137.537C139.417 135.869 139.681 135.729 140.571 136.068C140.938 136.207 141.546 137.013 141.583 137.41C141.601 137.601 140.447 139.535 140.159 139.796C139.997 139.942 139.674 140.341 139.439 140.682C139.204 141.023 138.967 141.342 138.911 141.391C138.855 141.439 138.534 141.838 138.197 142.277C137.861 142.715 137.54 143.114 137.484 143.162C137.306 143.317 136.656 144.291 136.267 144.984C135.397 146.537 136.162 148.111 137.792 148.12C138.615 148.124 138.498 148.24 141.39 144.577C142.024 143.774 142.722 142.908 142.941 142.652C143.161 142.397 143.34 142.138 143.34 142.076C143.341 141.812 144.879 140.348 145.202 140.304C145.959 140.201 146.551 140.506 146.813 141.131C147.039 141.673 147.037 141.823 146.794 142.403C146.643 142.765 146.459 143.104 146.386 143.156C146.313 143.208 145.677 144.128 144.972 145.2C144.267 146.272 143.632 147.23 143.56 147.328C143.002 148.087 142.631 149.07 142.631 149.787C142.631 150.236 142.711 150.604 142.808 150.604C142.906 150.604 142.966 150.691 142.941 150.797C142.859 151.157 143.805 151.703 144.512 151.703C145.421 151.703 145.753 151.294 148.083 147.326C148.254 147.034 148.44 146.755 148.495 146.706C148.654 146.566 149.624 145.067 149.871 144.58C150.369 143.599 151.323 142.478 151.712 142.416C152.363 142.312 153.106 142.639 153.284 143.107C153.558 143.825 153.476 144.257 152.827 145.544C152.023 147.14 152.004 147.921 152.753 148.551C153.796 149.428 154.752 148.959 155.573 147.168C156.596 144.939 156.818 144.4 156.818 144.149C156.818 144.008 156.887 143.85 156.971 143.798C157.056 143.746 157.223 143.322 157.343 142.857C157.463 142.392 157.629 141.852 157.713 141.656C158.222 140.469 159.122 137.032 159.477 134.924C159.592 134.241 159.77 133.387 159.875 133.024C160.042 132.442 160.014 132.292 159.638 131.743C159.404 131.4 159.102 131.077 158.968 131.025C158.7 130.922 158.237 131.231 158.237 131.514C158.237 131.612 158.093 131.822 157.916 131.979C157.739 132.137 157.344 132.632 157.039 133.08C156.211 134.295 155.318 135.013 154.64 135.008C153.363 135 152.504 133.466 153.121 132.299C153.234 132.086 153.553 131.634 153.831 131.295C154.457 130.531 154.46 130.351 153.852 129.953C153.587 129.779 153.212 129.491 153.021 129.312C152.662 128.978 151.676 128.861 151.676 129.152C151.676 129.243 151.573 129.422 151.448 129.551C151.323 129.68 151.027 130.065 150.791 130.405C149.933 131.646 149.179 132.08 148.202 131.897C147.724 131.807 147.539 131.637 147.234 131.01C146.902 130.325 146.884 130.155 147.076 129.566C147.295 128.895 148.251 127.356 148.518 127.246C148.596 127.213 148.661 127.012 148.661 126.799C148.661 126.535 148.456 126.301 148.022 126.067C146.617 125.311 145.646 124.074 145.646 123.041C145.646 122.507 145.207 122.475 144.582 122.964ZM138.182 128.332C137.587 128.739 135.997 130.279 134.987 131.428C133.995 132.557 134.58 134.126 135.994 134.126C136.569 134.126 136.817 133.959 138.123 132.684C140.057 130.799 140.571 130.058 140.422 129.376C140.296 128.804 139.733 128.205 139.158 128.031C138.917 127.959 138.575 128.064 138.182 128.332ZM148.197 136.329C147.543 136.614 147.249 137.324 147.432 138.177C147.603 138.972 147.961 139.295 148.697 139.316C149.764 139.346 150.393 138.969 150.519 138.222C150.667 137.35 150.39 136.685 149.741 136.35C149.103 136.02 148.915 136.017 148.197 136.329Z" fill="#FEAA16"/>
<path fill-rule="evenodd" clip-rule="evenodd" d="M139.248 24.6146C137.853 26.0081 139.381 28.2404 141.152 27.3967C142.007 26.9895 142.376 26.096 142.031 25.2716C141.507 24.0177 140.163 23.7005 139.248 24.6146ZM165.419 25.5286C151.073 26.6784 136.784 33.2052 127.048 43.0553C117.079 53.1422 111.032 65.058 108.93 78.7573C108.382 82.3305 108.244 89.9056 108.657 93.7291C110.076 106.855 115.476 118.568 124.369 127.809L126.299 129.815L126.028 130.686C125.685 131.792 125.783 133.803 126.222 134.658C126.398 134.999 126.86 135.574 127.249 135.936L127.956 136.594L127.146 137.495C126.108 138.648 125.575 140.031 125.542 141.656L125.518 142.897L120.14 148.301C117.182 151.273 114.642 153.934 114.494 154.214C113.995 155.157 114.525 156.462 115.586 156.905C116.84 157.429 117.092 157.241 122.526 151.726L127.514 146.663L128.671 147.232C129.689 147.733 129.97 147.794 131.006 147.741C132.139 147.683 132.188 147.698 132.281 148.124C132.599 149.59 132.979 150.369 133.755 151.144C135.071 152.459 136.37 152.761 138.583 152.268C138.998 152.176 139.103 152.249 139.414 152.845C139.61 153.221 139.974 153.744 140.225 154.007C140.475 154.271 140.68 154.562 140.68 154.655C140.68 154.747 140.321 155.405 139.882 156.116C138.874 157.751 138.797 158.672 139.603 159.477C140.673 160.547 141.65 160.082 143.147 157.791C144.018 156.458 144.341 156.097 144.663 156.097C146.285 156.097 148.349 154.618 149.353 152.736L149.927 151.659L150.711 152.348C152.128 153.595 154.156 153.767 155.947 152.794C157.195 152.115 157.904 151.222 159.018 148.929C160.912 145.033 162.634 139.722 163.228 135.946C163.433 134.644 163.488 134.512 163.747 134.706C163.907 134.826 164.38 135.183 164.799 135.499C166.239 136.587 166.793 136.252 167.837 133.66C168.714 131.483 169.049 129.969 169.048 128.191C169.046 125.822 168.593 124.207 167.319 122.021C166.693 120.948 166.644 120.129 167.206 120.129C167.355 120.129 168.371 120.359 169.463 120.641C173.594 121.706 178.683 122.463 183.952 122.797C189.527 123.15 192.833 122.763 195.702 121.423C196.458 121.07 197.122 120.826 197.177 120.881C197.425 121.129 198.403 123.792 199.03 125.93C199.731 128.317 200.53 131.957 200.733 133.682L200.845 134.635L199.536 135.481C197.828 136.586 193.683 138.719 191.336 139.701C187.597 141.266 183.563 142.354 178.72 143.102C176.013 143.521 175.117 143.574 169.941 143.623L164.178 143.677L162.444 147.084C161.49 148.958 160.153 151.463 159.473 152.651C158.793 153.838 158.237 154.984 158.237 155.196C158.237 155.83 158.717 156.564 159.285 156.799C159.74 156.987 159.915 156.971 160.48 156.691C161.061 156.403 161.388 155.926 163.138 152.819L165.135 149.275L167.938 149.332C178.985 149.559 188.834 147.486 197.695 143.069C209.774 137.051 219.488 127.356 225.749 115.072C229.024 108.646 230.944 102.287 231.953 94.5261C232.395 91.126 232.393 83.286 231.949 80.0861C230.063 66.4794 224.807 55.2968 215.44 44.961C208.587 37.3991 198.55 31.1712 188.289 28.1134C180.523 25.799 172.857 24.9326 165.419 25.5286ZM133.379 27.3799C132.83 27.6775 132.454 28.6355 132.623 29.3061C132.686 29.5599 132.985 29.9745 133.286 30.2275C133.936 30.7743 134.804 30.7257 135.465 30.1056C136.977 28.6867 135.215 26.3839 133.379 27.3799ZM205.887 28.3953C205.145 28.9883 205.043 30.0453 205.657 30.7746C206.234 31.4603 206.829 31.6168 207.614 31.2895C208.202 31.0436 208.78 30.2544 208.78 29.6951C208.78 28.3191 206.988 27.5143 205.887 28.3953ZM165.597 31.1279C163.458 31.314 159.266 32.0066 157.171 32.5201C146.692 35.0883 138.163 39.8938 130.57 47.5085C126.909 51.1793 123.558 55.7031 120.903 60.5613C117.867 66.1136 115.626 72.8025 114.597 79.3771C114.126 82.3914 113.926 89.8723 114.243 92.6814C114.812 97.7486 115.777 102.125 117.189 106.055C118.043 108.43 120.23 113.156 120.398 112.989C120.494 112.893 120.542 112.571 121.071 108.435C121.387 105.969 121.587 104.712 122.06 102.234C122.237 101.308 122.474 99.9124 122.588 99.1329C123.091 95.6861 124.125 93.4238 126.095 91.4614C127.985 89.5782 130.246 88.4575 132.797 88.1393L133.811 88.0125L133.667 86.3967C133.586 85.5083 133.513 83.6435 133.502 82.2533L133.482 79.7249L132.781 79.1606C131.514 78.1412 130.058 76.515 129.851 75.8869C129.595 75.1127 129.752 74.2877 130.235 73.8694C130.617 73.5378 131.569 73.1937 133.176 72.8054L134.096 72.5831L134.476 71.1521C135.412 67.6256 136.857 64.1395 138.299 61.9248C138.68 61.34 139.072 60.7307 139.171 60.5709C140.571 58.299 143.856 54.5757 145.252 53.679C145.885 53.2727 146.167 52.8831 146.937 51.3483C147.961 49.3099 150.097 46.4454 151.256 45.5561C152.277 44.7737 153.117 44.5605 154.098 44.835C154.886 45.0552 155.842 45.8606 156.034 46.4658C156.107 46.6931 156.236 46.7632 156.435 46.6831C157.221 46.367 159.898 45.5224 161.163 45.1912C168.5 43.2705 176.638 43.6046 184.395 46.1459C187.389 47.1269 192.919 49.8184 194.238 50.9366C194.481 51.1435 195.004 51.528 195.4 51.7912C195.796 52.054 196.425 52.5482 196.797 52.889C197.169 53.2297 197.645 53.5088 197.854 53.5088C198.864 53.5088 202.775 52.2229 205.104 51.1243C206.058 50.6751 207.188 50.2417 207.615 50.1621C209.125 49.8801 210.475 50.751 210.94 52.3059C211.089 52.8064 211.155 54.0097 211.134 55.832C211.1 58.7341 210.764 60.9526 210.013 63.2353C209.714 64.1445 209.686 64.3969 209.872 64.5116C210.206 64.7176 212.374 65.4642 213.922 65.9059C216.143 66.5395 217.958 67.3244 218.257 67.7816C218.651 68.3822 218.61 69.7327 218.176 70.4338C217.642 71.2972 215.568 72.8642 213.612 73.8823C213.198 74.098 212.858 74.3178 212.858 74.3707C212.858 74.4233 213.013 74.9934 213.203 75.6374C214.278 79.2895 214.505 85.1012 213.741 89.4427C213.579 90.3674 213.588 90.3978 214.253 91.2395C215.533 92.8574 216.414 95.2056 216.649 97.6268C216.85 99.7039 216.012 103.343 214.948 105.006C213.539 107.211 212.987 107.915 211.832 108.982C209.85 110.816 206.484 112.486 204.151 112.795C203.673 112.858 203.282 112.94 203.282 112.977C203.282 113.07 205.447 116.392 206.499 117.914C207.714 119.673 209.905 124.272 210.581 126.482C210.766 127.088 215.13 121.916 217.526 118.249C225.903 105.431 228.727 89.3221 225.169 74.6573C222.637 64.22 217.859 55.5917 210.464 48.0941C200.783 38.2797 188.841 32.5702 175.11 31.1912C173.427 31.0222 167.283 30.9814 165.597 31.1279ZM117.319 33.8859C117.215 34.1053 116.977 34.6833 116.789 35.1705C116.456 36.0373 116.423 36.0649 115.23 36.451C113.193 37.1106 113.134 37.4363 114.819 38.7207L115.764 39.4407L115.852 40.7607C115.985 42.7308 116.218 42.9001 117.554 41.9992C118.968 41.0457 118.938 41.0513 120.3 41.4895C122.184 42.096 122.406 41.8203 121.775 39.661L121.481 38.6589L122.214 37.6158C123.411 35.9106 123.262 35.6595 121.003 35.5702L119.858 35.5249L119.084 34.5061C118.231 33.3829 117.654 33.1804 117.319 33.8859ZM167.193 48.6476C165.25 48.9116 164.284 49.1114 162.405 49.6394C161.275 49.9564 158.773 50.8261 158.615 50.957C158.53 51.0275 160.162 53.2744 161.437 54.8414L162.45 56.086L164.644 56.2966C168.269 56.6449 188.063 59.4494 195.562 60.6773C197.607 61.0122 199.306 61.2612 199.336 61.2312C199.451 61.1161 195.685 57.4127 194.503 56.4801C192.545 54.9336 190.064 53.3478 187.878 52.2433C185.595 51.0909 181.314 49.6232 178.703 49.0981C175.088 48.3711 170.541 48.193 167.193 48.6476ZM150.9 50.2225C149.817 52.5094 149.465 54.2283 149.464 57.2296C149.464 60.4625 149.95 62.6288 151.267 65.2615L151.872 66.4719L153.237 64.6567C153.988 63.6582 154.71 62.6973 154.842 62.5204C155.053 62.2385 154.998 62.0641 154.387 61.0877C152.665 58.3316 151.924 55.5917 151.689 51.1168L151.568 48.8136L150.9 50.2225ZM153.993 50.4398C153.932 52.4506 154.981 55.8357 156.275 57.8119C157.486 59.6608 157.527 59.6825 158.496 58.9872C158.939 58.6698 159.301 58.3637 159.3 58.307C159.299 58.2502 158.849 57.6459 158.3 56.9639C156.949 55.2877 155.452 52.9928 154.658 51.3825C154.251 50.5545 154 50.1992 153.993 50.4398ZM147.956 52.6629C147.639 53.372 147.182 54.7092 146.942 55.6351C146.557 57.1187 146.515 57.5808 146.59 59.5328C146.696 62.2856 147.139 64.0161 148.292 66.1774L149.143 67.772L149.921 67.7098C150.35 67.6752 150.726 67.6231 150.757 67.5935C150.789 67.5634 150.498 66.874 150.11 66.0611C148.669 63.0376 148.078 60.4245 148.074 57.0524C148.072 55.7377 148.192 54.1615 148.37 53.1734C148.535 52.2583 148.639 51.4788 148.602 51.4421C148.565 51.405 148.275 51.9543 147.956 52.6629ZM206.031 55.0462C205.445 55.3974 204.208 56.0134 203.282 56.4155C202.355 56.8175 201.499 57.2088 201.379 57.2847C201.223 57.3835 201.393 57.7122 201.971 58.4338C202.417 58.9893 203.385 60.2218 204.124 61.172C204.864 62.1221 205.516 62.8995 205.575 62.8995C205.875 62.8995 206.877 59.7914 207.174 57.9383C207.388 56.6002 207.422 54.3918 207.228 54.4013C207.154 54.4051 206.616 54.6954 206.031 55.0462ZM107.221 55.8974C105.56 56.6069 106.179 59.1787 108.012 59.1787C109.289 59.1787 110.142 57.8282 109.566 56.7162C109.119 55.852 108.133 55.5079 107.221 55.8974ZM231.715 55.8933C230.099 56.5957 230.626 59.1787 232.385 59.1787C233.379 59.1787 234.139 58.4755 234.139 57.5566C234.139 56.6674 233.911 56.2411 233.256 55.9025C232.63 55.5788 232.441 55.5775 231.715 55.8933ZM143.803 61.31C142.446 63.0138 141.459 64.6217 140.495 66.6963C139.77 68.2587 138.783 71.1625 138.928 71.3068C138.978 71.3569 139.641 71.1362 140.402 70.8167L141.784 70.2357L142.36 68.8264C143.279 66.5783 143.864 65.3862 144.759 63.9448L145.596 62.5971L145.35 61.3751C145.214 60.7031 145.08 60.0758 145.051 59.9812C145.022 59.8865 144.461 60.4846 143.803 61.31ZM163.025 60.8016C160.917 62.004 158.411 64.2396 156.802 66.3543C155.859 67.5935 154.158 70.3279 154.158 70.6057C154.158 70.72 153.32 70.8776 152.074 70.9977C149.454 71.2509 147.836 71.7581 143.932 73.5503C140.82 74.9789 138.245 76.0182 136.965 76.3628C136.57 76.4691 136.247 76.6268 136.247 76.7135C136.247 77.0138 137.584 77.9827 138.818 78.5771C140.669 79.4676 142.093 79.7933 144.138 79.7933C148.331 79.7933 151.562 77.9489 153.983 74.1735C154.519 73.3393 155.046 72.654 155.156 72.6507C155.597 72.6369 156.16 74.4663 156.246 76.1888C156.344 78.1608 156.121 79.4196 155.405 80.9311C154.261 83.3486 152.347 85.1216 149.977 85.9583L148.796 86.3758L148.89 88.7678C149.097 93.9547 150.247 98.0447 152.312 100.937C153.184 102.156 154.028 102.686 156.948 103.844C157.706 104.145 158.765 104.595 159.301 104.844C160.418 105.363 160.799 105.388 162.759 105.072C164.636 104.769 165.495 104.99 166.503 106.037C167.077 106.634 167.305 107.067 167.577 108.082L167.924 109.37L169.154 109.7C170.542 110.071 176.256 111.242 179.341 111.788C183.558 112.534 188.328 112.971 190.113 112.775C191.414 112.632 191.345 112.543 189.627 112.151C187.364 111.635 185.382 110.392 183.242 108.147C181.648 106.475 180.461 104.243 179.862 101.791C178.621 96.7121 180.918 91.0259 185.258 88.4354C187.928 86.8409 189.883 86.5756 198.263 86.6711L204.15 86.7378L204.36 85.4937C204.619 83.9638 204.473 80.4502 204.085 78.8695C203.069 74.7303 199.933 71.9658 194.811 70.6962C187.166 68.8009 178.935 69.3273 174.108 72.0192C172.637 72.8396 171.006 74.0721 171.006 74.3632C171.006 74.4959 171.162 75.0673 171.352 75.6329C172.359 78.6167 171.751 81.8208 169.666 84.5281C169.212 85.1179 168.869 85.6217 168.903 85.648C168.938 85.6743 169.426 85.7948 169.989 85.9162C173.156 86.5994 175.686 89.036 176.723 92.4002C177.017 93.3541 177.103 94.0694 177.092 95.5009C177.065 99.5054 175.485 102.776 172.713 104.565C171.483 105.36 171.111 105.395 169.977 104.821C166.187 102.902 163.059 98.6203 161.652 93.4267C161.213 91.8026 161.182 91.4472 161.182 87.8819C161.181 84.1823 161.197 84.0138 161.729 82.0352C162.851 77.8614 164.607 74.7503 167.394 71.9975C170.675 68.758 174.172 67.0045 179.429 65.9647C181.74 65.5076 189.019 65.5147 192.021 65.9768C194.693 66.3885 197.622 67.1209 199.495 67.8445C203.79 69.5062 206.562 72.777 207.915 77.7825C208.272 79.0989 208.323 79.7128 208.329 82.655C208.333 84.5068 208.277 86.2845 208.206 86.606C208.081 87.1654 208.107 87.2037 208.826 87.5157C209.271 87.7084 209.647 87.7768 209.747 87.6834C210.011 87.4377 210.088 82.2888 209.854 80.5316C209.156 75.2946 206.743 70.0843 203.513 66.8444L202.306 65.6336L197.873 64.9787C195.434 64.6188 191.604 64.0432 189.361 63.6999C183.053 62.7352 165.148 60.2414 164.542 60.2431C164.244 60.2443 163.562 60.4954 163.025 60.8016ZM105.021 62.5312C104.424 63.1281 104.323 64.0557 104.78 64.7527C105.422 65.7307 107.07 65.6536 107.703 64.6163C108.126 63.9235 108.137 63.5452 107.754 62.8974C107.156 61.8852 105.844 61.7096 105.021 62.5312ZM233.266 62.472C232.825 62.8428 232.72 63.0664 232.72 63.6357C232.72 64.5616 232.976 65.0025 233.686 65.2986C235.512 66.0607 237.018 63.8134 235.561 62.5008C234.85 61.8597 234.007 61.8493 233.266 62.472ZM208.957 66.909C208.957 67.0004 211.182 70.4743 211.374 70.6828C211.524 70.8451 214.632 69.1575 214.632 68.9135C214.632 68.8518 213.734 68.4973 212.637 68.1261C211.539 67.7549 210.262 67.3052 209.799 67.1267C209.336 66.9486 208.957 66.8502 208.957 66.909ZM146.976 74.7532C145.915 75.0648 141.16 76.8182 140.708 77.0651C140.201 77.3421 142.19 77.6941 144.227 77.6878C146.134 77.682 146.354 77.6436 147.612 77.0993C149.073 76.4674 150.966 75.1019 150.966 74.6794C150.966 74.2982 148.364 74.3465 146.976 74.7532ZM183.597 76.9183C182.485 77.3613 181.823 78.4169 181.823 79.7462C181.823 80.9228 182.301 81.714 183.305 82.1995C184.233 82.6483 184.716 82.6554 185.636 82.2333C186.488 81.8425 186.858 81.4512 187.24 80.5382C188.135 78.3969 185.774 76.0512 183.597 76.9183ZM199.502 78.0394C198.273 78.477 197.607 79.415 197.607 80.7063C197.607 82.8656 199.698 84.1569 201.597 83.1696C202.638 82.6287 203.136 81.6819 203.056 80.3939C203.002 79.5172 202.908 79.2861 202.392 78.7535C201.87 78.2155 200.926 77.7696 200.356 77.7913C200.258 77.795 199.874 77.9068 199.502 78.0394ZM137.788 82.5027C137.673 82.6178 137.834 84.7287 138.129 86.9764C139.083 94.2413 141.719 100.215 145.553 103.798C147.478 105.597 149.454 106.919 152.875 108.698L154.164 109.367L155.136 108.722C155.671 108.367 156.109 108.009 156.109 107.926C156.109 107.843 155.091 107.314 153.848 106.75C151.486 105.68 148.684 103.974 147.43 102.842C146.444 101.952 144.691 99.6046 144.015 98.2687C142.414 95.1042 141.197 90.3899 140.419 84.3383C140.318 83.55 140.303 83.535 139.09 82.984C138.416 82.6779 137.83 82.4614 137.788 82.5027ZM190.158 90.5651C187.799 90.9546 185.639 92.532 184.586 94.6367C183.796 96.2141 183.53 97.5417 183.648 99.3102C183.894 102.965 185.884 106.039 189.062 107.672C191.436 108.892 192.958 109.141 198.082 109.142C202.188 109.144 204.062 108.957 205.562 108.396C208.665 107.236 211.069 104.843 212.055 101.932C213.973 96.2654 211.113 91.2274 205.592 90.5475C203.778 90.3244 191.533 90.3382 190.158 90.5651ZM132.858 92.3911C130.81 92.9554 128.847 94.5253 128.029 96.2541C127.409 97.5626 126.965 99.4257 126.236 103.769C125.43 108.569 125.43 108.535 126.254 107.537C127.482 106.05 130.684 102.989 132.142 101.909C132.945 101.314 134.397 100.382 135.368 99.8374C136.339 99.2926 137.134 98.8138 137.134 98.7734C137.134 98.7325 136.905 98.119 136.625 97.4099C136.346 96.7008 135.857 95.2239 135.538 94.1274L134.959 92.1341L134.317 92.15C133.964 92.1588 133.308 92.2672 132.858 92.3911ZM188.211 94.6354C187.187 95.0438 186.612 96.0535 186.612 97.4441C186.612 98.0489 186.708 98.3675 186.958 98.5936C187.29 98.8935 187.323 98.891 187.78 98.5327C188.099 98.2816 188.511 98.1586 189.029 98.1586C189.667 98.1586 189.926 98.2695 190.503 98.7901C191.096 99.3256 191.258 99.3923 191.565 99.228C192.027 98.9811 192.182 98.3571 192.053 97.2673C191.917 96.1198 191.534 95.4275 190.736 94.8857C190.033 94.4085 189.03 94.3093 188.211 94.6354ZM207.187 95.8112C206.848 95.9814 206.398 96.378 206.188 96.6921C205.164 98.2232 205.741 100.658 206.882 99.6205C207.867 98.7246 208.52 98.7 209.498 99.5225L210.067 100L210.398 99.5917C210.614 99.3252 210.73 98.8993 210.73 98.3721C210.73 96.2003 208.96 94.9211 207.187 95.8112ZM137.446 103.28C135.144 104.57 133.673 105.667 131.973 107.36C129.245 110.077 127.087 113.447 125.726 117.117C124.722 119.828 124.652 119.441 126.537 121.643C127.45 122.711 128.632 124.046 129.163 124.61L130.129 125.636L131.813 124.376C133.599 123.042 135.336 122.006 137.444 121.021C138.151 120.691 138.73 120.361 138.73 120.289C138.73 120.217 138.449 119.985 138.106 119.773C136.509 118.787 136.837 117.85 139.635 115.41C141.304 113.955 143.624 112.683 145.468 112.214C146.139 112.043 147.381 111.914 148.439 111.905C149.438 111.897 150.257 111.872 150.257 111.849C150.257 111.826 149.838 111.598 149.326 111.343C147.551 110.457 144.352 108.191 142.83 106.741C141.989 105.939 140.822 104.641 140.237 103.855C139.652 103.069 139.133 102.423 139.084 102.419C139.036 102.415 138.298 102.802 137.446 103.28ZM234.066 107.563C233.082 108.732 233.832 110.384 235.348 110.384C235.933 110.384 236.147 110.278 236.604 109.758C237.219 109.058 237.279 108.659 236.886 107.9C236.547 107.245 236.121 107.018 235.231 107.018C234.661 107.018 234.437 107.122 234.066 107.563ZM161.504 108.844C158.858 109.917 156.031 112.105 153.748 114.847C152.336 116.544 149.009 121.584 149.019 122.013C149.023 122.187 151.221 123.85 151.447 123.85C151.527 123.85 152.022 123.215 152.546 122.439C153.796 120.59 154.188 120.235 154.984 120.235C155.478 120.235 155.736 120.364 156.132 120.805C156.974 121.747 156.868 122.181 155.273 124.336L154.312 125.634L154.723 125.982C154.949 126.173 155.573 126.62 156.109 126.976C156.646 127.332 157.284 127.806 157.528 128.029L157.971 128.436L159.035 127.191C161.82 123.933 163.912 119.506 164.456 115.723C164.699 114.023 164.593 110.592 164.253 109.188C164.042 108.315 163.995 108.258 163.482 108.261C163.182 108.263 162.292 108.525 161.504 108.844ZM196.618 114.083C194.373 116.24 192.378 116.872 188.377 116.692C183.386 116.468 176.215 115.381 170.03 113.912C169.25 113.727 168.522 113.575 168.413 113.575C168.224 113.573 167.876 115.998 168.041 116.163C168.422 116.543 176.81 118.166 180.759 118.623C184.567 119.064 189.606 119.167 191.311 118.839C193.961 118.33 195.628 117.491 197.237 115.857C198.085 114.997 199.118 113.334 198.961 113.081C198.914 113.004 198.65 112.927 198.374 112.909C197.975 112.883 197.618 113.122 196.618 114.083ZM157.066 114.712C156.139 115.115 155.666 115.969 155.666 117.237C155.666 118.073 155.754 118.449 156.039 118.832C157.278 120.492 159.805 120.326 160.725 118.523C161.428 117.147 161.024 115.642 159.75 114.896C158.912 114.405 157.927 114.338 157.066 114.712ZM146.001 115.677C145.464 115.849 144.692 116.201 144.284 116.459C143.409 117.013 142.276 117.982 142.276 118.177C142.276 118.253 142.735 118.35 143.296 118.394C143.865 118.439 144.936 118.725 145.72 119.042C147.197 119.64 147.157 119.645 147.629 118.8C147.738 118.605 148.254 117.789 148.776 116.986C149.298 116.183 149.725 115.485 149.725 115.435C149.725 115.208 146.888 115.392 146.001 115.677ZM200.387 117.614C200.117 117.911 200.156 118.062 200.958 119.873C202.336 122.978 203.6 127.133 204.165 130.405C204.5 132.345 204.397 132.295 205.776 131.181C206.56 130.548 207.006 130.059 207.006 129.832C207.006 129.147 205.742 125.692 204.705 123.542C203.643 121.341 201.09 117.294 200.763 117.294C200.715 117.294 200.547 117.438 200.387 117.614ZM230.187 118.182C229.595 118.647 229.439 119.395 229.769 120.185C230.078 120.923 230.511 121.192 231.392 121.192C232.653 121.192 233.431 119.862 232.878 118.651C232.492 117.805 230.998 117.545 230.187 118.182ZM140.5 123.543C136.231 125.686 133.118 127.824 131.056 130.025C129.834 131.331 129.587 132.193 130.131 133.246C130.418 133.8 131.211 134.304 131.796 134.304C132.818 134.304 133.649 135.326 133.278 136.127C133.179 136.343 132.407 137.266 131.562 138.18C130.717 139.093 129.909 140.066 129.767 140.341C129.198 141.439 129.595 142.924 130.596 143.441C131.728 144.026 132.01 143.829 135.821 139.791C139.171 136.241 139.357 136.075 139.991 136.075C140.497 136.075 140.742 136.186 141.022 136.542C141.735 137.447 141.576 137.795 138.879 141.246C136.149 144.739 135.892 145.168 135.892 146.227C135.892 146.979 135.973 147.177 136.495 147.698C137.268 148.471 137.96 148.499 138.768 147.79C139.088 147.508 140.148 146.262 141.124 145.02C144.365 140.892 144.89 140.328 145.485 140.328C146.179 140.328 146.887 141.026 146.887 141.71C146.887 141.994 146.645 142.571 146.345 143.003C143.626 146.915 142.465 148.914 142.458 149.692C142.447 150.791 143.439 151.845 144.487 151.845C145.231 151.845 146 150.91 148.408 147.078C149.657 145.09 150.87 143.237 151.104 142.959C151.582 142.392 152.259 142.297 152.856 142.715C153.521 143.18 153.487 143.822 152.708 145.524C151.919 147.248 151.896 147.858 152.596 148.603C153.085 149.123 154.109 149.15 154.734 148.659C155.97 147.687 158.924 139.041 159.773 133.909L160.087 132.007L159.482 131.384C159.149 131.041 158.818 130.76 158.746 130.76C158.674 130.76 157.996 131.607 157.241 132.643C155.609 134.88 155.068 135.227 154.015 134.71C153.57 134.492 153.292 134.193 153.128 133.755C152.847 133.006 153.045 132.423 154.014 131.146L154.595 130.38L154.155 130.037C153.478 129.509 152.159 128.633 152.044 128.637C151.987 128.638 151.544 129.205 151.058 129.896C149.956 131.464 149.508 131.823 148.652 131.823C148.117 131.823 147.887 131.71 147.505 131.255C146.82 130.442 146.954 129.537 147.979 128.072C148.41 127.455 148.818 126.861 148.886 126.752C148.96 126.632 148.596 126.3 147.967 125.911C146.241 124.847 145.652 123.968 145.804 122.678C145.817 122.57 145.467 122.432 145.027 122.371C144.587 122.311 144.048 122.219 143.828 122.167C143.553 122.101 142.524 122.527 140.5 123.543ZM163.722 124.938C163.516 125.342 162.911 126.305 162.378 127.078L161.409 128.483L162.261 129.462C162.731 130.001 163.388 130.802 163.722 131.241C164.265 131.954 164.354 132.008 164.549 131.743C164.668 131.579 164.904 130.883 165.073 130.197C165.486 128.51 165.354 126.534 164.737 125.188C164.489 124.647 164.243 124.204 164.192 124.204C164.139 124.204 163.928 124.534 163.722 124.938ZM116.32 131.1L112.787 134.63L112.886 135.366C112.94 135.771 113.122 136.255 113.29 136.44C113.752 136.95 114.691 137.065 115.277 136.684C116.143 136.12 121.92 130.333 122.15 129.799C122.63 128.682 121.848 127.57 120.582 127.57C119.87 127.57 119.766 127.657 116.32 131.1ZM176.748 127.734C175.876 127.877 175.203 128.288 174.777 128.938C174.5 129.361 174.464 129.904 174.464 133.675C174.464 137.617 174.491 137.981 174.819 138.537C175.014 138.868 175.399 139.307 175.675 139.512C176.163 139.875 176.348 139.885 182.534 139.885C188.679 139.885 188.908 139.872 189.381 139.519C190.578 138.627 190.596 138.55 190.661 134.32C190.698 131.866 190.648 130.198 190.523 129.734C190.24 128.682 189.598 128.005 188.664 127.769C187.804 127.553 178.031 127.525 176.748 127.734ZM137.914 128.609C136.836 129.4 134.685 131.713 134.558 132.217C134.311 133.202 135.36 134.298 136.32 134.057C136.775 133.944 139.689 131.085 140.096 130.353C140.444 129.727 140.361 129.132 139.849 128.599C139.246 127.97 138.783 127.972 137.914 128.609ZM178.099 133.772V136.075H182.533H186.967V133.772V131.469H182.533H178.099V133.772ZM221.603 133.281C221.524 133.401 221.256 134.018 221.008 134.652L220.558 135.806L219.342 136.251C217.418 136.955 217.399 137.261 219.198 138.588L220.129 139.276V140.564C220.129 141.811 220.3 142.277 220.758 142.277C220.87 142.277 221.45 141.961 222.047 141.575L223.133 140.874L224.368 141.245C225.047 141.449 225.727 141.568 225.881 141.509C226.231 141.374 226.235 140.68 225.891 139.546C225.535 138.373 225.53 138.395 226.336 137.316C226.726 136.793 227.046 136.219 227.046 136.039C227.046 135.6 226.366 135.367 225.089 135.367H224.042L223.325 134.397C222.705 133.558 222.152 133.063 221.836 133.063C221.787 133.063 221.682 133.161 221.603 133.281ZM120.54 135.576C120.24 135.802 117.669 138.29 114.827 141.104C111.33 144.566 109.597 146.406 109.469 146.793C109.162 147.723 109.714 148.667 110.711 148.916C111.457 149.102 112.456 148.251 117.936 142.762C122.837 137.853 123.123 137.53 123.123 136.919C123.123 135.539 121.621 134.758 120.54 135.576ZM147.855 136.688C147.306 137.236 147.276 138.15 147.787 138.798C148.29 139.437 149.375 139.453 149.999 138.83C150.623 138.206 150.607 137.123 149.967 136.62C149.318 136.11 148.403 136.139 147.855 136.688ZM203.991 145.237C202.819 145.665 202.526 147.219 203.446 148.137C204.526 149.217 206.296 148.371 206.296 146.775C206.296 145.658 205.074 144.841 203.991 145.237ZM197.779 148.601C197.158 149.026 197.081 149.182 197.078 150.019C197.074 151.096 197.674 151.748 198.67 151.748C200.443 151.748 201.088 149.358 199.532 148.553C198.885 148.219 198.315 148.234 197.779 148.601ZM191.46 150.35C189.866 151.156 190.476 153.624 192.266 153.612C193.798 153.603 194.587 151.896 193.573 150.784C192.973 150.127 192.211 149.97 191.46 150.35ZM135.183 156.928C134.73 157.1 134.298 157.55 133.174 159.02C132.299 160.163 132.089 160.565 132.089 161.092C132.086 162.487 133.704 163.196 134.676 162.225C135.674 161.227 137.134 158.977 137.134 158.435C137.134 157.486 136.005 156.614 135.183 156.928Z" fill="#070715"/>
</svg>
