<svg width="650" height="650" viewBox="0 0 650 650" fill="none" xmlns="http://www.w3.org/2000/svg">
<g clip-path="url(#clip0_4_901)">
<path opacity="0.4" d="M294.042 1.60977C42.2437 25.506 -93.251 325.451 73.5117 530.308C150.551 625.341 279.263 672.361 406.155 639.635C474.15 622.085 532.881 583.233 574.737 532.626C757.547 312.703 585.38 -26.2048 294.042 1.60977Z" fill="url(#paint0_radial_4_901)"/>
<path d="M576.061 324.403C576.061 339.083 574.793 353.487 572.367 367.449C571.043 374.955 569.444 382.35 567.514 389.635C556.815 429.59 536.521 465.573 509.279 495.043C499.408 505.75 488.599 515.573 476.963 524.403C466.265 532.571 454.85 539.911 442.883 546.312C426.67 554.977 409.409 561.875 391.321 566.842C370.2 572.637 347.976 575.672 325.035 575.672C314.502 575.672 304.135 575.01 293.988 573.741C208.952 563.255 137.041 510.165 100.313 436.489C85.9754 407.791 76.9866 376.003 74.6153 342.394C74.1741 336.434 73.9535 330.418 73.9535 324.403C73.9535 286.489 82.3358 250.562 97.3356 218.332C110.736 189.524 129.486 163.696 152.206 142.118C173.217 122.14 197.702 105.749 224.669 93.9941C255.385 80.5835 289.355 73.1331 324.98 73.1331C433.232 73.1331 525.492 141.676 560.731 237.813C569.499 261.765 574.738 287.372 575.841 314.138C576.006 317.504 576.061 320.926 576.061 324.403Z" fill="url(#paint1_radial_4_901)"/>
<path d="M576.061 324.403C576.061 339.083 574.793 353.487 572.367 367.449C571.043 374.955 569.444 382.35 567.514 389.635C556.815 429.59 536.521 465.573 509.279 495.043C499.408 505.75 488.599 515.573 476.963 524.403C466.265 532.571 454.85 539.911 442.883 546.312C426.67 554.977 409.409 561.875 391.321 566.842C370.2 572.637 347.976 575.672 325.035 575.672C314.502 575.672 304.135 575.01 293.988 573.741C208.952 563.255 137.041 510.165 100.313 436.489C85.9754 407.791 76.9866 376.003 74.6153 342.394C74.1741 336.434 73.9535 330.418 73.9535 324.403C73.9535 286.489 82.3358 250.562 97.3356 218.332C110.736 189.524 129.486 163.696 152.206 142.118C173.217 122.14 197.702 105.749 224.669 93.9941C255.385 80.5835 289.355 73.1331 324.98 73.1331C433.232 73.1331 525.492 141.676 560.731 237.813C569.499 261.765 574.738 287.372 575.841 314.138C576.006 317.504 576.061 320.926 576.061 324.403Z" fill="url(#paint2_radial_4_901)"/>
<path d="M100.259 436.489C98.5494 433.067 96.895 429.535 95.3509 426.003C83.9356 400.231 76.7666 372.25 74.6159 342.835C74.6159 342.67 74.6158 342.559 74.5607 342.394C79.6341 341.732 86.5826 344.049 91.6561 358.343C98.2185 376.941 128.77 422.25 100.259 436.489Z" fill="#BCBCBC"/>
<path d="M297.463 393.774C297.132 395.816 296.415 397.747 295.367 399.513C287.371 413.862 259.522 420.926 228.475 415.573C201.453 410.882 179.891 398.078 172.942 384.171C170.902 380.087 170.13 375.948 170.847 371.809C173.99 353.707 204.376 349.348 239.339 355.473C274.302 361.489 300.606 375.672 297.463 393.774Z" fill="#BCBCBC"/>
<path d="M223.07 274.127L223.015 274.182C216.066 284.668 194.394 275.065 169.192 258.564C148.622 245.098 133.953 231.687 132.961 221.478C132.74 219.16 133.237 216.952 134.505 214.965C141.453 204.369 169.027 203.652 194.284 220.208C219.541 236.765 230.018 263.531 223.07 274.127Z" fill="#BCBCBC"/>
<path d="M501.228 428.873C480.879 445.871 456.505 450.231 446.854 438.586C446.358 437.979 445.917 437.372 445.531 436.71C438.141 424.624 446.964 402.935 466.266 386.875C485.898 370.485 509.225 365.849 519.537 375.948C519.923 376.334 520.309 376.721 520.64 377.107C530.29 388.752 521.633 411.931 501.228 428.873Z" fill="#BCBCBC"/>
<path d="M354.429 289.524C333.859 305.805 312.958 314.8 300.992 299.679C299.834 298.244 298.896 296.699 298.069 295.043C290.459 279.701 297.959 257.46 316.598 242.725C337.168 226.445 365.237 218.774 384.373 243.001C384.483 243.167 384.649 243.332 384.704 243.498C395.954 258.454 374.833 273.409 354.429 289.524Z" fill="#BCBCBC"/>
<path d="M272.26 516.897C269.282 519.767 263.381 521.368 254.117 520.926C220.147 519.436 183.254 478.045 193.566 464.745C193.732 464.524 193.897 464.359 194.062 464.193C204.761 452.107 231.562 473.851 245.238 481.025C267.793 492.836 280.146 509.337 272.26 516.897Z" fill="#BCBCBC"/>
<path d="M405.494 486.379C405.549 494.215 394.906 502.493 378.141 503.211C347.48 504.535 329.999 498.63 325.863 487.703C325.421 486.544 325.146 485.33 324.98 484.005C323.491 470.705 351.561 472.968 366.34 472.195C394.079 470.705 405.439 478.321 405.494 486.379Z" fill="#BCBCBC"/>
<path d="M498.415 310.054C495.051 315.076 488.544 318.498 480.107 318.498C453.526 318.498 418.067 299.293 422.534 281.522C423.03 279.48 423.802 277.714 424.685 276.279C431.523 265.242 448.784 270.595 465.383 274.127C498.581 281.191 505.695 299.293 498.415 310.054Z" fill="#BCBCBC"/>
<path d="M412.111 179.535C411.78 178.762 411.615 177.879 411.504 176.941C410.843 169.38 418.288 158.343 432.791 154.369C442.221 151.776 454.96 152.107 462.846 156.963C466.32 159.116 468.802 162.096 469.739 166.18C471.945 176.334 416.799 191.29 412.111 179.535Z" fill="#BCBCBC"/>
<path d="M260.57 156.025C258.695 157.129 256.489 156.798 254.118 154.425C237.849 138.144 236.416 111.544 245.239 107.129C248.713 105.363 251.746 104.811 254.338 105.087C271.985 107.074 270.055 150.286 260.57 156.025Z" fill="#BCBCBC"/>
<path d="M539.113 249.016C537.955 249.568 536.577 249.679 535.088 249.292C528.911 247.692 520.86 238.2 518.433 223.906C517.055 215.517 521.246 207.46 526.705 204.921C532.772 202.052 540.437 206.025 543.525 223.906C545.345 234.061 545.069 246.036 539.113 249.016Z" fill="#BCBCBC"/>
<path d="M509.28 495.043C490.254 515.628 467.81 533.012 442.884 546.257C440.071 544.878 437.535 542.836 436.542 539.911C435.66 537.317 436.046 534.006 438.748 529.811C449.06 513.531 459.428 488.42 483.03 486.93C489.924 486.489 495.383 487.317 499.74 488.862C503.931 490.407 507.019 492.615 509.28 495.043Z" fill="#BCBCBC"/>
<path d="M391.267 566.787C370.145 572.582 347.921 575.617 324.98 575.617C314.448 575.617 304.08 574.955 293.933 573.686C293.933 570.706 294.485 567.505 296.304 564.8C298.069 562.207 300.992 560.109 305.79 559.337C323.492 556.357 332.37 544.547 357.462 546.037C370.476 546.809 379.576 553.156 385.256 559.061C388.068 562.041 389.998 564.8 391.267 566.787Z" fill="#BCBCBC"/>
<path d="M359.171 108.95C357.902 115.241 347.259 117.504 342.131 115.131C341.028 114.634 340.201 113.917 339.759 113.034C336.781 107.129 356.248 96.0912 358.95 105.639C359.281 106.853 359.336 107.957 359.171 108.95Z" fill="#BCBCBC"/>
<path d="M282.186 441.125C275.568 437.814 270.384 435.22 271.873 448.52C273.362 461.82 283.675 464.8 292.553 464.8C301.377 464.8 288.086 444.105 282.186 441.125Z" fill="#9B9B9B"/>
<path d="M159.596 432.295C153.695 430.805 153.695 441.18 149.284 451.5C144.872 461.82 150.773 469.215 159.596 469.215C168.475 469.215 171.397 435.22 159.596 432.295Z" fill="#9B9B9B"/>
<path d="M133.015 299.237C127.335 296.643 121.214 293.332 119.725 299.237C118.236 305.142 131.526 321.423 138.916 321.423C146.305 321.423 149.228 306.632 133.015 299.237Z" fill="#9B9B9B"/>
<path d="M576.061 324.403C576.061 339.083 574.793 353.487 572.366 367.449C570.215 366.621 568.01 365.131 565.693 362.813C550.914 348.023 562.109 327.052 565.693 319.932C569.664 311.985 573.635 312.703 575.84 314.083C576.006 317.504 576.061 320.926 576.061 324.403Z" fill="#9B9B9B"/>
<path d="M423.967 340.628C415.419 339.579 410.677 346.533 423.967 352.438C437.257 358.398 435.768 342.118 423.967 340.628Z" fill="#9B9B9B"/>
<path d="M106.434 274.127C102.464 276.114 102.023 284.447 112.335 283.012C122.648 281.522 115.258 269.712 106.434 274.127Z" fill="#9B9B9B"/>
<path d="M316.157 170.705C311.745 172.195 305.844 176.61 316.157 178.1C326.469 179.535 320.568 169.215 316.157 170.705Z" fill="#9B9B9B"/>
<path d="M341.248 170.705C335.844 167.559 335.347 182.515 339.759 188.42C344.171 194.325 358.95 181.025 341.248 170.705Z" fill="#9B9B9B"/>
<path d="M388.508 520.981C385.309 521.699 384.096 526.886 392.919 529.866C401.798 532.791 401.798 518.001 388.508 520.981Z" fill="#9B9B9B"/>
<path d="M260.017 546.092C255.606 547.582 251.139 550.507 260.017 553.487C268.896 556.412 264.429 544.602 260.017 546.092Z" fill="#9B9B9B"/>
<path d="M267.407 328.818C259.907 329.204 276.286 339.138 280.697 340.628C285.109 342.118 298.399 327.328 267.407 328.818Z" fill="#9B9B9B"/>
<path d="M509.61 290.407C505.915 293.277 512.588 309.612 518.488 308.122C524.389 306.632 522.9 280.032 509.61 290.407Z" fill="#9B9B9B"/>
<path d="M390.825 393.995C390.164 396.533 389.337 399.017 388.509 401.224C384.208 412.758 358.785 417.284 352.058 411.986C351.892 411.875 351.727 411.71 351.561 411.544C345.661 405.639 351.396 390.794 354.539 383.454C358.951 373.134 381.12 365.738 388.509 368.663C394.465 371.147 393.693 383.233 390.825 393.995Z" fill="#BCBCBC"/>
<path d="M132.961 221.533C132.74 219.215 133.237 217.007 134.505 215.021C141.453 204.425 169.027 203.707 194.284 220.264C219.541 236.82 230.018 263.586 223.07 274.182L223.015 274.237C223.401 267.78 220.699 258.729 211.269 246.091C186.673 213.255 141.839 201.941 132.961 221.533Z" fill="#9B9B9B"/>
<path d="M297.463 393.774C297.132 395.816 296.415 397.747 295.367 399.513C294.761 396.975 289.301 377.052 264.43 368.718C238.622 360.109 203.88 352.438 183.2 368.718C176.582 373.906 173.77 379.259 172.942 384.116C170.902 380.032 170.13 375.893 170.847 371.754C173.99 353.652 204.376 349.292 239.339 355.418C274.302 361.489 300.606 375.672 297.463 393.774Z" fill="#9B9B9B"/>
<path d="M338.271 238.641C310.808 248.133 299.227 275.065 298.069 295.043C290.459 279.701 297.959 257.46 316.598 242.725C337.168 226.445 365.237 218.774 384.373 243.001C384.483 243.167 384.649 243.332 384.704 243.498C376.432 237.096 361.377 230.694 338.271 238.641Z" fill="#9B9B9B"/>
<path d="M390.825 393.995C390.55 383.288 387.903 371.202 376.708 374.624C365.238 378.156 352.223 398.961 352.113 411.986C351.947 411.875 351.782 411.71 351.616 411.544C345.716 405.639 351.451 390.794 354.594 383.454C359.006 373.134 381.175 365.738 388.565 368.663C394.465 371.147 393.693 383.233 390.825 393.995Z" fill="#9B9B9B"/>
<path d="M498.416 310.054C501.78 290.573 470.567 284.281 454.96 278.597C439.519 272.968 428.931 274.955 424.63 276.279C431.468 265.242 448.729 270.595 465.328 274.127C498.581 281.191 505.695 299.293 498.416 310.054Z" fill="#9B9B9B"/>
<path d="M412.112 179.535C411.781 178.762 411.616 177.879 411.506 176.941C420.825 183.122 444.704 178.1 457.884 172.14C467.314 167.835 465.77 161.544 462.847 157.018C466.321 159.171 468.803 162.151 469.74 166.235C471.946 176.334 416.8 191.29 412.112 179.535Z" fill="#9B9B9B"/>
<path d="M260.57 156.025C258.695 157.129 256.489 156.798 254.118 154.425C237.849 138.144 236.416 111.544 245.239 107.129C248.713 105.363 251.746 104.811 254.338 105.087C250.754 105.749 245.239 108.895 245.239 121.919C245.239 136.93 252.463 149.237 260.57 156.025Z" fill="#9B9B9B"/>
<path d="M359.171 108.95C358.674 106.411 356.689 103.983 350.127 105.639C344.778 106.963 342.737 111.047 342.131 115.131C341.028 114.634 340.201 113.917 339.759 113.034C336.781 107.129 356.248 96.0912 358.95 105.639C359.281 106.853 359.336 107.957 359.171 108.95Z" fill="#9B9B9B"/>
<path d="M272.26 516.897C270.992 508.95 263.712 501.224 251.139 494.326C234.871 485.44 223.069 476.61 212.757 469.215C207.353 465.352 199.908 464.304 194.062 464.193C204.761 452.107 231.562 473.851 245.238 481.025C267.793 492.836 280.146 509.337 272.26 516.897Z" fill="#9B9B9B"/>
<path d="M405.494 486.379C403.123 480.473 395.954 478.045 384.042 478.045H342.682C326.855 478.045 325.863 487.206 325.863 487.648C325.421 486.489 325.146 485.275 324.98 483.95C323.491 470.65 351.561 472.913 366.34 472.14C394.079 470.705 405.439 478.321 405.494 486.379Z" fill="#9B9B9B"/>
<path d="M385.256 559.116C388.068 561.986 389.998 564.8 391.267 566.787C370.145 572.582 347.921 575.617 324.98 575.617C314.448 575.617 304.08 574.955 293.933 573.686C293.933 570.705 294.485 567.505 296.304 564.8C345.385 576.39 373.675 565.628 385.256 559.116Z" fill="#9B9B9B"/>
<path d="M509.279 495.043C490.254 515.628 467.809 533.012 442.883 546.257C440.07 544.878 437.534 542.836 436.541 539.911C477.735 524.458 495.548 496.478 499.739 488.917C503.93 490.407 507.018 492.615 509.279 495.043Z" fill="#9B9B9B"/>
<path d="M519.537 375.948C516.228 374.789 492.681 368.222 465.273 399.734C451.431 415.683 446.633 428.045 445.531 436.71C438.141 424.624 446.964 402.935 466.266 386.875C485.898 370.54 509.225 365.849 519.537 375.948Z" fill="#9B9B9B"/>
<path d="M535.088 249.237C528.911 247.637 520.86 238.144 518.433 223.851C517.055 215.462 521.246 207.405 526.705 204.866C524.334 208.012 522.128 212.813 522.845 219.436C524.113 230.142 528.139 240.849 535.088 249.237Z" fill="#9B9B9B"/>
<path d="M100.259 436.489C98.5494 433.067 96.895 429.535 95.3509 426.003C102.41 419.601 109.358 407.902 100.535 389.414C89.6157 366.511 84.3216 346.809 74.6159 342.835C74.6159 342.67 74.6158 342.559 74.5607 342.394C79.6341 341.732 86.5826 344.049 91.6561 358.343C98.2185 376.941 128.77 422.25 100.259 436.489Z" fill="#9B9B9B"/>
<path opacity="0.45" d="M476.963 524.403C466.265 532.571 454.85 539.911 442.883 546.313C426.67 554.977 409.409 561.875 391.321 566.842C370.2 572.637 347.976 575.672 325.035 575.672C314.502 575.672 304.135 575.01 293.988 573.741C208.952 563.255 137.041 510.165 100.313 436.489C85.9754 407.791 76.9866 376.003 74.6153 342.394C74.1741 336.434 73.9535 330.418 73.9535 324.403C73.9535 286.489 82.3358 250.562 97.3356 218.332C110.736 189.524 129.486 163.696 152.206 142.118C82.1703 476.39 339.759 522.692 476.963 524.403Z" fill="url(#paint3_linear_4_901)"/>
<path d="M576.062 324.403C576.062 339.083 574.793 353.487 572.367 367.449C571.043 374.955 569.444 382.35 567.514 389.635C558.801 187.537 422.038 72.6364 224.669 93.9941C255.385 80.5835 289.356 73.1331 324.98 73.1331C433.232 73.1331 525.492 141.676 560.731 237.813C569.499 261.765 574.738 287.372 575.841 314.138C576.007 317.504 576.062 320.926 576.062 324.403Z" fill="url(#paint4_linear_4_901)"/>
</g>
<defs>
<radialGradient id="paint0_radial_4_901" cx="0" cy="0" r="1" gradientUnits="userSpaceOnUse" gradientTransform="translate(325.005 324.982) scale(300.727 300.952)">
<stop stop-color="#F8F8F8"/>
<stop offset="1" stop-color="white" stop-opacity="0"/>
</radialGradient>
<radialGradient id="paint1_radial_4_901" cx="0" cy="0" r="1" gradientUnits="userSpaceOnUse" gradientTransform="translate(313.919 191.377) scale(383.382 383.669)">
<stop stop-color="#E8E8E8"/>
<stop offset="1" stop-color="#DFDFDF"/>
</radialGradient>
<radialGradient id="paint2_radial_4_901" cx="0" cy="0" r="1" gradientUnits="userSpaceOnUse" gradientTransform="translate(313.919 191.377) scale(383.382 383.669)">
<stop stop-color="#E8E8E8"/>
<stop offset="1" stop-color="#DFDFDF"/>
</radialGradient>
<linearGradient id="paint3_linear_4_901" x1="276.482" y1="687.815" x2="274.029" y2="65.1221" gradientUnits="userSpaceOnUse">
<stop/>
<stop offset="1" stop-opacity="0.2"/>
</linearGradient>
<linearGradient id="paint4_linear_4_901" x1="548.318" y1="73.0222" x2="395.442" y2="242.279" gradientUnits="userSpaceOnUse">
<stop stop-color="#B7B7B7"/>
<stop offset="0.557292" stop-color="#AEAEAE" stop-opacity="0.2"/>
</linearGradient>
<clipPath id="clip0_4_901">
<rect width="650" height="650" fill="white"/>
</clipPath>
</defs>
</svg>
